<svg width="76" height="79" viewBox="0 0 76 79" fill="none" xmlns="http://www.w3.org/2000/svg">
<g clip-path="url(#clip0)">
<path d="M54.6542 77.8842H74.0147V40.2253L54.6542 27.6724M54.6542 77.8842H20.7732V9.26135H54.6542V77.8842ZM20.7732 22.6512H1.4126V77.8842H20.7732V22.6512Z" stroke="#343434" stroke-width="2.5" stroke-linecap="round" stroke-linejoin="round"/>
<path d="M37.7224 77.8842V59.4732M51.4275 9.26135V0.8927H24V9.26135H51.4275ZM35.2937 18.4669C35.2937 18.023 35.1237 17.5972 34.8211 17.2833C34.5186 16.9695 34.1082 16.7931 33.6803 16.7931H28.8402C28.4123 16.7931 28.0019 16.9695 27.6993 17.2833C27.3968 17.5972 27.2268 18.023 27.2268 18.4669V23.488C27.2268 23.9319 27.3968 24.3577 27.6993 24.6715C28.0019 24.9854 28.4123 25.1618 28.8402 25.1618H33.6803C34.1082 25.1618 34.5186 24.9854 34.8211 24.6715C35.1237 24.3577 35.2937 23.9319 35.2937 23.488V18.4669ZM35.2937 32.6936C35.2937 32.2497 35.1237 31.8239 34.8211 31.51C34.5186 31.1962 34.1082 31.0198 33.6803 31.0198H28.8402C28.4123 31.0198 28.0019 31.1962 27.6993 31.51C27.3968 31.8239 27.2268 32.2497 27.2268 32.6936V37.7147C27.2268 38.1586 27.3968 38.5844 27.6993 38.8982C28.0019 39.2121 28.4123 39.3885 28.8402 39.3885H33.6803C34.1082 39.3885 34.5186 39.2121 34.8211 38.8982C35.1237 38.5844 35.2937 38.1586 35.2937 37.7147V32.6936ZM35.2937 46.9202C35.2937 46.4763 35.1237 46.0506 34.8211 45.7367C34.5186 45.4229 34.1082 45.2465 33.6803 45.2465H28.8402C28.4123 45.2465 28.0019 45.4229 27.6993 45.7367C27.3968 46.0506 27.2268 46.4763 27.2268 46.9202V51.9414C27.2268 52.3853 27.3968 52.8111 27.6993 53.1249C28.0019 53.4388 28.4123 53.6152 28.8402 53.6152H33.6803C34.1082 53.6152 34.5186 53.4388 34.8211 53.1249C35.1237 52.8111 35.2937 52.3853 35.2937 51.9414V46.9202ZM48.2007 77.8842V61.1469C48.2007 60.703 48.0307 60.2773 47.7282 59.9634C47.4256 59.6496 47.0153 59.4732 46.5874 59.4732H28.8402C28.4123 59.4732 28.0019 59.6496 27.6993 59.9634C27.3968 60.2773 27.2268 60.703 27.2268 61.1469V77.8842H48.2007ZM20.7733 31.0198H9.47959C9.0517 31.0198 8.64134 31.1962 8.33878 31.51C8.03621 31.8239 7.86621 32.2497 7.86621 32.6936V37.7147C7.86621 38.1586 8.03621 38.5844 8.33878 38.8982C8.64134 39.2121 9.0517 39.3885 9.47959 39.3885H20.7733V31.0198ZM20.7733 45.2465H9.47959C9.0517 45.2465 8.64134 45.4229 8.33878 45.7367C8.03621 46.0506 7.86621 46.4763 7.86621 46.9202V51.9414C7.86621 52.3853 8.03621 52.8111 8.33878 53.1249C8.64134 53.4388 9.0517 53.6152 9.47959 53.6152H20.7733V45.2465ZM20.7733 59.4732H9.47959C9.0517 59.4732 8.64134 59.6496 8.33878 59.9634C8.03621 60.2773 7.86621 60.703 7.86621 61.1469V66.1681C7.86621 66.612 8.03621 67.0378 8.33878 67.3516C8.64134 67.6655 9.0517 67.8419 9.47959 67.8419H20.7733V59.4732ZM40.1338 23.488C40.1338 23.9319 40.3038 24.3577 40.6064 24.6715C40.909 24.9854 41.3193 25.1618 41.7472 25.1618H46.5874C47.0153 25.1618 47.4256 24.9854 47.7282 24.6715C48.0307 24.3577 48.2007 23.9319 48.2007 23.488V18.4669C48.2007 18.023 48.0307 17.5972 47.7282 17.2833C47.4256 16.9695 47.0153 16.7931 46.5874 16.7931H41.7472C41.3193 16.7931 40.909 16.9695 40.6064 17.2833C40.3038 17.5972 40.1338 18.023 40.1338 18.4669V23.488ZM40.1338 37.7147C40.1338 38.1586 40.3038 38.5844 40.6064 38.8982C40.909 39.2121 41.3193 39.3885 41.7472 39.3885H46.5874C47.0153 39.3885 47.4256 39.2121 47.7282 38.8982C48.0307 38.5844 48.2007 38.1586 48.2007 37.7147V32.6936C48.2007 32.2497 48.0307 31.8239 47.7282 31.51C47.4256 31.1962 47.0153 31.0198 46.5874 31.0198H41.7472C41.3193 31.0198 40.909 31.1962 40.6064 31.51C40.3038 31.8239 40.1338 32.2497 40.1338 32.6936V37.7147ZM60.3097 51.9414C60.3097 52.3853 60.4797 52.8111 60.7823 53.1249C61.0848 53.4388 61.4952 53.6152 61.9231 53.6152H66.7632C67.1911 53.6152 67.6015 53.4388 67.904 53.1249C68.2066 52.8111 68.3766 52.3853 68.3766 51.9414V46.9202C68.3766 46.4763 68.2066 46.0506 67.904 45.7367C67.6015 45.4229 67.1911 45.2465 66.7632 45.2465H61.9231C61.4952 45.2465 61.0848 45.4229 60.7823 45.7367C60.4797 46.0506 60.3097 46.4763 60.3097 46.9202V51.9414ZM60.3097 66.1681C60.3097 66.612 60.4797 67.0378 60.7823 67.3516C61.0848 67.6655 61.4952 67.8419 61.9231 67.8419H66.7632C67.1911 67.8419 67.6015 67.6655 67.904 67.3516C68.2066 67.0378 68.3766 66.612 68.3766 66.1681V61.1469C68.3766 60.703 68.2066 60.2773 67.904 59.9634C67.6015 59.6496 67.1911 59.4732 66.7632 59.4732H61.9231C61.4952 59.4732 61.0848 59.6496 60.7823 59.9634C60.4797 60.2773 60.3097 60.703 60.3097 61.1469V66.1681ZM40.1424 51.9414C40.1424 52.3853 40.3124 52.8111 40.615 53.1249C40.9176 53.4388 41.3279 53.6152 41.7558 53.6152H46.596C47.0239 53.6152 47.4342 53.4388 47.7368 53.1249C48.0394 52.8111 48.2093 52.3853 48.2093 51.9414V46.9202C48.2093 46.4763 48.0394 46.0506 47.7368 45.7367C47.4342 45.4229 47.0239 45.2465 46.596 45.2465H41.7558C41.3279 45.2465 40.9176 45.4229 40.615 45.7367C40.3124 46.0506 40.1424 46.4763 40.1424 46.9202V51.9414Z" stroke="#343434" stroke-width="2.5" stroke-linecap="round" stroke-linejoin="round"/>
</g>
<defs>
<clipPath id="clip0">
<rect width="74.7533" height="79" fill="white" transform="translate(0.336914)"/>
</clipPath>
</defs>
</svg>
