<svg width="74" height="101" viewBox="0 0 74 101" fill="none" xmlns="http://www.w3.org/2000/svg">
<path d="M49.5284 55.8843H12.3186C11.9466 55.8843 11.5899 55.7314 11.3268 55.4594C11.0638 55.1873 10.916 54.8183 10.916 54.4335V6.8039C10.9181 5.00006 11.6119 3.27072 12.845 1.99521C14.0782 0.719702 15.7501 0.00219379 17.494 0H44.353C46.0969 0.00219379 47.7688 0.719702 49.002 1.99521C50.2351 3.27072 50.9288 5.00006 50.931 6.8039V54.4335C50.931 54.8183 50.7832 55.1873 50.5202 55.4594C50.2571 55.7314 49.9004 55.8843 49.5284 55.8843ZM13.7211 52.9828H48.1258V6.8039C48.1243 5.76941 47.7263 4.77778 47.019 4.04629C46.3118 3.31479 45.3531 2.90311 44.353 2.90147H17.494C16.4939 2.90311 15.5351 3.31479 14.8279 4.04629C14.1207 4.77778 13.7227 5.76941 13.7211 6.8039V52.9828Z" fill="#343434"/>
<path d="M51.7204 73.8962H9.1428C8.06466 73.9058 7.00491 73.6073 6.08038 73.0335C5.15585 72.4597 4.40247 71.633 3.90327 70.6445C3.39605 69.6628 3.1566 68.5569 3.2106 67.4453C3.2646 66.3336 3.61003 65.258 4.20983 64.3339L11.1605 53.6254C11.2889 53.4275 11.4625 53.2653 11.6659 53.1532C11.8692 53.0412 12.0962 52.9827 12.3266 52.9829H49.5365C49.7627 52.9827 49.9857 53.0392 50.1863 53.1475C50.3869 53.2557 50.5593 53.4126 50.6886 53.6047L57.3126 63.4697L57.3266 63.4883C57.9697 64.4737 58.3374 65.6236 58.389 66.8114C58.4406 67.9991 58.1742 69.1785 57.6192 70.2197C57.0518 71.3291 56.2028 72.2577 55.1635 72.9054C54.1242 73.5532 52.9338 73.8957 51.7204 73.8962V73.8962ZM13.064 55.8844L6.54006 65.9483C6.22369 66.4364 6.04154 67.0041 6.01307 67.591C5.9846 68.1778 6.11089 68.7617 6.37843 69.28C6.64598 69.7984 7.04473 70.2317 7.532 70.5338C8.01927 70.8358 8.57673 70.9951 9.14481 70.9948H51.7224C52.4243 70.9912 53.112 70.7903 53.712 70.4136C54.312 70.0368 54.8017 69.4984 55.1286 68.856C55.4445 68.2809 55.5988 67.6259 55.574 66.9649C55.5492 66.304 55.3464 65.6633 54.9884 65.1152L48.7891 55.8844H13.064Z" fill="#343434"/>
<path d="M1.56592 48.7342C1.26584 48.7345 0.973554 48.6352 0.732071 48.451C0.490589 48.2667 0.312603 48.0072 0.224261 47.7106C0.135919 47.414 0.141896 47.0958 0.241284 46.803C0.340672 46.5101 0.528236 46.2579 0.776439 46.0835L11.5301 38.5397C11.838 38.3237 12.2163 38.243 12.5818 38.3155C12.9472 38.388 13.2698 38.6077 13.4786 38.9262C13.6874 39.2448 13.7654 39.6361 13.6954 40.014C13.6253 40.392 13.4129 40.7257 13.1049 40.9417L2.34532 48.4772C2.11635 48.6419 1.84478 48.7315 1.56592 48.7342V48.7342Z" fill="#343434"/>
<path d="M4.64279 68.2984C4.27081 68.2984 3.91407 68.1456 3.65104 67.8736C3.38801 67.6015 3.24023 67.2325 3.24023 66.8477V47.4183C3.24023 47.0335 3.38801 46.6645 3.65104 46.3924C3.91407 46.1204 4.27081 45.9675 4.64279 45.9675C5.01477 45.9675 5.37151 46.1204 5.63454 46.3924C5.89757 46.6645 6.04535 47.0335 6.04535 47.4183V66.8477C6.04535 67.2325 5.89757 67.6015 5.63454 67.8736C5.37151 68.1456 5.01477 68.2984 4.64279 68.2984V68.2984Z" fill="#343434"/>
<path d="M60.2802 51.6359C59.9429 51.6368 59.6168 51.5108 59.3626 51.2815L48.6089 41.6424C48.4697 41.5176 48.3557 41.3657 48.2733 41.1953C48.1908 41.0249 48.1417 40.8394 48.1286 40.6494C48.1154 40.4593 48.1386 40.2684 48.1968 40.0877C48.255 39.9069 48.3471 39.7398 48.4677 39.5958C48.5883 39.4518 48.7352 39.3339 48.8999 39.2486C49.0647 39.1634 49.244 39.1125 49.4278 39.0989C49.6115 39.0853 49.796 39.1093 49.9707 39.1695C50.1455 39.2297 50.3071 39.3249 50.4463 39.4497L61.1979 49.0888C61.4139 49.2824 61.5676 49.5397 61.6383 49.8262C61.709 50.1127 61.6935 50.4147 61.5936 50.6917C61.4938 50.9688 61.3145 51.2077 61.0798 51.3764C60.8451 51.5451 60.5661 51.6357 60.2802 51.6359V51.6359Z" fill="#343434"/>
<path d="M57.2014 68.2984C56.8294 68.2984 56.4727 68.1456 56.2096 67.8736C55.9466 67.6015 55.7988 67.2325 55.7988 66.8477V47.4183C55.7988 47.0335 55.9466 46.6645 56.2096 46.3924C56.4727 46.1204 56.8294 45.9675 57.2014 45.9675C57.5734 45.9675 57.9301 46.1204 58.1931 46.3924C58.4562 46.6645 58.6039 47.0335 58.6039 47.4183V66.8477C58.6039 67.2325 58.4562 67.6015 58.1931 67.8736C57.9301 68.1456 57.5734 68.2984 57.2014 68.2984V68.2984Z" fill="#343434"/>
<path d="M43.9194 16.0016H17.926C17.554 16.0016 17.1973 15.8487 16.9342 15.5766C16.6712 15.3046 16.5234 14.9356 16.5234 14.5508C16.5234 14.1661 16.6712 13.7971 16.9342 13.525C17.1973 13.253 17.554 13.1001 17.926 13.1001H43.9194C44.2914 13.1001 44.6481 13.253 44.9111 13.525C45.1742 13.7971 45.3219 14.1661 45.3219 14.5508C45.3219 14.9356 45.1742 15.3046 44.9111 15.5766C44.6481 15.8487 44.2914 16.0016 43.9194 16.0016V16.0016Z" fill="#343434"/>
<path d="M43.9194 30.6312H17.926C17.554 30.6312 17.1973 30.4784 16.9342 30.2063C16.6712 29.9343 16.5234 29.5652 16.5234 29.1805C16.5234 28.7957 16.6712 28.4267 16.9342 28.1547C17.1973 27.8826 17.554 27.7297 17.926 27.7297H43.9194C44.2914 27.7297 44.6481 27.8826 44.9111 28.1547C45.1742 28.4267 45.3219 28.7957 45.3219 29.1805C45.3219 29.5652 45.1742 29.9343 44.9111 30.2063C44.6481 30.4784 44.2914 30.6312 43.9194 30.6312V30.6312Z" fill="#343434"/>
<path d="M43.9194 45.2608H17.926C17.554 45.2608 17.1973 45.108 16.9342 44.8359C16.6712 44.5639 16.5234 44.1949 16.5234 43.8101C16.5234 43.4253 16.6712 43.0564 16.9342 42.7843C17.1973 42.5122 17.554 42.3594 17.926 42.3594H43.9194C44.2914 42.3594 44.6481 42.5122 44.9111 42.7843C45.1742 43.0564 45.3219 43.4253 45.3219 43.8101C45.3219 44.1949 45.1742 44.5639 44.9111 44.8359C44.6481 45.108 44.2914 45.2608 43.9194 45.2608V45.2608Z" fill="#343434"/>
<path d="M56.8878 66.8851H5.19357C4.82159 66.8851 4.46485 66.7323 4.20182 66.4602C3.93879 66.1881 3.79102 65.8191 3.79102 65.4344C3.79102 65.0496 3.93879 64.6806 4.20182 64.4086C4.46485 64.1365 4.82159 63.9836 5.19357 63.9836H56.8878C57.2598 63.9836 57.6165 64.1365 57.8796 64.4086C58.1426 64.6806 58.2904 65.0496 58.2904 65.4344C58.2904 65.8191 58.1426 66.1881 57.8796 66.4602C57.6165 66.7323 57.2598 66.8851 56.8878 66.8851V66.8851Z" fill="#343434"/>
<path d="M15.7501 92.532C15.4153 92.5291 15.0925 92.4023 14.8402 92.1747C14.5878 91.9471 14.4225 91.6336 14.3741 91.291C14.3257 90.9483 14.3974 90.5991 14.5763 90.3063C14.7551 90.0135 15.0293 89.7966 15.3493 89.6947L29.6434 85.1747V73.0486C29.6434 72.6639 29.7912 72.2949 30.0542 72.0228C30.3172 71.7508 30.674 71.5979 31.0459 71.5979C31.4179 71.5979 31.7747 71.7508 32.0377 72.0228C32.3007 72.2949 32.4485 72.6639 32.4485 73.0486V86.2461C32.4477 86.5579 32.3499 86.8611 32.1694 87.1109C31.989 87.3606 31.7355 87.5435 31.4467 87.6326L16.1708 92.4636C16.0348 92.5086 15.8929 92.5317 15.7501 92.532V92.532Z" fill="#343434"/>
<path d="M44.7425 92.5318C44.5886 92.5317 44.4356 92.5058 44.2897 92.4551L30.5847 87.62C30.4093 87.5594 30.2473 87.4635 30.1079 87.3378C29.9685 87.2121 29.8546 87.0592 29.7726 86.8878C29.6905 86.7164 29.642 86.5299 29.63 86.3391C29.6179 86.1483 29.6424 85.9568 29.7021 85.7758C29.7618 85.5948 29.8555 85.4278 29.9778 85.2844C30.1001 85.141 30.2487 85.024 30.4149 84.9402C30.5811 84.8564 30.7617 84.8074 30.9462 84.796C31.1308 84.7847 31.3157 84.8112 31.4903 84.874L45.1953 89.707C45.5105 89.8174 45.7773 90.0401 45.9484 90.3353C46.1194 90.6305 46.1834 90.9789 46.129 91.3184C46.0746 91.6579 45.9053 91.9663 45.6513 92.1886C45.3973 92.4109 45.0752 92.5325 44.7425 92.5318V92.5318Z" fill="#343434"/>
<path d="M10.2217 101C9.29513 101 8.38923 100.717 7.61859 100.184C6.84796 99.6522 6.24722 98.8956 5.89235 98.0103C5.53748 97.1249 5.44439 96.1506 5.62492 95.2105C5.80545 94.2704 6.25149 93.4069 6.90655 92.7291C7.56162 92.0512 8.3963 91.5895 9.30507 91.4023C10.2138 91.2152 11.1559 91.3111 12.012 91.6777C12.8681 92.0444 13.5998 92.6655 14.1146 93.4624C14.6295 94.2592 14.9042 95.1961 14.9042 96.1546C14.9027 97.4388 14.4089 98.6699 13.5311 99.5782C12.6534 100.487 11.4633 100.998 10.2217 101V101ZM10.2217 94.2126C9.84984 94.2122 9.48618 94.3259 9.17681 94.5394C8.86743 94.7528 8.62624 95.0564 8.48374 95.4117C8.34125 95.767 8.30387 96.1581 8.37632 96.5353C8.44878 96.9126 8.62777 97.2592 8.89074 97.5312C9.1537 97.8032 9.48877 97.9884 9.85353 98.0633C10.2183 98.1383 10.5964 98.0996 10.9399 97.9522C11.2834 97.8048 11.5769 97.5553 11.7832 97.2353C11.9896 96.9153 12.0995 96.5392 12.0991 96.1546C12.0986 95.6397 11.9006 95.1461 11.5487 94.782C11.1967 94.4179 10.7195 94.2132 10.2217 94.2126V94.2126Z" fill="#343434"/>
<path d="M50.585 101C49.6584 101 48.7525 100.717 47.9818 100.184C47.2112 99.6522 46.6105 98.8956 46.2556 98.0103C45.9007 97.1249 45.8077 96.1506 45.9882 95.2105C46.1687 94.2704 46.6147 93.4069 47.2698 92.7291C47.9249 92.0512 48.7595 91.5895 49.6683 91.4023C50.5771 91.2152 51.5191 91.3111 52.3752 91.6777C53.2313 92.0444 53.963 92.6655 54.4779 93.4624C54.9927 94.2592 55.2675 95.1961 55.2675 96.1546C55.2659 97.4388 54.7721 98.6699 53.8944 99.5782C53.0166 100.487 51.8266 100.998 50.585 101ZM50.585 94.2126C50.2131 94.2122 49.8494 94.3259 49.54 94.5394C49.2307 94.7528 48.9895 95.0564 48.847 95.4117C48.7045 95.767 48.6671 96.1581 48.7396 96.5353C48.812 96.9126 48.9911 97.2592 49.254 97.5312C49.517 97.8032 49.8521 97.9884 50.2168 98.0633C50.5816 98.1383 50.9596 98.0996 51.3031 97.9522C51.6466 97.8048 51.9401 97.5553 52.1465 97.2353C52.3529 96.9153 52.4628 96.5392 52.4624 96.1546C52.4618 95.6397 52.2639 95.1461 51.9119 94.782C51.5599 94.4179 51.0827 94.2132 50.585 94.2126V94.2126Z" fill="#343434"/>
<path d="M59.5475 13.8877C59.2844 13.8878 59.0266 13.8114 58.8036 13.6671C58.5805 13.5228 58.4011 13.3166 58.286 13.0719C58.1708 12.8272 58.1246 12.554 58.1524 12.2834C58.1803 12.0128 58.2811 11.7558 58.4435 11.5417L63.6329 4.69008C63.7434 4.53122 63.8838 4.39715 64.0457 4.29587C64.2075 4.1946 64.3875 4.12822 64.5748 4.10077C64.7621 4.07332 64.9529 4.08535 65.1356 4.13614C65.3183 4.18692 65.4892 4.27539 65.6379 4.39626C65.7867 4.51713 65.9103 4.66788 66.0013 4.83944C66.0923 5.011 66.1487 5.19982 66.1673 5.39455C66.1859 5.58928 66.1662 5.78592 66.1095 5.97257C66.0527 6.15923 65.96 6.33209 65.8369 6.48073L60.6475 13.3323C60.5166 13.5048 60.3497 13.6445 60.1592 13.7407C59.9686 13.8369 59.7595 13.8872 59.5475 13.8877V13.8877Z" fill="#343434"/>
<path d="M71.8722 37.2837C71.6718 37.2836 71.4736 37.2391 71.2912 37.1532L63.6332 33.5429C63.2947 33.3832 63.0314 33.091 62.9012 32.7305C62.771 32.37 62.7846 31.9708 62.939 31.6207C63.0933 31.2705 63.3759 30.9981 63.7244 30.8635C64.0729 30.7288 64.4588 30.7429 64.7973 30.9025L72.4553 34.5128C72.7469 34.6502 72.9842 34.8868 73.1278 35.1831C73.2713 35.4794 73.3124 35.8177 73.2443 36.1415C73.1761 36.4654 73.0028 36.7553 72.7532 36.9631C72.5036 37.1709 72.1927 37.2841 71.8722 37.2837Z" fill="#343434"/>
<path d="M65.0922 22.9714C64.748 22.9729 64.4153 22.8435 64.1574 22.6077C63.8995 22.372 63.7343 22.0463 63.6935 21.6928C63.6527 21.3393 63.739 20.9825 63.9359 20.6906C64.1329 20.3986 64.4268 20.1917 64.7617 20.1093L72.2092 18.2296C72.5708 18.1383 72.9527 18.1994 73.2708 18.3994C73.5889 18.5994 73.8171 18.9218 73.9053 19.2959C73.9935 19.6699 73.9345 20.0649 73.7412 20.3939C73.5478 20.7229 73.2361 20.959 72.8744 21.0502L65.4269 22.93C65.3172 22.9569 65.2049 22.9708 65.0922 22.9714V22.9714Z" fill="#343434"/>
</svg>
