<svg width="20" height="24" viewBox="0 0 20 24" fill="none" xmlns="http://www.w3.org/2000/svg">
<path d="M13.3825 13.2766H3.2962C3.19537 13.2766 3.09867 13.2403 3.02737 13.1757C2.95607 13.1111 2.91602 13.0234 2.91602 12.932V1.61643C2.91659 1.18788 3.10464 0.777038 3.4389 0.47401C3.77316 0.170982 4.22636 0.000521187 4.69908 0H11.9796C12.4523 0.000521187 12.9055 0.170982 13.2398 0.47401C13.574 0.777038 13.7621 1.18788 13.7626 1.61643V12.932C13.7626 13.0234 13.7226 13.1111 13.6513 13.1757C13.58 13.2403 13.4833 13.2766 13.3825 13.2766ZM3.67638 12.5873H13.0023V1.61643C13.0019 1.37066 12.894 1.13508 12.7023 0.961292C12.5106 0.787507 12.2507 0.689703 11.9796 0.689312H4.69908C4.42798 0.689703 4.1681 0.787507 3.9764 0.961292C3.7847 1.13508 3.67681 1.37066 3.67638 1.61643V12.5873Z" fill="#343434"/>
<path d="M13.9755 17.5558H2.43425C2.14201 17.558 1.85475 17.4871 1.60414 17.3508C1.35353 17.2145 1.14932 17.0181 1.014 16.7832C0.876513 16.55 0.811606 16.2873 0.826245 16.0232C0.840883 15.7591 0.934516 15.5036 1.0971 15.284L2.98118 12.7399C3.01598 12.6929 3.06303 12.6544 3.11816 12.6278C3.1733 12.6012 3.23481 12.5873 3.29728 12.5873H13.3835C13.4449 12.5873 13.5053 12.6007 13.5597 12.6264C13.6141 12.6521 13.6608 12.6894 13.6958 12.735L15.4914 15.0787L15.4952 15.0831C15.6695 15.3172 15.7692 15.5904 15.7831 15.8726C15.7971 16.1548 15.7249 16.435 15.5745 16.6823C15.4207 16.9459 15.1906 17.1665 14.9088 17.3204C14.6271 17.4743 14.3044 17.5556 13.9755 17.5558ZM3.49714 13.2766L1.72874 15.6676C1.64299 15.7835 1.59361 15.9184 1.5859 16.0578C1.57818 16.1972 1.61241 16.3359 1.68493 16.4591C1.75745 16.5822 1.86554 16.6852 1.99762 16.7569C2.12971 16.8287 2.28081 16.8665 2.4348 16.8665H13.9761C14.1663 16.8656 14.3528 16.8179 14.5154 16.7284C14.678 16.6389 14.8108 16.511 14.8994 16.3583C14.985 16.2217 15.0268 16.0661 15.0201 15.9091C15.0134 15.752 14.9584 15.5998 14.8614 15.4696L13.181 13.2766H3.49714Z" fill="#343434"/>
<path d="M0.380522 11.5779C0.299183 11.578 0.219954 11.5544 0.154496 11.5106C0.0890391 11.4669 0.0407933 11.4052 0.016847 11.3347C-0.00709934 11.2643 -0.00547918 11.1887 0.0214614 11.1191C0.0484019 11.0495 0.0992438 10.9896 0.166523 10.9482L3.08145 9.15596C3.16492 9.10464 3.26747 9.08548 3.36652 9.1027C3.46558 9.11992 3.55302 9.17211 3.60963 9.24779C3.66624 9.32346 3.68738 9.41643 3.66838 9.50622C3.64938 9.59602 3.59181 9.67529 3.50834 9.72661L0.591789 11.5169C0.529726 11.556 0.456111 11.5773 0.380522 11.5779Z" fill="#343434"/>
<path d="M1.21613 16.2259C1.11529 16.2259 1.01859 16.1896 0.947294 16.1249C0.875995 16.0603 0.835938 15.9726 0.835938 15.8812V11.2653C0.835938 11.1739 0.875995 11.0862 0.947294 11.0216C1.01859 10.9569 1.11529 10.9206 1.21613 10.9206C1.31696 10.9206 1.41366 10.9569 1.48496 11.0216C1.55626 11.0862 1.59631 11.1739 1.59631 11.2653V15.8812C1.59631 15.9726 1.55626 16.0603 1.48496 16.1249C1.41366 16.1896 1.31696 16.2259 1.21613 16.2259Z" fill="#343434"/>
<path d="M16.2948 12.2673C16.2034 12.2675 16.115 12.2376 16.0461 12.1831L13.1312 9.89311C13.0934 9.86346 13.0625 9.82737 13.0402 9.78689C13.0178 9.74641 13.0045 9.70234 13.001 9.65719C12.9974 9.61204 13.0037 9.56669 13.0195 9.52375C13.0352 9.4808 13.0602 9.4411 13.0929 9.40689C13.1256 9.37269 13.1654 9.34466 13.2101 9.32441C13.2547 9.30415 13.3033 9.29206 13.3531 9.28884C13.4029 9.28562 13.4529 9.29132 13.5003 9.30562C13.5477 9.31992 13.5915 9.34253 13.6292 9.37218L16.5436 11.6622C16.6021 11.7082 16.6438 11.7693 16.663 11.8374C16.6821 11.9054 16.6779 11.9772 16.6509 12.043C16.6238 12.1088 16.5752 12.1656 16.5116 12.2057C16.448 12.2457 16.3723 12.2673 16.2948 12.2673Z" fill="#343434"/>
<path d="M15.4622 16.2259C15.3614 16.2259 15.2647 16.1896 15.1934 16.1249C15.1221 16.0603 15.082 15.9726 15.082 15.8812V11.2653C15.082 11.1739 15.1221 11.0862 15.1934 11.0216C15.2647 10.9569 15.3614 10.9206 15.4622 10.9206C15.5631 10.9206 15.6598 10.9569 15.7311 11.0216C15.8023 11.0862 15.8424 11.1739 15.8424 11.2653V15.8812C15.8424 15.9726 15.8023 16.0603 15.7311 16.1249C15.6598 16.1896 15.5631 16.2259 15.4622 16.2259Z" fill="#343434"/>
<path d="M11.8616 3.80154H4.81573C4.7149 3.80154 4.6182 3.76523 4.5469 3.70059C4.4756 3.63595 4.43555 3.54829 4.43555 3.45688C4.43555 3.36547 4.4756 3.2778 4.5469 3.21317C4.6182 3.14853 4.7149 3.11221 4.81573 3.11221H11.8616C11.9624 3.11221 12.0591 3.14853 12.1304 3.21317C12.2017 3.2778 12.2418 3.36547 12.2418 3.45688C12.2418 3.54829 12.2017 3.63595 12.1304 3.70059C12.0591 3.76523 11.9624 3.80154 11.8616 3.80154Z" fill="#343434"/>
<path d="M11.8616 7.27719H4.81573C4.7149 7.27719 4.6182 7.24089 4.5469 7.17625C4.4756 7.11161 4.43555 7.02393 4.43555 6.93251C4.43555 6.8411 4.4756 6.75343 4.5469 6.68879C4.6182 6.62415 4.7149 6.58783 4.81573 6.58783H11.8616C11.9624 6.58783 12.0591 6.62415 12.1304 6.68879C12.2017 6.75343 12.2418 6.8411 12.2418 6.93251C12.2418 7.02393 12.2017 7.11161 12.1304 7.17625C12.0591 7.24089 11.9624 7.27719 11.8616 7.27719Z" fill="#343434"/>
<path d="M11.8616 10.7528H4.81573C4.7149 10.7528 4.6182 10.7165 4.5469 10.6518C4.4756 10.5872 4.43555 10.4995 4.43555 10.4081C4.43555 10.3167 4.4756 10.229 4.5469 10.1644C4.6182 10.0998 4.7149 10.0634 4.81573 10.0634H11.8616C11.9624 10.0634 12.0591 10.0998 12.1304 10.1644C12.2017 10.229 12.2418 10.3167 12.2418 10.4081C12.2418 10.4995 12.2017 10.5872 12.1304 10.6518C12.0591 10.7165 11.9624 10.7528 11.8616 10.7528Z" fill="#343434"/>
<path d="M15.3751 15.8901H1.3626C1.26177 15.8901 1.16508 15.8538 1.09378 15.7892C1.02248 15.7245 0.982422 15.6369 0.982422 15.5454C0.982422 15.454 1.02248 15.3664 1.09378 15.3017C1.16508 15.2371 1.26177 15.2008 1.3626 15.2008H15.3751C15.4759 15.2008 15.5726 15.2371 15.6439 15.3017C15.7152 15.3664 15.7552 15.454 15.7552 15.5454C15.7552 15.6369 15.7152 15.7245 15.6439 15.7892C15.5726 15.8538 15.4759 15.8901 15.3751 15.8901Z" fill="#343434"/>
<path d="M4.22462 21.9831C4.13387 21.9824 4.04639 21.9523 3.97799 21.8982C3.90959 21.8442 3.86477 21.7697 3.85165 21.6883C3.83853 21.6069 3.85797 21.5239 3.90645 21.4544C3.95493 21.3848 4.02926 21.3333 4.116 21.3091L7.99061 20.2352V17.3544C7.99061 17.263 8.03067 17.1753 8.10197 17.1107C8.17326 17.046 8.26996 17.0097 8.37079 17.0097C8.47162 17.0097 8.56832 17.046 8.63962 17.1107C8.71092 17.1753 8.75098 17.263 8.75098 17.3544V20.4898C8.75076 20.5638 8.72424 20.6359 8.67533 20.6952C8.62642 20.7545 8.55772 20.798 8.47942 20.8192L4.33868 21.9669C4.30181 21.9776 4.26333 21.983 4.22462 21.9831Z" fill="#343434"/>
<path d="M12.0836 21.9831C12.0419 21.9831 12.0004 21.9769 11.9609 21.9649L8.24593 20.8162C8.1984 20.8018 8.15448 20.779 8.1167 20.7491C8.07892 20.7193 8.04803 20.6829 8.02579 20.6422C8.00356 20.6015 7.99042 20.5572 7.98714 20.5119C7.98386 20.4665 7.99051 20.421 8.00669 20.378C8.02287 20.335 8.04827 20.2954 8.08143 20.2613C8.11459 20.2272 8.15486 20.1994 8.19991 20.1795C8.24496 20.1596 8.2939 20.148 8.34393 20.1453C8.39397 20.1426 8.44409 20.1489 8.49142 20.1638L12.2064 21.312C12.2918 21.3382 12.3641 21.3911 12.4105 21.4613C12.4568 21.5314 12.4742 21.6142 12.4594 21.6948C12.4447 21.7755 12.3988 21.8487 12.33 21.9015C12.2611 21.9544 12.1738 21.9833 12.0836 21.9831Z" fill="#343434"/>
<path d="M2.72739 23.9949C2.47623 23.995 2.23067 23.9275 2.02178 23.8011C1.81289 23.6747 1.65005 23.4949 1.55385 23.2846C1.45766 23.0743 1.43243 22.8428 1.48136 22.6194C1.5303 22.3961 1.6512 22.191 1.82877 22.0299C2.00633 21.8689 2.23259 21.7592 2.47892 21.7147C2.72525 21.6703 2.9806 21.693 3.21266 21.7801C3.44472 21.8673 3.64307 22.0148 3.78262 22.2041C3.92217 22.3934 3.99666 22.616 3.99666 22.8437C3.99623 23.1488 3.86238 23.4413 3.62446 23.6571C3.38653 23.8729 3.06394 23.9944 2.72739 23.9949ZM2.72739 22.3824C2.62659 22.3823 2.52801 22.4093 2.44415 22.46C2.36029 22.5107 2.29492 22.5828 2.25629 22.6673C2.21766 22.7517 2.20753 22.8446 2.22717 22.9342C2.24681 23.0238 2.29533 23.1062 2.36661 23.1708C2.43789 23.2354 2.52872 23.2794 2.62759 23.2972C2.72646 23.315 2.82895 23.3058 2.92206 23.2708C3.01517 23.2358 3.09472 23.1765 3.15066 23.1005C3.2066 23.0245 3.2364 22.9351 3.23629 22.8437C3.23615 22.7214 3.18249 22.6041 3.08708 22.5176C2.99167 22.4311 2.86232 22.3825 2.72739 22.3824Z" fill="#343434"/>
<path d="M13.6668 23.9949C13.4157 23.995 13.1701 23.9275 12.9612 23.8011C12.7523 23.6747 12.5895 23.4949 12.4933 23.2846C12.3971 23.0743 12.3719 22.8428 12.4208 22.6194C12.4698 22.3961 12.5906 22.191 12.7682 22.0299C12.9458 21.8689 13.172 21.7592 13.4184 21.7147C13.6647 21.6703 13.92 21.693 14.1521 21.7801C14.3842 21.8673 14.5825 22.0148 14.7221 22.2041C14.8616 22.3934 14.9361 22.616 14.9361 22.8437C14.9357 23.1488 14.8018 23.4413 14.5639 23.6571C14.326 23.8729 14.0034 23.9944 13.6668 23.9949ZM13.6668 22.3824C13.566 22.3823 13.4675 22.4093 13.3836 22.46C13.2997 22.5107 13.2344 22.5828 13.1957 22.6673C13.1571 22.7517 13.147 22.8446 13.1666 22.9342C13.1863 23.0238 13.2348 23.1062 13.3061 23.1708C13.3773 23.2354 13.4682 23.2794 13.567 23.2972C13.6659 23.315 13.7684 23.3058 13.8615 23.2708C13.9546 23.2358 14.0342 23.1765 14.0901 23.1005C14.146 23.0245 14.1758 22.9351 14.1757 22.8437C14.1756 22.7214 14.1219 22.6041 14.0265 22.5176C13.9311 22.4311 13.8018 22.3825 13.6668 22.3824Z" fill="#343434"/>
<path d="M16.0971 3.29932C16.0258 3.29934 15.9559 3.28117 15.8954 3.2469C15.835 3.21263 15.7863 3.16363 15.7551 3.1055C15.7239 3.04738 15.7114 2.98246 15.7189 2.91818C15.7265 2.8539 15.7538 2.79284 15.7978 2.74197L17.2045 1.11426C17.2345 1.07652 17.2725 1.04467 17.3164 1.02061C17.3603 0.996553 17.4091 0.980784 17.4598 0.974263C17.5106 0.967742 17.5623 0.970601 17.6118 0.982665C17.6614 0.99473 17.7077 1.01575 17.748 1.04446C17.7883 1.07318 17.8218 1.10899 17.8465 1.14975C17.8712 1.1905 17.8865 1.23536 17.8915 1.28162C17.8965 1.32788 17.8912 1.3746 17.8758 1.41894C17.8604 1.46328 17.8353 1.50435 17.8019 1.53966L16.3953 3.16736C16.3598 3.20835 16.3145 3.24153 16.2629 3.26439C16.2112 3.28724 16.1546 3.29918 16.0971 3.29932Z" fill="#343434"/>
<path d="M19.4382 8.8576C19.3839 8.85759 19.3301 8.84702 19.2807 8.82659L17.2049 7.96887C17.1131 7.93094 17.0418 7.86151 17.0065 7.77587C16.9712 7.69022 16.9749 7.59539 17.0167 7.5122C17.0585 7.42902 17.1351 7.36431 17.2296 7.33231C17.3241 7.30032 17.4287 7.30366 17.5204 7.34159L19.5962 8.1993C19.6753 8.23195 19.7396 8.28815 19.7785 8.35855C19.8174 8.42895 19.8286 8.50931 19.8101 8.58625C19.7916 8.66319 19.7447 8.73207 19.677 8.78144C19.6093 8.83081 19.5251 8.85769 19.4382 8.8576Z" fill="#343434"/>
<path d="M17.6006 5.45742C17.5073 5.45779 17.4171 5.42704 17.3472 5.37103C17.2773 5.31501 17.2325 5.23764 17.2214 5.15365C17.2104 5.06965 17.2338 4.9849 17.2872 4.91553C17.3405 4.84616 17.4202 4.797 17.511 4.77743L19.5297 4.33084C19.6278 4.30916 19.7313 4.32367 19.8175 4.37118C19.9037 4.41869 19.9656 4.49531 19.9895 4.58418C20.0134 4.67304 19.9974 4.76688 19.945 4.84505C19.8926 4.92322 19.8081 4.9793 19.71 5.00098L17.6913 5.44758C17.6616 5.45398 17.6311 5.45728 17.6006 5.45742Z" fill="#343434"/>
</svg>
