<svg width="95" height="76" viewBox="0 0 95 76" fill="none" xmlns="http://www.w3.org/2000/svg">
<path d="M93.9991 65.2202L93.9282 65.1497L93.9992 65.2202C94.2975 64.9202 94.4015 64.6134 94.4015 64.3054V58.489C94.4015 58.078 94.1966 57.7727 93.9992 57.5741L93.9282 57.6447L93.9991 57.5741C93.7007 57.2741 93.3954 57.1694 93.0885 57.1694H2.21292C2.01773 57.1694 1.86222 57.1939 1.71651 57.2605C1.57209 57.3266 1.44544 57.4302 1.3023 57.5741C1.00392 57.8742 0.9 58.1809 0.9 58.489V64.3054C0.9 64.6959 0.997149 65.0072 1.209 65.2202C1.5074 65.5202 1.81271 65.6249 2.11962 65.6249H92.9952C93.1902 65.6249 93.3665 65.6004 93.5328 65.5361C93.6995 65.4716 93.851 65.3692 93.9991 65.2202ZM91.7756 59.8085V63.0796H3.43254V59.8085H91.7756Z" fill="#343434" stroke="black" stroke-width="0.2"/>
<path d="M42.4265 49.3015H84.1323C86.4226 49.3015 88.3389 47.4777 88.2442 45.1654V16.6485C88.2442 14.3422 86.4272 12.5145 84.1323 12.5145H42.4265C40.1315 12.5145 38.3146 14.3422 38.3146 16.6485V45.1675C38.3146 47.4737 40.1315 49.3015 42.4265 49.3015ZM40.7538 16.6485C40.7538 15.6746 41.5458 14.966 42.4265 14.966H84.1323C85.0995 14.966 85.805 15.7616 85.805 16.6485V45.1675C85.805 46.1413 85.013 46.85 84.1323 46.85H42.4265C41.4593 46.85 40.7538 46.0544 40.7538 45.1675V16.6485Z" fill="#343434" stroke="black" stroke-width="0.2"/>
<path d="M56.1416 55.4932H70.5101C70.8106 55.4932 71.1241 55.392 71.3342 55.0815C71.6274 54.7837 71.7297 54.4794 71.7297 54.1737V47.982C71.7297 47.5711 71.5249 47.2658 71.3274 47.0672C71.029 46.7672 70.7237 46.6625 70.4168 46.6625H56.1416C55.7323 46.6625 55.4285 46.8687 55.231 47.0672C54.9326 47.3672 54.8287 47.6739 54.8287 47.982V54.1737C54.8287 54.5846 55.0335 54.8899 55.231 55.0885C55.5294 55.3885 55.8347 55.4932 56.1416 55.4932ZM69.1971 49.3954V53.0417H57.4546V49.3954H69.1971Z" fill="#343434" stroke="black" stroke-width="0.2"/>
<path d="M53.2382 55.5865L53.2381 55.587H53.2482H73.1214C74.0468 55.587 74.815 56.0621 75.2786 56.7942H51.0826C51.5535 55.9758 52.4007 55.5023 53.2382 55.5865ZM49.5161 59.2457H76.9468C77.2975 59.2457 77.6064 59.1193 77.8148 58.8836C78.0224 58.6487 78.1209 58.3159 78.0731 57.92C78.0699 55.1476 75.8809 52.9479 73.1214 52.9479H53.1549C50.3934 52.9479 48.2032 55.1508 48.2032 57.9261C48.2032 58.337 48.408 58.6424 48.6055 58.8409C48.9039 59.141 49.2092 59.2457 49.5161 59.2457Z" fill="#343434" stroke="black" stroke-width="0.2"/>
<path d="M8.27786 59.8086H29.2707C29.6582 59.8086 29.9757 59.7107 30.1882 59.3969C30.4813 59.0991 30.5836 58.7947 30.5836 58.489V58.2076C30.5836 54.2119 27.3662 51.0716 23.486 51.0716H14.0625C10.0873 51.0716 6.96494 54.3074 6.96494 58.2076V58.489C6.96494 58.9 7.16974 59.2053 7.36724 59.4039C7.66564 59.7039 7.97096 59.8086 8.27786 59.8086ZM27.9334 57.2633H9.61126C10.025 55.2163 11.9097 53.7082 14.0647 53.6169H23.486C25.6347 53.6169 27.4355 55.119 27.9334 57.2633Z" fill="#343434" stroke="black" stroke-width="0.2"/>
<path d="M15.9255 51.6681L15.9251 51.6683L15.9288 51.6776C16.1249 52.1705 16.5272 52.5849 17.1413 52.5849C17.1811 52.5849 17.2168 52.5749 17.2462 52.5645C17.2649 52.5578 17.2865 52.5489 17.3059 52.5408C17.3146 52.5372 17.3228 52.5338 17.3302 52.5308C17.3831 52.5095 17.4394 52.4911 17.5145 52.4911H17.5308L17.5463 52.4859C18.1511 52.2832 18.5599 51.6701 18.3571 50.9566L18.357 50.9561L9.60234 20.7089L22.0652 7.24258C22.3728 6.93208 22.47 6.42603 22.3699 6.02348C22.2648 5.60091 21.8534 5.29964 21.4575 5.20013C21.2468 5.14715 21.0162 5.1748 20.8049 5.24977C20.5932 5.32491 20.3936 5.45003 20.2426 5.60184L20.2426 5.6018L20.2402 5.60436L7.36578 19.4874C7.05807 19.7979 6.9609 20.304 7.06099 20.7065L7.06093 20.7065L7.0619 20.7099L15.9255 51.6681Z" fill="#343434" stroke="black" stroke-width="0.2"/>
<path d="M38.3501 11.209L38.3502 11.209L38.3522 11.2084C38.9568 11.0057 39.3657 10.2993 39.1632 9.67928C38.4102 6.46675 36.4355 3.72316 33.7041 2.20785C31.3493 0.882032 28.5217 0.502168 25.8808 1.35561C20.2265 3.15608 16.8472 9.77887 18.4429 16.1077C18.5478 16.6276 19.0592 17.0299 19.6601 17.0299H19.6641C19.7538 17.03 19.875 17.03 19.992 16.9247L38.3501 11.209ZM26.5949 3.79758L26.5949 3.7977L26.5997 3.7959C27.332 3.51981 28.0658 3.42708 28.8037 3.42708C30.0903 3.42708 31.3802 3.79665 32.4881 4.35318C34.2118 5.35751 35.6699 7.08204 36.419 9.17303L20.5832 14.172C19.9952 9.5631 22.577 5.08301 26.5949 3.79758Z" fill="#343434" stroke="black" stroke-width="0.2"/>
<path d="M6.78466 75.0999H13.689C13.884 75.0999 14.0602 75.0754 14.2265 75.0111C14.3933 74.9466 14.5447 74.8442 14.6929 74.6952C14.9913 74.3952 15.0952 74.0884 15.0952 73.7803V64.3053C15.0952 63.8943 14.8904 63.589 14.6929 63.3904C14.3945 63.0904 14.0892 62.9857 13.7823 62.9857H6.87796C6.68277 62.9857 6.52726 63.0102 6.38155 63.0768C6.23712 63.1428 6.11048 63.2465 5.96734 63.3904C5.66896 63.6904 5.56504 63.9972 5.56504 64.3053V73.8742C5.56504 74.1753 5.66454 74.4845 5.87404 74.6952C6.17244 74.9952 6.47775 75.0999 6.78466 75.0999ZM12.4693 65.6248V72.5546H8.00427V65.6248H12.4693Z" fill="#343434" stroke="black" stroke-width="0.2"/>
<path d="M82.1729 75.0999H89.0772C89.4647 75.0999 89.7823 75.002 89.9947 74.6882C90.2878 74.3904 90.3901 74.0861 90.3901 73.7803V64.3053C90.3901 63.8943 90.1853 63.589 89.9878 63.3904C89.6894 63.0904 89.3841 62.9857 89.0772 62.9857H82.1729C81.9777 62.9857 81.8222 63.0102 81.6765 63.0768C81.532 63.1428 81.4054 63.2465 81.2623 63.3904C80.9639 63.6904 80.86 63.9972 80.86 64.3053V73.7803C80.86 74.1913 81.0648 74.4966 81.2623 74.6952C81.5607 74.9952 81.866 75.0999 82.1729 75.0999ZM87.8576 65.6248V72.5546H83.3925V65.6248H87.8576Z" fill="#343434" stroke="black" stroke-width="0.2"/>
</svg>
