<svg width="94" height="74" viewBox="0 0 94 74" fill="none" xmlns="http://www.w3.org/2000/svg">
<g clip-path="url(#clip0)">
<path d="M51.0242 37.93C51.0795 38.1086 51.188 38.2647 51.3345 38.3761C51.4809 38.4874 51.6577 38.5483 51.8397 38.55H52.1795L59.4704 35.93C59.5852 35.8939 59.6908 35.8322 59.7797 35.7492C59.8687 35.6662 59.9387 35.564 59.9849 35.45C60.0843 35.2208 60.1082 34.9644 60.0529 34.72C60.0227 34.5985 59.9659 34.4857 59.8868 34.3903C59.8077 34.295 59.7084 34.2196 59.5966 34.17C59.3843 34.0568 59.1388 34.0283 58.9073 34.09L51.6164 36.67C51.5017 36.7061 51.3961 36.7678 51.3071 36.8508C51.2182 36.9337 51.1481 37.0359 51.1019 37.15C50.9881 37.3926 50.9606 37.6686 51.0242 37.93V37.93Z" fill="black" stroke="black" stroke-width="0.3"/>
<path d="M91.6724 65.58C91.6945 65.8093 91.804 66.0203 91.9769 66.1665C92.1498 66.3127 92.372 66.3823 92.5946 66.36C92.7051 66.3724 92.8169 66.362 92.9235 66.3293C93.03 66.2966 93.1291 66.2424 93.215 66.1697C93.3009 66.0971 93.3719 66.0075 93.4237 65.9062C93.4756 65.805 93.5072 65.6941 93.5169 65.58V39.93C93.5212 39.8222 93.5015 39.7149 93.4594 39.6161C93.4174 39.5174 93.3541 39.4298 93.2742 39.36C93.0829 39.2006 92.8401 39.122 92.5946 39.14C92.4834 39.1276 92.3709 39.1384 92.2637 39.1717C92.1566 39.2049 92.0571 39.2601 91.9711 39.3338C91.885 39.4075 91.8142 39.4982 91.7629 39.6006C91.7116 39.7031 91.6808 39.8151 91.6724 39.93V65.58Z" fill="black" stroke="black" stroke-width="0.27"/>
<path d="M92.3519 40.8001H92.5946C92.7959 40.7862 92.9892 40.7128 93.1511 40.5887C93.3129 40.4645 93.4366 40.2948 93.5071 40.1001V40.1001C93.5632 39.8557 93.5393 39.599 93.4392 39.3701C93.393 39.256 93.3229 39.1538 93.234 39.0708C93.145 38.9879 93.0394 38.9261 92.9246 38.8901L79.2069 34.0401C78.9761 33.9823 78.7331 34.007 78.5176 34.1101C78.4066 34.1609 78.308 34.2367 78.2291 34.3319C78.1501 34.427 78.0928 34.5392 78.0614 34.6601C78.0053 34.9045 78.0292 35.1611 78.1293 35.3901C78.1743 35.5049 78.244 35.6077 78.3331 35.6909C78.4222 35.774 78.5285 35.8353 78.6439 35.8701L92.3519 40.8001Z" fill="black" stroke="black" stroke-width="0.3"/>
<path d="M73.6149 45.29C73.6998 45.3954 73.8047 45.4818 73.9233 45.5437C74.0419 45.6056 74.1715 45.6418 74.3042 45.65C74.3391 45.6603 74.3761 45.6603 74.411 45.65C74.5514 45.6147 74.6856 45.5574 74.809 45.48C74.8728 45.4331 74.9204 45.3666 74.945 45.29C74.9594 45.2343 74.9594 45.1757 74.945 45.12L79.4884 35.48C79.5291 35.3899 79.5616 35.2962 79.5855 35.2C79.5937 35.1336 79.5937 35.0664 79.5855 35V35V30.13C79.6041 29.9521 79.567 29.7727 79.4797 29.618C79.3924 29.4633 79.2594 29.3414 79.1001 29.27C78.9577 29.2016 78.8001 29.1739 78.6438 29.19C78.4666 29.2019 78.2987 29.276 78.1681 29.4L68.8676 36.93L59.5283 29.37C59.398 29.2505 59.2362 29.1735 59.0635 29.1486C58.8907 29.1236 58.7146 29.152 58.5575 29.23C58.4201 29.3112 58.3062 29.4285 58.2274 29.57C58.1334 29.7262 58.083 29.9062 58.0818 30.09V34.96C58.0707 35.0446 58.0761 35.1307 58.0978 35.2131C58.1195 35.2956 58.1569 35.3727 58.208 35.44L62.7709 45.12C62.8312 45.2637 62.9297 45.3869 63.0551 45.4754C63.1805 45.5638 63.3277 45.614 63.4796 45.62C63.634 45.6237 63.7871 45.5894 63.9261 45.52C64.0551 45.4575 64.1706 45.3691 64.2659 45.26V45.26L68.9259 39.62L73.6149 45.29ZM74.3139 45.51H74.246H74.3139ZM60.1496 34.93V32.19L67.7706 38.4L63.8873 42.96L60.1496 34.93ZM78.0516 34.64L74.1683 42.87L70.285 38.31L78.0516 32V34.64Z" fill="black" stroke="black" stroke-width="0.3"/>
<path d="M82.5273 65.2301C82.5273 65.6601 82.9933 65.92 83.4496 65.92C83.9059 65.92 84.4204 65.6701 84.4204 65.3001V49.25C84.4204 48.91 84.0709 48.55 83.4496 48.55C82.8283 48.55 82.5273 48.91 82.5273 49.25V65.2301Z" fill="black" stroke="black" stroke-width="0.25"/>
<path d="M75.4789 31.1H78.8767C79.1342 31.1 79.3812 30.9946 79.5632 30.8071C79.7453 30.6196 79.8476 30.3652 79.8476 30.1C79.8365 29.8467 79.7324 29.6072 79.5563 29.43C79.4757 29.3361 79.3772 29.2601 79.267 29.2068C79.1569 29.1535 79.0372 29.124 78.9156 29.12H75.5177C75.2602 29.12 75.0133 29.2254 74.8312 29.4129C74.6492 29.6004 74.5469 29.8548 74.5469 30.12C74.5554 30.3719 74.6559 30.6112 74.8284 30.79C74.9105 30.8847 75.0106 30.961 75.1225 31.0143C75.2344 31.0676 75.3556 31.0968 75.4789 31.1Z" fill="black" stroke="black" stroke-width="0.3"/>
<path d="M70.314 58.75L74.1973 60.33C74.3039 60.4186 74.4394 60.4615 74.5759 60.45V60.45C74.7094 60.461 74.8417 60.4179 74.9448 60.33L78.8281 58.75C79.0008 58.6887 79.151 58.5744 79.2587 58.4224C79.3663 58.2704 79.4261 58.0881 79.43 57.9V50.1C79.4254 49.9763 79.3964 49.8548 79.3446 49.7431C79.2929 49.6313 79.2195 49.5316 79.1291 49.45C78.957 49.2687 78.7245 49.1615 78.4786 49.15H70.712C70.4546 49.15 70.2076 49.2554 70.0256 49.4429C69.8435 49.6305 69.7412 49.8848 69.7412 50.15V57.93C69.7486 58.1094 69.8068 58.2825 69.9086 58.4282C70.0103 58.5739 70.1513 58.6858 70.314 58.75V58.75ZM74.5662 58.54L71.6537 57.3V51.05H77.5855V57.3L74.5662 58.54Z" fill="black" stroke="black" stroke-width="0.3"/>
<path d="M53.7422 16.4C53.71 18.5037 54.0811 20.5933 54.834 22.5491C55.5869 24.5049 56.7068 26.2886 58.1298 27.798C59.5528 29.3074 61.2508 30.5129 63.1267 31.3455C65.0025 32.178 67.0193 32.6214 69.0617 32.65C71.1041 32.6214 73.121 32.178 74.9968 31.3455C76.8727 30.5129 78.5707 29.3074 79.9936 27.798C81.4166 26.2886 82.5366 24.5049 83.2895 22.5491C84.0424 20.5933 84.4134 18.5037 84.3813 16.4C84.4134 14.2963 84.0424 12.2067 83.2895 10.2509C82.5366 8.2951 81.4166 6.51144 79.9936 5.00205C78.5707 3.49265 76.8727 2.28716 74.9968 1.45458C73.121 0.622006 71.1041 0.178694 69.0617 0.150024C67.0193 0.178694 65.0025 0.622006 63.1267 1.45458C61.2508 2.28716 59.5528 3.49265 58.1298 5.00205C56.7068 6.51144 55.5869 8.2951 54.834 10.2509C54.0811 12.2067 53.71 14.2963 53.7422 16.4V16.4ZM55.4896 16.4C55.4534 12.6489 56.8647 9.03641 59.4134 6.35676C61.9621 3.67712 65.4395 2.14961 69.0812 2.11002C72.7101 2.16798 76.1691 3.70389 78.7016 6.38182C81.2341 9.05976 82.6339 12.6618 82.595 16.4C82.6232 18.2655 82.2938 20.1185 81.6255 21.8526C80.9573 23.5867 79.9634 25.168 78.7007 26.5057C77.4381 27.8435 75.9316 28.9114 74.2676 29.6483C72.6035 30.3852 70.8147 30.7766 69.0035 30.8C65.3641 30.716 61.9037 29.1567 59.3736 26.4607C56.8435 23.7647 55.4478 20.1495 55.4896 16.4V16.4Z" fill="black" stroke="black" stroke-width="0.3"/>
<path d="M54.8973 17.58C58.5863 16.5169 61.8889 14.3568 64.392 11.37C66.3521 13.5245 68.7203 15.2421 71.3502 16.4169C73.9801 17.5916 76.8159 18.1985 79.6824 18.2C81.0615 18.2125 82.438 18.0751 83.789 17.79V17.79C84.015 17.7224 84.2094 17.5726 84.3362 17.3684C84.463 17.1643 84.5135 16.9196 84.4783 16.68C84.4573 16.5588 84.4131 16.4432 84.3484 16.3397C84.2837 16.2363 84.1997 16.1471 84.1013 16.0773C84.0028 16.0075 83.8919 15.9586 83.775 15.9333C83.6581 15.908 83.5374 15.9069 83.4201 15.93C82.2096 16.129 80.9858 16.2293 79.7601 16.23C76.9722 16.2138 74.2207 15.5772 71.6938 14.3639C69.167 13.1505 66.9246 11.389 65.1201 9.19997C65.0386 9.07402 64.9192 8.97915 64.7803 8.92997C64.6583 8.87266 64.5261 8.84202 64.392 8.83997C64.2579 8.84202 64.1257 8.87266 64.0036 8.92997C63.8678 8.98611 63.7548 9.08845 63.6833 9.21997C61.3787 12.3562 58.1276 14.6145 54.441 15.64V15.64C54.1949 15.7292 53.9882 15.9067 53.8586 16.14C53.7423 16.3528 53.7109 16.6038 53.7712 16.84V16.84C53.8599 17.0945 54.0269 17.3123 54.2469 17.46C54.4408 17.5842 54.6736 17.6271 54.8973 17.58V17.58Z" fill="black" stroke="black" stroke-width="0.3"/>
<path d="M22.6953 34.33L8.98731 39.18C8.81492 39.2466 8.66611 39.3653 8.56042 39.5206C8.45473 39.6759 8.3971 39.8604 8.39511 40.05V72.18C8.38681 72.2497 8.39903 72.3203 8.43019 72.3827C8.46136 72.4452 8.51002 72.4965 8.56986 72.53C8.62663 72.5491 8.68783 72.5491 8.7446 72.53H8.89993L9.04556 72.47L9.18147 72.42C9.26132 72.3842 9.34689 72.3639 9.43389 72.36H9.70572C9.79702 72.3568 9.88653 72.3329 9.96784 72.29C10.0147 72.2698 10.057 72.2398 10.0921 72.202C10.1272 72.1641 10.1543 72.1192 10.1717 72.07C10.2221 71.961 10.2455 71.8407 10.2397 71.72V40.78L23.2681 36.17C23.3829 36.134 23.4885 36.0722 23.5774 35.9893C23.6664 35.9063 23.7364 35.8041 23.7826 35.69C23.882 35.4609 23.9059 35.2045 23.8506 34.96C23.8204 34.8385 23.7636 34.7258 23.6845 34.6304C23.6054 34.5351 23.5061 34.4597 23.3943 34.41C23.1779 34.2988 22.9302 34.2705 22.6953 34.33Z" fill="black" stroke="black" stroke-width="0.3"/>
<path d="M43.1119 34.33C42.8771 34.2705 42.6293 34.2988 42.4129 34.41C42.3019 34.4609 42.2033 34.5367 42.1243 34.6319C42.0454 34.727 41.9881 34.8391 41.9566 34.96C41.9013 35.2045 41.9252 35.4609 42.0246 35.69C42.0718 35.8052 42.1433 35.908 42.234 35.9911C42.3247 36.0741 42.4323 36.1353 42.5488 36.17L55.5675 40.78V71.37H9.32727C9.06979 71.37 8.82286 71.4754 8.64079 71.6629C8.45873 71.8505 8.35645 72.1048 8.35645 72.37C8.35645 72.6353 8.45873 72.8896 8.64079 73.0772C8.82286 73.2647 9.06979 73.37 9.32727 73.37H56.383C56.646 73.3474 56.8927 73.2294 57.0793 73.0372C57.2659 72.845 57.3804 72.5909 57.4024 72.32V72.32V40.05C57.4012 39.8616 57.345 39.6779 57.2411 39.5227C57.1372 39.3676 56.9905 39.2482 56.8199 39.18L43.1119 34.33Z" fill="black" stroke="black" stroke-width="0.3"/>
<path d="M48.2666 72.39V49.75C48.2666 49.4848 48.1644 49.2304 47.9823 49.0429C47.8002 48.8554 47.5533 48.75 47.2958 48.75C47.1744 48.7551 47.0551 48.7852 46.9451 48.8384C46.835 48.8916 46.7364 48.967 46.6551 49.06C46.4826 49.2388 46.3821 49.4781 46.3735 49.73V72.33C46.3735 72.5952 46.4758 72.8496 46.6579 73.0371C46.8399 73.2246 47.0869 73.33 47.3444 73.33C47.4602 73.3248 47.5737 73.2945 47.6774 73.2411C47.7811 73.1877 47.8727 73.1123 47.9463 73.02C48.0979 72.8376 48.2074 72.6222 48.2666 72.39V72.39Z" fill="black" stroke="black" stroke-width="0.3"/>
<path d="M17.5503 72.35C17.5503 72.6152 17.6526 72.8696 17.8346 73.0571C18.0167 73.2446 18.2636 73.35 18.5211 73.35C18.6426 73.3449 18.7618 73.3148 18.8719 73.2616C18.9819 73.2084 19.0805 73.133 19.1619 73.04C19.3343 72.8612 19.4349 72.6219 19.4434 72.37V49.75C19.4437 49.4932 19.3481 49.2462 19.1764 49.06C19.0047 48.8738 18.7701 48.7628 18.5211 48.75C18.2773 48.7666 18.0485 48.8773 17.8804 49.06C17.7079 49.2388 17.6074 49.4781 17.5988 49.73L17.5503 72.35Z" fill="black" stroke="black" stroke-width="0.3"/>
<path d="M27.1415 30.83C27.2045 30.6182 27.2045 30.3918 27.1415 30.18C27.1072 30.0606 27.0501 29.9495 26.9733 29.8533C26.8966 29.7572 26.802 29.6778 26.6949 29.62C24.4076 28.3975 22.4943 26.5454 21.1677 24.2698C19.8412 21.9942 19.1534 19.3842 19.1808 16.73C19.1512 14.8636 19.4797 13.0096 20.1474 11.2744C20.8151 9.53906 21.8088 7.95663 23.0715 6.61783C24.3343 5.27904 25.8412 4.21022 27.5059 3.47269C29.1706 2.73516 30.9603 2.34344 32.7723 2.32C34.5843 2.34344 36.3739 2.73516 38.0386 3.47269C39.7033 4.21022 41.2103 5.27904 42.473 6.61783C43.7358 7.95663 44.7295 9.53906 45.3972 11.2744C46.0648 13.0096 46.3933 14.8636 46.3638 16.73C46.3889 19.3785 45.7009 21.9824 44.3762 24.2526C43.0514 26.5227 41.1418 28.3702 38.8593 29.59C38.7617 29.6375 38.6749 29.7057 38.6047 29.7901C38.5344 29.8746 38.4822 29.9734 38.4516 30.08C38.3725 30.327 38.3899 30.596 38.5001 30.83C38.5751 30.9711 38.6858 31.0886 38.8205 31.17C38.9666 31.2634 39.1341 31.3151 39.3059 31.32H39.568C39.6506 31.3068 39.7261 31.2644 39.7816 31.2C42.3503 29.8035 44.4958 27.7048 45.9823 25.1345C47.4689 22.5642 48.2391 19.6217 48.2083 16.63C48.2417 14.5221 47.8704 12.4283 47.1156 10.4687C46.3609 8.50912 45.2377 6.72251 43.8105 5.21152C42.3833 3.70054 40.6802 2.49497 38.7993 1.66409C36.9183 0.833222 34.8964 0.393431 32.8499 0.369995C30.8092 0.401269 28.7944 0.8465 26.9208 1.68024C25.0472 2.51397 23.3515 3.71987 21.9306 5.22901C20.5097 6.73814 19.3914 8.52093 18.6397 10.4755C17.888 12.43 17.5177 14.5179 17.5498 16.62C17.5182 19.6144 18.289 22.5598 19.7774 25.1321C21.2658 27.7044 23.4142 29.8041 25.9862 31.2C26.0847 31.2583 26.1938 31.295 26.3067 31.3078C26.4195 31.3206 26.5338 31.3093 26.6422 31.2746C26.7507 31.2399 26.851 31.1824 26.9369 31.1059C27.0228 31.0294 27.0925 30.9355 27.1415 30.83Z" fill="black" stroke="black" stroke-width="0.3"/>
<path d="M23.0253 36.17H42.7913C42.921 36.1788 43.051 36.159 43.1727 36.1119C43.2944 36.0647 43.4049 35.9914 43.4968 35.8967C43.5887 35.802 43.6599 35.6882 43.7057 35.5629C43.7514 35.4375 43.7707 35.3036 43.7621 35.17V30.35C43.7621 30.0848 43.6598 29.8304 43.4777 29.6429C43.2957 29.4553 43.0487 29.35 42.7913 29.35H23.0253C22.9038 29.3551 22.7846 29.3851 22.6746 29.4384C22.5645 29.4916 22.4659 29.5669 22.3846 29.66C22.2121 29.8388 22.1115 30.0781 22.103 30.33V35.18C22.1052 35.435 22.2019 35.6796 22.3733 35.8636C22.5448 36.0476 22.778 36.1572 23.0253 36.17ZM41.8204 31.43V34.33H23.8505V31.43H41.8204Z" fill="black" stroke="black" stroke-width="0.3"/>
<path d="M56.4411 73.33H92.6625C92.7721 73.3368 92.882 73.3212 92.9858 73.2841C93.0897 73.247 93.1853 73.1892 93.2674 73.1139C93.3495 73.0387 93.4163 72.9475 93.4641 72.8456C93.5119 72.7437 93.5397 72.633 93.5459 72.52V65.85C93.5397 65.737 93.5119 65.6264 93.4641 65.5245C93.4163 65.4226 93.3495 65.3314 93.2674 65.2561C93.1853 65.1809 93.0897 65.123 92.9858 65.086C92.882 65.0489 92.7721 65.0333 92.6625 65.04H56.4411C56.3311 65.0319 56.2207 65.0465 56.1163 65.0831C56.0119 65.1197 55.9157 65.1774 55.8333 65.2529C55.751 65.3284 55.6842 65.4202 55.6368 65.5227C55.5894 65.6253 55.5625 65.7366 55.5576 65.85V72.52C55.5638 72.633 55.5916 72.7437 55.6394 72.8456C55.6872 72.9475 55.754 73.0387 55.8361 73.1139C55.9182 73.1892 56.0139 73.247 56.1177 73.2841C56.2215 73.3212 56.3314 73.3368 56.4411 73.33V73.33ZM91.7887 66.74V71.74H57.3536V66.74H91.7887Z" fill="black" stroke="black" stroke-width="0.27"/>
<path d="M1.72545 73.33H9.31728C9.55781 73.3196 9.78462 73.2118 9.94832 73.03C10.0373 72.9456 10.1089 72.8438 10.159 72.7304C10.209 72.617 10.2364 72.4945 10.2396 72.37V66.1C10.2481 65.9663 10.2289 65.8324 10.1832 65.7071C10.1374 65.5817 10.0662 65.4679 9.97427 65.3732C9.88235 65.2785 9.77186 65.2052 9.65018 65.158C9.5285 65.1109 9.39846 65.0911 9.26875 65.1H1.67691C1.5472 65.0911 1.41716 65.1109 1.29548 65.158C1.1738 65.2052 1.06331 65.2785 0.971388 65.3732C0.879469 65.4679 0.808248 65.5817 0.762495 65.7071C0.716741 65.8324 0.697511 65.9663 0.706092 66.1V72.37C0.711065 72.5022 0.741469 72.6321 0.795544 72.7521C0.849618 72.8722 0.926285 72.98 1.0211 73.0693C1.11592 73.1586 1.22701 73.2276 1.34791 73.2723C1.46882 73.3171 1.59714 73.3367 1.72545 73.33ZM8.38529 66.9499V71.41H2.64774V66.93L8.38529 66.9499Z" fill="black" stroke="black" stroke-width="0.3"/>
</g>
<defs>
<clipPath id="clip0">
<rect width="93.0339" height="73.47" fill="white" transform="translate(0.657715)"/>
</clipPath>
</defs>
</svg>
