<svg width="30" height="24" viewBox="0 0 30 24" fill="none" xmlns="http://www.w3.org/2000/svg">
<g clip-path="url(#clip0)">
<path d="M16.2413 12.231C16.2591 12.2886 16.2941 12.339 16.3413 12.3749C16.3885 12.4108 16.4456 12.4304 16.5042 12.431H16.6138L18.9649 11.5861C19.0019 11.5745 19.0359 11.5546 19.0646 11.5278C19.0933 11.501 19.1159 11.4681 19.1308 11.4313C19.1628 11.3574 19.1705 11.2747 19.1527 11.1959C19.143 11.1567 19.1246 11.1204 19.0991 11.0896C19.0736 11.0589 19.0416 11.0346 19.0055 11.0186C18.9371 10.9821 18.8579 10.9729 18.7833 10.9928L16.4322 11.8247C16.3952 11.8364 16.3612 11.8563 16.3325 11.883C16.3038 11.9098 16.2812 11.9427 16.2663 11.9795C16.2296 12.0577 16.2208 12.1468 16.2413 12.231Z" fill="black" stroke="black" stroke-width="0.0967389"/>
<path d="M29.3486 21.1471C29.3558 21.2211 29.3911 21.2891 29.4468 21.3363C29.5026 21.3834 29.5742 21.4058 29.646 21.3987C29.6817 21.4027 29.7177 21.3993 29.7521 21.3888C29.7864 21.3782 29.8184 21.3607 29.8461 21.3373C29.8738 21.3139 29.8967 21.285 29.9134 21.2523C29.9301 21.2197 29.9403 21.1839 29.9434 21.1471V12.876C29.9448 12.8412 29.9385 12.8066 29.9249 12.7747C29.9113 12.7429 29.8909 12.7147 29.8652 12.6921C29.8035 12.6408 29.7252 12.6154 29.646 12.6212C29.6102 12.6172 29.5739 12.6207 29.5393 12.6314C29.5048 12.6422 29.4727 12.6599 29.4449 12.6837C29.4172 12.7075 29.3944 12.7367 29.3778 12.7697C29.3613 12.8028 29.3514 12.8389 29.3486 12.876V21.1471Z" fill="black" stroke="black" stroke-width="0.087065"/>
<path d="M29.5679 13.1565H29.6462C29.7111 13.152 29.7734 13.1284 29.8256 13.0883C29.8778 13.0483 29.9177 12.9936 29.9404 12.9308C29.9585 12.852 29.9508 12.7692 29.9185 12.6954C29.9036 12.6586 29.881 12.6256 29.8524 12.5989C29.8237 12.5721 29.7896 12.5522 29.7526 12.5406L25.3292 10.9766C25.2547 10.958 25.1763 10.966 25.1069 10.9992C25.0711 11.0156 25.0393 11.0401 25.0138 11.0707C24.9884 11.1014 24.9699 11.1376 24.9597 11.1766C24.9417 11.2554 24.9494 11.3381 24.9817 11.412C24.9962 11.449 25.0186 11.4822 25.0474 11.509C25.0761 11.5358 25.1104 11.5555 25.1476 11.5667L29.5679 13.1565Z" fill="black" stroke="black" stroke-width="0.0967389"/>
<path d="M23.5263 14.6044C23.5537 14.6383 23.5875 14.6662 23.6257 14.6862C23.664 14.7061 23.7058 14.7178 23.7486 14.7204C23.7598 14.7238 23.7718 14.7238 23.783 14.7204C23.8283 14.7091 23.8716 14.6906 23.9114 14.6656C23.9319 14.6505 23.9473 14.6291 23.9552 14.6044C23.9598 14.5864 23.9598 14.5675 23.9552 14.5495L25.4203 11.441C25.4334 11.412 25.4439 11.3817 25.4516 11.3507C25.4542 11.3293 25.4542 11.3076 25.4516 11.2862V9.71581C25.4576 9.65844 25.4456 9.6006 25.4175 9.55072C25.3893 9.50084 25.3464 9.46152 25.2951 9.4385C25.2492 9.41643 25.1983 9.40752 25.1479 9.4127C25.0908 9.41654 25.0366 9.44044 24.9945 9.48042L21.9955 11.9086L18.9839 9.47074C18.9419 9.43222 18.8897 9.40738 18.834 9.39934C18.7783 9.39131 18.7215 9.40044 18.6708 9.4256C18.6265 9.45178 18.5898 9.48962 18.5644 9.53524C18.5341 9.58562 18.5178 9.64364 18.5174 9.70292V11.2733C18.5138 11.3006 18.5156 11.3284 18.5226 11.3549C18.5296 11.3815 18.5417 11.4064 18.5581 11.4281L20.0295 14.5495C20.0489 14.5959 20.0807 14.6356 20.1212 14.6641C20.1616 14.6927 20.209 14.7088 20.258 14.7108C20.3078 14.712 20.3572 14.7009 20.402 14.6785C20.4436 14.6584 20.4809 14.6299 20.5116 14.5947L22.0143 12.776L23.5263 14.6044ZM23.7517 14.6753H23.7298H23.7517ZM19.1842 11.2636V10.3801L21.6417 12.3826L20.3895 13.853L19.1842 11.2636ZM24.957 11.1701L23.7047 13.824L22.4525 12.3536L24.957 10.3188V11.1701Z" fill="black" stroke="black" stroke-width="0.0967389"/>
<path d="M26.3994 21.0343C26.3994 21.1729 26.5497 21.2568 26.6968 21.2568C26.844 21.2568 27.0099 21.1762 27.0099 21.0568V15.8813C27.0099 15.7717 26.8972 15.6556 26.6968 15.6556C26.4965 15.6556 26.3994 15.7717 26.3994 15.8813V21.0343Z" fill="black" stroke="black" stroke-width="0.0806158"/>
<path d="M24.1277 10.0286H25.2234C25.3064 10.0286 25.386 9.99463 25.4447 9.93416C25.5034 9.87368 25.5364 9.79166 25.5364 9.70614C25.5328 9.62446 25.4993 9.54724 25.4425 9.49009C25.4165 9.4598 25.3848 9.43531 25.3492 9.41812C25.3137 9.40093 25.2751 9.3914 25.2359 9.39013H24.1402C24.0572 9.39013 23.9775 9.4241 23.9188 9.48457C23.8601 9.54505 23.8271 9.62707 23.8271 9.71259C23.8299 9.79382 23.8623 9.87098 23.9179 9.92864C23.9444 9.95917 23.9767 9.98378 24.0128 10.001C24.0488 10.0182 24.0879 10.0276 24.1277 10.0286Z" fill="black" stroke="black" stroke-width="0.0967389"/>
<path d="M22.462 18.9447L23.7143 19.4542C23.7486 19.4827 23.7923 19.4966 23.8364 19.4929C23.8794 19.4964 23.9221 19.4825 23.9553 19.4542L25.2075 18.9447C25.2632 18.9249 25.3117 18.8881 25.3464 18.8391C25.3811 18.79 25.4004 18.7313 25.4016 18.6706V16.1554C25.4001 16.1155 25.3908 16.0763 25.3741 16.0403C25.3574 16.0042 25.3338 15.9721 25.3046 15.9458C25.2491 15.8873 25.1741 15.8528 25.0948 15.8491H22.5904C22.5074 15.8491 22.4277 15.883 22.369 15.9435C22.3103 16.004 22.2773 16.086 22.2773 16.1715V18.6803C22.2797 18.7381 22.2985 18.794 22.3313 18.8409C22.3641 18.8879 22.4096 18.924 22.462 18.9447ZM23.8332 18.877L22.8941 18.4771V16.4617H24.8068V18.4771L23.8332 18.877Z" fill="black" stroke="black" stroke-width="0.0967389"/>
<path d="M17.1178 5.2884C17.1075 5.96676 17.2271 6.64057 17.4699 7.27125C17.7127 7.90193 18.0738 8.4771 18.5327 8.96382C18.9915 9.45055 19.5391 9.83927 20.144 10.1077C20.7489 10.3762 21.3992 10.5192 22.0578 10.5284C22.7164 10.5192 23.3668 10.3762 23.9716 10.1077C24.5765 9.83927 25.1241 9.45055 25.5829 8.96382C26.0418 8.4771 26.403 7.90193 26.6457 7.27125C26.8885 6.64057 27.0082 5.96676 26.9978 5.2884C27.0082 4.61003 26.8885 3.93622 26.6457 3.30554C26.403 2.67486 26.0418 2.09969 25.5829 1.61297C25.1241 1.12624 24.5765 0.737517 23.9716 0.469042C23.3668 0.200567 22.7164 0.0576153 22.0578 0.0483704C21.3992 0.0576153 20.7489 0.200567 20.144 0.469042C19.5391 0.737517 18.9915 1.12624 18.5327 1.61297C18.0738 2.09969 17.7127 2.67486 17.4699 3.30554C17.2271 3.93622 17.1075 4.61003 17.1178 5.2884ZM17.6813 5.2884C17.6696 4.07879 18.1247 2.9139 18.9466 2.04981C19.7684 1.18573 20.8898 0.693161 22.0641 0.680398C23.2343 0.699085 24.3497 1.19436 25.1663 2.0579C25.9829 2.92143 26.4343 4.08295 26.4218 5.2884C26.4309 5.88996 26.3247 6.48746 26.1092 7.04665C25.8937 7.60584 25.5732 8.11574 25.166 8.54711C24.7589 8.97848 24.2731 9.32284 23.7365 9.56047C23.1999 9.79809 22.6231 9.9243 22.039 9.93186C20.8654 9.90477 19.7496 9.40196 18.9337 8.5326C18.1179 7.66323 17.6678 6.49747 17.6813 5.2884Z" fill="black" stroke="black" stroke-width="0.0967389"/>
<path d="M17.49 5.6689C18.6795 5.32608 19.7445 4.62953 20.5517 3.6664C21.1837 4.36115 21.9474 4.91503 22.7954 5.29384C23.6435 5.67265 24.5579 5.86834 25.4823 5.86883C25.927 5.87286 26.3708 5.82855 26.8065 5.73662C26.8794 5.71483 26.9421 5.66653 26.9829 5.60069C27.0238 5.53485 27.0401 5.45596 27.0288 5.37868C27.022 5.33961 27.0078 5.30232 26.9869 5.26896C26.966 5.2356 26.9389 5.20684 26.9072 5.18434C26.8754 5.16185 26.8397 5.14606 26.802 5.13791C26.7643 5.12975 26.7254 5.12939 26.6875 5.13683C26.2972 5.20101 25.9026 5.23335 25.5073 5.23357C24.6083 5.22836 23.7211 5.02309 22.9062 4.63183C22.0914 4.24056 21.3683 3.67254 20.7865 2.96666C20.7602 2.92604 20.7217 2.89545 20.6769 2.87959C20.6375 2.86111 20.5949 2.85123 20.5517 2.85057C20.5084 2.85123 20.4658 2.86111 20.4264 2.87959C20.3826 2.8977 20.3462 2.9307 20.3231 2.97311C19.58 3.98442 18.5316 4.71266 17.3429 5.04332C17.2635 5.07211 17.1968 5.12933 17.155 5.20455C17.1175 5.27317 17.1074 5.35412 17.1269 5.43028C17.1554 5.51237 17.2093 5.58258 17.2802 5.6302C17.3428 5.67025 17.4178 5.68409 17.49 5.6689Z" fill="black" stroke="black" stroke-width="0.0967389"/>
<path d="M7.10625 11.0702L2.68592 12.6341C2.63033 12.6556 2.58234 12.6938 2.54826 12.7439C2.51418 12.794 2.4956 12.8535 2.49496 12.9146V23.2754C2.49228 23.2978 2.49622 23.3206 2.50627 23.3407C2.51632 23.3609 2.53201 23.3774 2.55131 23.3882C2.56961 23.3944 2.58935 23.3944 2.60766 23.3882H2.65774L2.7047 23.3689L2.74853 23.3528C2.77428 23.3412 2.80187 23.3347 2.82992 23.3334H2.91758C2.94702 23.3324 2.97588 23.3247 3.00211 23.3109C3.01722 23.3043 3.03085 23.2947 3.04217 23.2825C3.05348 23.2703 3.06222 23.2558 3.06785 23.2399C3.08411 23.2047 3.09163 23.166 3.08976 23.1271V13.15L7.29095 11.6635C7.32796 11.6519 7.36202 11.6319 7.3907 11.6052C7.41938 11.5784 7.44197 11.5455 7.45687 11.5087C7.48892 11.4348 7.49661 11.3521 7.47878 11.2733C7.46906 11.2341 7.45074 11.1978 7.42523 11.167C7.39972 11.1363 7.36771 11.112 7.33165 11.096C7.26186 11.0601 7.18197 11.0509 7.10625 11.0702Z" fill="black" stroke="black" stroke-width="0.0967389"/>
<path d="M13.6898 11.0702C13.614 11.0509 13.5342 11.0601 13.4644 11.096C13.4286 11.1124 13.3968 11.1368 13.3713 11.1675C13.3459 11.1982 13.3274 11.2343 13.3172 11.2733C13.2994 11.3521 13.3071 11.4348 13.3391 11.5087C13.3544 11.5458 13.3774 11.579 13.4067 11.6058C13.4359 11.6326 13.4706 11.6523 13.5082 11.6635L17.7063 13.15V23.0142H2.79548C2.71245 23.0142 2.63282 23.0482 2.57411 23.1086C2.5154 23.1691 2.48242 23.2511 2.48242 23.3367C2.48242 23.4222 2.5154 23.5042 2.57411 23.5647C2.63282 23.6251 2.71245 23.6591 2.79548 23.6591H17.9692C18.054 23.6518 18.1336 23.6138 18.1937 23.5518C18.2539 23.4898 18.2908 23.4079 18.2979 23.3205V12.9146C18.2975 12.8539 18.2794 12.7946 18.2459 12.7446C18.2124 12.6946 18.1651 12.6561 18.1101 12.6341L13.6898 11.0702Z" fill="black" stroke="black" stroke-width="0.0967389"/>
<path d="M15.3517 23.3431V16.0425C15.3517 15.957 15.3187 15.875 15.26 15.8145C15.2013 15.7541 15.1216 15.7201 15.0386 15.7201C14.9994 15.7217 14.961 15.7314 14.9255 15.7486C14.89 15.7657 14.8582 15.79 14.832 15.82C14.7764 15.8777 14.744 15.9549 14.7412 16.0361V23.3238C14.7412 23.4093 14.7742 23.4913 14.8329 23.5518C14.8916 23.6122 14.9712 23.6462 15.0543 23.6462C15.0916 23.6445 15.1282 23.6348 15.1617 23.6175C15.1951 23.6003 15.2246 23.576 15.2484 23.5463C15.2972 23.4874 15.3326 23.418 15.3517 23.3431Z" fill="black" stroke="black" stroke-width="0.0967389"/>
<path d="M5.44727 23.3302C5.44727 23.4157 5.48025 23.4977 5.53896 23.5582C5.59767 23.6187 5.67729 23.6527 5.76032 23.6527C5.79949 23.651 5.83794 23.6413 5.87342 23.6242C5.9089 23.607 5.9407 23.5827 5.96694 23.5527C6.02255 23.495 6.05497 23.4179 6.05772 23.3367V16.0425C6.05782 15.9597 6.027 15.8801 5.97163 15.82C5.91627 15.76 5.8406 15.7242 5.76032 15.7201C5.68169 15.7254 5.60791 15.7611 5.5537 15.82C5.49809 15.8777 5.46567 15.9549 5.46292 16.0361L5.44727 23.3302Z" fill="black" stroke="black" stroke-width="0.0967389"/>
<path d="M8.53989 9.94154C8.56019 9.87324 8.56019 9.80024 8.53989 9.73194C8.52884 9.69344 8.5104 9.65762 8.48566 9.6266C8.46093 9.59558 8.4304 9.57 8.39588 9.55136C7.65831 9.15714 7.04133 8.55993 6.61357 7.82613C6.1858 7.09232 5.964 6.25069 5.97284 5.39481C5.96332 4.79298 6.06924 4.19513 6.28454 3.63556C6.49984 3.076 6.82028 2.56572 7.22747 2.13401C7.63466 1.7023 8.12059 1.35764 8.65739 1.11982C9.19419 0.881992 9.7713 0.755676 10.3556 0.748115C10.9399 0.755676 11.517 0.881992 12.0538 1.11982C12.5906 1.35764 13.0765 1.7023 13.4837 2.13401C13.8909 2.56572 14.2114 3.076 14.4267 3.63556C14.642 4.19513 14.7479 4.79298 14.7384 5.39481C14.7465 6.24887 14.5246 7.08853 14.0974 7.82056C13.6703 8.55259 13.0545 9.14835 12.3185 9.54168C12.287 9.557 12.259 9.579 12.2363 9.60623C12.2137 9.63346 12.1969 9.6653 12.187 9.69969C12.1615 9.77934 12.1671 9.86609 12.2026 9.94154C12.2268 9.98703 12.2625 10.0249 12.3059 10.0512C12.353 10.0813 12.407 10.098 12.4625 10.0995H12.547C12.5736 10.0953 12.598 10.0816 12.6159 10.0608C13.4442 9.61052 14.136 8.93379 14.6154 8.10496C15.0947 7.27613 15.3431 6.32727 15.3332 5.36256C15.3439 4.68285 15.2242 4.00765 14.9808 3.37577C14.7374 2.74388 14.3752 2.16776 13.915 1.68053C13.4548 1.19329 12.9056 0.804537 12.2991 0.536611C11.6925 0.268686 11.0406 0.12687 10.3806 0.119312C9.72258 0.129397 9.0729 0.272967 8.46873 0.541817C7.86456 0.810667 7.31775 1.19952 6.85956 1.68616C6.40136 2.1728 6.04076 2.74769 5.79837 3.37795C5.55598 4.00822 5.43655 4.68151 5.44691 5.35934C5.43671 6.32492 5.68527 7.27469 6.16523 8.10418C6.6452 8.93366 7.33797 9.61071 8.16735 10.0608C8.19911 10.0796 8.23428 10.0915 8.27068 10.0956C8.30708 10.0997 8.34392 10.0961 8.37889 10.0849C8.41386 10.0737 8.4462 10.0552 8.47391 10.0305C8.50161 10.0059 8.52407 9.97556 8.53989 9.94154Z" fill="black" stroke="black" stroke-width="0.0967389"/>
<path d="M7.21244 11.6635H13.5862C13.6281 11.6663 13.67 11.66 13.7092 11.6448C13.7485 11.6296 13.7841 11.6059 13.8137 11.5754C13.8434 11.5448 13.8663 11.5081 13.8811 11.4677C13.8958 11.4273 13.902 11.3841 13.8993 11.341V9.78675C13.8993 9.70123 13.8663 9.61921 13.8076 9.55874C13.7489 9.49826 13.6693 9.46429 13.5862 9.46429H7.21244C7.17327 9.46594 7.13482 9.47563 7.09934 9.4928C7.06386 9.50996 7.03206 9.53426 7.00583 9.56425C6.95021 9.62191 6.91779 9.69908 6.91504 9.7803V11.3442C6.91574 11.4265 6.94692 11.5054 7.0022 11.5647C7.05749 11.624 7.13269 11.6594 7.21244 11.6635ZM13.2732 10.135V11.0702H7.47854V10.135H13.2732Z" fill="black" stroke="black" stroke-width="0.0967389"/>
<path d="M17.988 23.6462H29.6681C29.7034 23.6484 29.7389 23.6434 29.7723 23.6314C29.8058 23.6195 29.8367 23.6008 29.8631 23.5765C29.8896 23.5523 29.9112 23.5229 29.9266 23.49C29.942 23.4571 29.9509 23.4215 29.9529 23.385V21.2342C29.9509 21.1978 29.942 21.1621 29.9266 21.1292C29.9112 21.0964 29.8896 21.0669 29.8631 21.0427C29.8367 21.0184 29.8058 20.9998 29.7723 20.9878C29.7389 20.9759 29.7034 20.9708 29.6681 20.973H17.988C17.9525 20.9704 17.9169 20.9751 17.8833 20.9869C17.8496 20.9987 17.8186 21.0173 17.792 21.0417C17.7655 21.066 17.7439 21.0956 17.7287 21.1287C17.7134 21.1617 17.7047 21.1976 17.7031 21.2342V23.385C17.7051 23.4215 17.7141 23.4571 17.7295 23.49C17.7449 23.5229 17.7665 23.5523 17.7929 23.5765C17.8194 23.6008 17.8502 23.6195 17.8837 23.6314C17.9172 23.6434 17.9526 23.6484 17.988 23.6462ZM29.3863 21.5212V23.1335H18.2823V21.5212H29.3863Z" fill="black" stroke="black" stroke-width="0.087065"/>
<path d="M0.343996 23.6462H2.79208C2.86964 23.6429 2.94278 23.6081 2.99557 23.5495C3.02426 23.5223 3.04736 23.4894 3.06349 23.4529C3.07962 23.4163 3.08846 23.3768 3.08948 23.3367V21.3148C3.09225 21.2717 3.08605 21.2285 3.0713 21.1881C3.05654 21.1477 3.03358 21.111 3.00394 21.0805C2.9743 21.0499 2.93866 21.0263 2.89943 21.0111C2.86019 20.9959 2.81826 20.9895 2.77643 20.9923H0.328345C0.286518 20.9895 0.244582 20.9959 0.205346 21.0111C0.16611 21.0263 0.130479 21.0499 0.100839 21.0805C0.0711978 21.111 0.0482318 21.1477 0.0334781 21.1881C0.0187243 21.2285 0.0125232 21.2717 0.0152903 21.3148V23.3367C0.016894 23.3793 0.0266982 23.4212 0.0441352 23.4599C0.0615722 23.4986 0.0862943 23.5334 0.11687 23.5622C0.147445 23.591 0.183266 23.6132 0.222254 23.6276C0.261242 23.6421 0.302621 23.6484 0.343996 23.6462ZM2.49155 21.5889V23.0271H0.641399V21.5825L2.49155 21.5889Z" fill="black" stroke="black" stroke-width="0.0967389"/>
</g>
<defs>
<clipPath id="clip0">
<rect width="30" height="23.6914" fill="white"/>
</clipPath>
</defs>
</svg>
