<svg width="27" height="27" viewBox="0 0 27 27" fill="none" xmlns="http://www.w3.org/2000/svg">
<path d="M25.9348 24.7523L24.3256 26.4048C24.2805 26.4511 24.2203 26.4665 24.1451 26.4665C23.9947 26.4511 23.8593 26.3893 23.7541 26.2812C21.7989 24.3508 21.6786 24.1963 19.7535 22.0497C19.2422 21.4474 19.3024 20.5516 19.8889 20.0266C20.1446 19.7949 20.4754 19.6713 20.8214 19.6713C21.1522 19.6713 21.4831 19.7949 21.7237 20.0266C23.8142 22.0033 23.9496 22.1269 25.8295 24.1345C26.025 24.3816 26.0401 24.6442 25.9348 24.7523Z" stroke="black" stroke-width="0.705034" stroke-miterlimit="10" stroke-linecap="round"/>
<path d="M7.55664 20.9532C8.66957 21.3701 9.84266 21.5864 11.0308 21.5864" stroke="black" stroke-width="0.705034" stroke-miterlimit="10" stroke-linecap="round"/>
<path d="M11.0314 21.5863C16.566 21.5863 21.0628 16.9687 21.0478 11.2855C21.0328 5.60223 16.551 0.984595 11.0164 1.00004C5.48183 1.00004 0.984998 5.61767 1.00004 11.3009C1.00004 15.6097 3.61692 19.4706 7.57233 20.9532" stroke="black" stroke-width="0.705034" stroke-miterlimit="10" stroke-linecap="round"/>
<path d="M11.0202 19.6814C15.523 19.6814 19.1732 15.9303 19.1732 11.3032C19.1732 6.67609 15.523 2.92507 11.0202 2.92507C6.51742 2.92507 2.86719 6.67609 2.86719 11.3032C2.86719 15.9303 6.51742 19.6814 11.0202 19.6814Z" stroke="black" stroke-width="0.705034" stroke-miterlimit="10" stroke-linecap="round"/>
<path d="M17.708 19.1308L19.3022 20.7215" stroke="black" stroke-width="0.705034" stroke-miterlimit="10" stroke-linecap="round"/>
<path d="M18.7314 18.0652L20.3256 19.6559" stroke="black" stroke-width="0.705034" stroke-miterlimit="10" stroke-linecap="round"/>
<mask id="path-7-outside-1" maskUnits="userSpaceOnUse" x="5.54883" y="6.7898" width="11" height="9" fill="black">
<rect fill="white" x="5.54883" y="6.7898" width="11" height="9"/>
<path fill-rule="evenodd" clip-rule="evenodd" d="M7.33383 9.18322C7.30113 9.18322 7.28477 9.18322 7.26842 9.2C7.21935 9.21679 7.18665 9.25037 7.15394 9.28394C7.12123 9.31752 7.08852 9.36788 7.05581 9.40146C7.05581 9.43504 7.05581 9.45182 7.03946 9.46861C7.0231 9.4854 7.03946 9.50219 7.03946 9.53577V10.4759L10.6047 11.4832C10.621 11.4832 10.6538 11.4832 10.6701 11.4832H11.4224C11.4551 11.4832 11.4715 11.4832 11.4878 11.4832L15.0531 10.4591V9.51898C15.0531 9.50219 15.0531 9.4854 15.0531 9.45182C15.0531 9.41825 15.0367 9.41825 15.0367 9.38467C15.0203 9.33431 14.9876 9.30073 14.9549 9.26716C14.9222 9.23358 14.8732 9.2 14.8404 9.18322C14.8241 9.16643 14.8077 9.16643 14.775 9.16643C14.7587 9.16643 14.7423 9.16643 14.7096 9.16643H7.3829C7.36654 9.18322 7.33383 9.18322 7.33383 9.18322ZM7.03946 14.0686C7.03946 14.0853 7.03946 14.1021 7.03946 14.1189C7.03946 14.1357 7.05581 14.1525 7.05581 14.1861C7.07217 14.2364 7.10487 14.2868 7.13758 14.3036C7.17029 14.3372 7.21935 14.3707 7.25206 14.3875C7.26842 14.4043 7.28477 14.4043 7.31748 14.4043C7.33383 14.4043 7.35019 14.4211 7.36654 14.4211H14.6933C14.7096 14.4211 14.726 14.4211 14.7423 14.4043C14.775 14.4043 14.7914 14.4043 14.8077 14.3875C14.8568 14.3707 14.8895 14.3372 14.9222 14.3036C14.9549 14.27 14.9876 14.2196 15.0203 14.1861C15.0203 14.1693 15.0367 14.1525 15.0367 14.1189C15.0367 14.0853 15.0367 14.0853 15.0367 14.0686V10.9963L11.9294 11.8693C11.9294 11.8861 11.9457 11.9029 11.9457 11.9197C11.9457 11.9533 11.9621 12.0036 11.9621 12.0372V12.2554C11.9621 12.289 11.9621 12.3394 11.9457 12.373C11.9294 12.4065 11.9294 12.4401 11.913 12.4737C11.8803 12.5408 11.8476 12.5912 11.7986 12.6416C11.7495 12.6919 11.7004 12.7423 11.635 12.7591C11.6023 12.7759 11.5696 12.7927 11.5369 12.7927C11.5042 12.8262 11.4715 12.8262 11.4224 12.8262H10.6701C10.6374 12.8262 10.5883 12.8262 10.5556 12.8094C10.5229 12.8094 10.4902 12.7927 10.4575 12.7759C10.3921 12.7423 10.343 12.7087 10.294 12.6584C10.2449 12.608 10.1958 12.5576 10.1795 12.4905C10.1631 12.4569 10.1468 12.4233 10.1468 12.3897C10.1468 12.3562 10.1304 12.3058 10.1304 12.2722V12.054C10.1304 12.0204 10.1304 11.97 10.1468 11.9365C10.1468 11.9197 10.1631 11.9029 10.1631 11.8693L7.03946 10.9795V14.0686ZM15.5273 14.2364C15.511 14.3036 15.4946 14.354 15.4783 14.3875C15.4292 14.4883 15.3638 14.5722 15.2984 14.6561C15.2166 14.7233 15.1348 14.7904 15.0367 14.8408C14.9876 14.8744 14.9386 14.8744 14.8895 14.8912C14.8241 14.908 14.775 14.9247 14.726 14.9247H7.3829C7.31748 14.9247 7.26842 14.908 7.21935 14.8912C7.17029 14.8744 7.12123 14.8576 7.07217 14.8408C6.97404 14.7904 6.89227 14.7233 6.8105 14.6561C6.74508 14.589 6.67966 14.4883 6.6306 14.3875C6.61425 14.3372 6.59789 14.2868 6.58154 14.2364C6.56518 14.1861 6.54883 14.1357 6.54883 14.0686V9.53577C6.54883 9.46861 6.54883 9.41825 6.56518 9.36788C6.58154 9.31752 6.59789 9.26716 6.61425 9.21679C6.66331 9.11606 6.72873 9.03212 6.79414 8.94818C6.87591 8.84745 6.97404 8.79709 7.05581 8.74672C7.10487 8.71315 7.15394 8.69636 7.203 8.69636C7.26842 8.67957 7.31748 8.67957 7.36654 8.67957H9.1328V8.41096C9.1328 8.3606 9.1328 8.32702 9.14916 8.27666C9.14916 8.24308 9.16551 8.19272 9.18187 8.15914C9.21458 8.09199 9.26364 8.02484 9.3127 7.97447C9.37812 7.90732 9.42718 7.87374 9.4926 7.84017C9.52531 7.82338 9.57437 7.80659 9.60708 7.80659C9.6725 7.7898 9.7052 7.7898 9.75427 7.7898H12.3546C12.4037 7.7898 12.4364 7.7898 12.4854 7.80659C12.5181 7.82338 12.5508 7.84017 12.5999 7.84017C12.6653 7.87374 12.7307 7.92411 12.7798 7.97447C12.8289 8.02484 12.8779 8.09199 12.9106 8.15914C12.9106 8.20951 12.927 8.24308 12.9434 8.29345C12.9434 8.32702 12.9597 8.37739 12.9597 8.42775V8.67957H14.7096C14.775 8.67957 14.8241 8.67957 14.8732 8.69636C14.9222 8.69636 14.9713 8.72994 15.0203 8.74672C15.1185 8.7803 15.2002 8.84745 15.282 8.93139C15.3638 8.99855 15.4292 9.09927 15.4619 9.2C15.4946 9.25037 15.511 9.30073 15.5273 9.3511C15.5437 9.40146 15.5437 9.46861 15.5437 9.53577V14.0853C15.5437 14.1357 15.5437 14.1861 15.5273 14.2364ZM12.4854 8.67957V8.41096V8.39417V8.37739C12.4691 8.3606 12.4527 8.34381 12.4527 8.32702C12.4364 8.31023 12.42 8.29345 12.4037 8.29345H12.3873H12.371H9.75427H9.73791C9.73791 8.29345 9.72156 8.29345 9.7052 8.29345C9.68885 8.31023 9.6725 8.32702 9.65614 8.32702C9.63979 8.34381 9.62343 8.3606 9.62343 8.37739C9.62343 8.39417 9.62343 8.39417 9.62343 8.41096C9.62343 8.41096 9.62343 8.41096 9.62343 8.42775V8.67957H12.4854ZM10.6701 11.97C10.6538 11.97 10.6374 11.9868 10.6374 11.9868C10.6374 12.0036 10.621 12.0036 10.621 12.0204V12.2386C10.621 12.2554 10.6374 12.2722 10.6374 12.2722C10.6538 12.2722 10.6538 12.289 10.6701 12.289H11.4224C11.4388 12.289 11.4551 12.2722 11.4551 12.2554C11.4551 12.2554 11.4715 12.2386 11.4715 12.2219C11.4715 12.2219 11.4715 12.2219 11.4715 12.2051V11.9868C11.4715 11.9868 11.4715 11.9868 11.4715 11.97C11.4715 11.97 11.4551 11.9533 11.4388 11.9365C11.4551 11.9868 11.4551 11.97 11.4388 11.97C11.4388 11.97 11.4388 11.97 11.4224 11.97H10.6701Z"/>
</mask>
<path fill-rule="evenodd" clip-rule="evenodd" d="M7.33383 9.18322C7.30113 9.18322 7.28477 9.18322 7.26842 9.2C7.21935 9.21679 7.18665 9.25037 7.15394 9.28394C7.12123 9.31752 7.08852 9.36788 7.05581 9.40146C7.05581 9.43504 7.05581 9.45182 7.03946 9.46861C7.0231 9.4854 7.03946 9.50219 7.03946 9.53577V10.4759L10.6047 11.4832C10.621 11.4832 10.6538 11.4832 10.6701 11.4832H11.4224C11.4551 11.4832 11.4715 11.4832 11.4878 11.4832L15.0531 10.4591V9.51898C15.0531 9.50219 15.0531 9.4854 15.0531 9.45182C15.0531 9.41825 15.0367 9.41825 15.0367 9.38467C15.0203 9.33431 14.9876 9.30073 14.9549 9.26716C14.9222 9.23358 14.8732 9.2 14.8404 9.18322C14.8241 9.16643 14.8077 9.16643 14.775 9.16643C14.7587 9.16643 14.7423 9.16643 14.7096 9.16643H7.3829C7.36654 9.18322 7.33383 9.18322 7.33383 9.18322ZM7.03946 14.0686C7.03946 14.0853 7.03946 14.1021 7.03946 14.1189C7.03946 14.1357 7.05581 14.1525 7.05581 14.1861C7.07217 14.2364 7.10487 14.2868 7.13758 14.3036C7.17029 14.3372 7.21935 14.3707 7.25206 14.3875C7.26842 14.4043 7.28477 14.4043 7.31748 14.4043C7.33383 14.4043 7.35019 14.4211 7.36654 14.4211H14.6933C14.7096 14.4211 14.726 14.4211 14.7423 14.4043C14.775 14.4043 14.7914 14.4043 14.8077 14.3875C14.8568 14.3707 14.8895 14.3372 14.9222 14.3036C14.9549 14.27 14.9876 14.2196 15.0203 14.1861C15.0203 14.1693 15.0367 14.1525 15.0367 14.1189C15.0367 14.0853 15.0367 14.0853 15.0367 14.0686V10.9963L11.9294 11.8693C11.9294 11.8861 11.9457 11.9029 11.9457 11.9197C11.9457 11.9533 11.9621 12.0036 11.9621 12.0372V12.2554C11.9621 12.289 11.9621 12.3394 11.9457 12.373C11.9294 12.4065 11.9294 12.4401 11.913 12.4737C11.8803 12.5408 11.8476 12.5912 11.7986 12.6416C11.7495 12.6919 11.7004 12.7423 11.635 12.7591C11.6023 12.7759 11.5696 12.7927 11.5369 12.7927C11.5042 12.8262 11.4715 12.8262 11.4224 12.8262H10.6701C10.6374 12.8262 10.5883 12.8262 10.5556 12.8094C10.5229 12.8094 10.4902 12.7927 10.4575 12.7759C10.3921 12.7423 10.343 12.7087 10.294 12.6584C10.2449 12.608 10.1958 12.5576 10.1795 12.4905C10.1631 12.4569 10.1468 12.4233 10.1468 12.3897C10.1468 12.3562 10.1304 12.3058 10.1304 12.2722V12.054C10.1304 12.0204 10.1304 11.97 10.1468 11.9365C10.1468 11.9197 10.1631 11.9029 10.1631 11.8693L7.03946 10.9795V14.0686ZM15.5273 14.2364C15.511 14.3036 15.4946 14.354 15.4783 14.3875C15.4292 14.4883 15.3638 14.5722 15.2984 14.6561C15.2166 14.7233 15.1348 14.7904 15.0367 14.8408C14.9876 14.8744 14.9386 14.8744 14.8895 14.8912C14.8241 14.908 14.775 14.9247 14.726 14.9247H7.3829C7.31748 14.9247 7.26842 14.908 7.21935 14.8912C7.17029 14.8744 7.12123 14.8576 7.07217 14.8408C6.97404 14.7904 6.89227 14.7233 6.8105 14.6561C6.74508 14.589 6.67966 14.4883 6.6306 14.3875C6.61425 14.3372 6.59789 14.2868 6.58154 14.2364C6.56518 14.1861 6.54883 14.1357 6.54883 14.0686V9.53577C6.54883 9.46861 6.54883 9.41825 6.56518 9.36788C6.58154 9.31752 6.59789 9.26716 6.61425 9.21679C6.66331 9.11606 6.72873 9.03212 6.79414 8.94818C6.87591 8.84745 6.97404 8.79709 7.05581 8.74672C7.10487 8.71315 7.15394 8.69636 7.203 8.69636C7.26842 8.67957 7.31748 8.67957 7.36654 8.67957H9.1328V8.41096C9.1328 8.3606 9.1328 8.32702 9.14916 8.27666C9.14916 8.24308 9.16551 8.19272 9.18187 8.15914C9.21458 8.09199 9.26364 8.02484 9.3127 7.97447C9.37812 7.90732 9.42718 7.87374 9.4926 7.84017C9.52531 7.82338 9.57437 7.80659 9.60708 7.80659C9.6725 7.7898 9.7052 7.7898 9.75427 7.7898H12.3546C12.4037 7.7898 12.4364 7.7898 12.4854 7.80659C12.5181 7.82338 12.5508 7.84017 12.5999 7.84017C12.6653 7.87374 12.7307 7.92411 12.7798 7.97447C12.8289 8.02484 12.8779 8.09199 12.9106 8.15914C12.9106 8.20951 12.927 8.24308 12.9434 8.29345C12.9434 8.32702 12.9597 8.37739 12.9597 8.42775V8.67957H14.7096C14.775 8.67957 14.8241 8.67957 14.8732 8.69636C14.9222 8.69636 14.9713 8.72994 15.0203 8.74672C15.1185 8.7803 15.2002 8.84745 15.282 8.93139C15.3638 8.99855 15.4292 9.09927 15.4619 9.2C15.4946 9.25037 15.511 9.30073 15.5273 9.3511C15.5437 9.40146 15.5437 9.46861 15.5437 9.53577V14.0853C15.5437 14.1357 15.5437 14.1861 15.5273 14.2364ZM12.4854 8.67957V8.41096V8.39417V8.37739C12.4691 8.3606 12.4527 8.34381 12.4527 8.32702C12.4364 8.31023 12.42 8.29345 12.4037 8.29345H12.3873H12.371H9.75427H9.73791C9.73791 8.29345 9.72156 8.29345 9.7052 8.29345C9.68885 8.31023 9.6725 8.32702 9.65614 8.32702C9.63979 8.34381 9.62343 8.3606 9.62343 8.37739C9.62343 8.39417 9.62343 8.39417 9.62343 8.41096C9.62343 8.41096 9.62343 8.41096 9.62343 8.42775V8.67957H12.4854ZM10.6701 11.97C10.6538 11.97 10.6374 11.9868 10.6374 11.9868C10.6374 12.0036 10.621 12.0036 10.621 12.0204V12.2386C10.621 12.2554 10.6374 12.2722 10.6374 12.2722C10.6538 12.2722 10.6538 12.289 10.6701 12.289H11.4224C11.4388 12.289 11.4551 12.2722 11.4551 12.2554C11.4551 12.2554 11.4715 12.2386 11.4715 12.2219C11.4715 12.2219 11.4715 12.2219 11.4715 12.2051V11.9868C11.4715 11.9868 11.4715 11.9868 11.4715 11.97C11.4715 11.97 11.4551 11.9533 11.4388 11.9365C11.4551 11.9868 11.4551 11.97 11.4388 11.97C11.4388 11.97 11.4388 11.97 11.4224 11.97H10.6701Z" fill="black"/>
<path fill-rule="evenodd" clip-rule="evenodd" d="M7.33383 9.18322C7.30113 9.18322 7.28477 9.18322 7.26842 9.2C7.21935 9.21679 7.18665 9.25037 7.15394 9.28394C7.12123 9.31752 7.08852 9.36788 7.05581 9.40146C7.05581 9.43504 7.05581 9.45182 7.03946 9.46861C7.0231 9.4854 7.03946 9.50219 7.03946 9.53577V10.4759L10.6047 11.4832C10.621 11.4832 10.6538 11.4832 10.6701 11.4832H11.4224C11.4551 11.4832 11.4715 11.4832 11.4878 11.4832L15.0531 10.4591V9.51898C15.0531 9.50219 15.0531 9.4854 15.0531 9.45182C15.0531 9.41825 15.0367 9.41825 15.0367 9.38467C15.0203 9.33431 14.9876 9.30073 14.9549 9.26716C14.9222 9.23358 14.8732 9.2 14.8404 9.18322C14.8241 9.16643 14.8077 9.16643 14.775 9.16643C14.7587 9.16643 14.7423 9.16643 14.7096 9.16643H7.3829C7.36654 9.18322 7.33383 9.18322 7.33383 9.18322ZM7.03946 14.0686C7.03946 14.0853 7.03946 14.1021 7.03946 14.1189C7.03946 14.1357 7.05581 14.1525 7.05581 14.1861C7.07217 14.2364 7.10487 14.2868 7.13758 14.3036C7.17029 14.3372 7.21935 14.3707 7.25206 14.3875C7.26842 14.4043 7.28477 14.4043 7.31748 14.4043C7.33383 14.4043 7.35019 14.4211 7.36654 14.4211H14.6933C14.7096 14.4211 14.726 14.4211 14.7423 14.4043C14.775 14.4043 14.7914 14.4043 14.8077 14.3875C14.8568 14.3707 14.8895 14.3372 14.9222 14.3036C14.9549 14.27 14.9876 14.2196 15.0203 14.1861C15.0203 14.1693 15.0367 14.1525 15.0367 14.1189C15.0367 14.0853 15.0367 14.0853 15.0367 14.0686V10.9963L11.9294 11.8693C11.9294 11.8861 11.9457 11.9029 11.9457 11.9197C11.9457 11.9533 11.9621 12.0036 11.9621 12.0372V12.2554C11.9621 12.289 11.9621 12.3394 11.9457 12.373C11.9294 12.4065 11.9294 12.4401 11.913 12.4737C11.8803 12.5408 11.8476 12.5912 11.7986 12.6416C11.7495 12.6919 11.7004 12.7423 11.635 12.7591C11.6023 12.7759 11.5696 12.7927 11.5369 12.7927C11.5042 12.8262 11.4715 12.8262 11.4224 12.8262H10.6701C10.6374 12.8262 10.5883 12.8262 10.5556 12.8094C10.5229 12.8094 10.4902 12.7927 10.4575 12.7759C10.3921 12.7423 10.343 12.7087 10.294 12.6584C10.2449 12.608 10.1958 12.5576 10.1795 12.4905C10.1631 12.4569 10.1468 12.4233 10.1468 12.3897C10.1468 12.3562 10.1304 12.3058 10.1304 12.2722V12.054C10.1304 12.0204 10.1304 11.97 10.1468 11.9365C10.1468 11.9197 10.1631 11.9029 10.1631 11.8693L7.03946 10.9795V14.0686ZM15.5273 14.2364C15.511 14.3036 15.4946 14.354 15.4783 14.3875C15.4292 14.4883 15.3638 14.5722 15.2984 14.6561C15.2166 14.7233 15.1348 14.7904 15.0367 14.8408C14.9876 14.8744 14.9386 14.8744 14.8895 14.8912C14.8241 14.908 14.775 14.9247 14.726 14.9247H7.3829C7.31748 14.9247 7.26842 14.908 7.21935 14.8912C7.17029 14.8744 7.12123 14.8576 7.07217 14.8408C6.97404 14.7904 6.89227 14.7233 6.8105 14.6561C6.74508 14.589 6.67966 14.4883 6.6306 14.3875C6.61425 14.3372 6.59789 14.2868 6.58154 14.2364C6.56518 14.1861 6.54883 14.1357 6.54883 14.0686V9.53577C6.54883 9.46861 6.54883 9.41825 6.56518 9.36788C6.58154 9.31752 6.59789 9.26716 6.61425 9.21679C6.66331 9.11606 6.72873 9.03212 6.79414 8.94818C6.87591 8.84745 6.97404 8.79709 7.05581 8.74672C7.10487 8.71315 7.15394 8.69636 7.203 8.69636C7.26842 8.67957 7.31748 8.67957 7.36654 8.67957H9.1328V8.41096C9.1328 8.3606 9.1328 8.32702 9.14916 8.27666C9.14916 8.24308 9.16551 8.19272 9.18187 8.15914C9.21458 8.09199 9.26364 8.02484 9.3127 7.97447C9.37812 7.90732 9.42718 7.87374 9.4926 7.84017C9.52531 7.82338 9.57437 7.80659 9.60708 7.80659C9.6725 7.7898 9.7052 7.7898 9.75427 7.7898H12.3546C12.4037 7.7898 12.4364 7.7898 12.4854 7.80659C12.5181 7.82338 12.5508 7.84017 12.5999 7.84017C12.6653 7.87374 12.7307 7.92411 12.7798 7.97447C12.8289 8.02484 12.8779 8.09199 12.9106 8.15914C12.9106 8.20951 12.927 8.24308 12.9434 8.29345C12.9434 8.32702 12.9597 8.37739 12.9597 8.42775V8.67957H14.7096C14.775 8.67957 14.8241 8.67957 14.8732 8.69636C14.9222 8.69636 14.9713 8.72994 15.0203 8.74672C15.1185 8.7803 15.2002 8.84745 15.282 8.93139C15.3638 8.99855 15.4292 9.09927 15.4619 9.2C15.4946 9.25037 15.511 9.30073 15.5273 9.3511C15.5437 9.40146 15.5437 9.46861 15.5437 9.53577V14.0853C15.5437 14.1357 15.5437 14.1861 15.5273 14.2364ZM12.4854 8.67957V8.41096V8.39417V8.37739C12.4691 8.3606 12.4527 8.34381 12.4527 8.32702C12.4364 8.31023 12.42 8.29345 12.4037 8.29345H12.3873H12.371H9.75427H9.73791C9.73791 8.29345 9.72156 8.29345 9.7052 8.29345C9.68885 8.31023 9.6725 8.32702 9.65614 8.32702C9.63979 8.34381 9.62343 8.3606 9.62343 8.37739C9.62343 8.39417 9.62343 8.39417 9.62343 8.41096C9.62343 8.41096 9.62343 8.41096 9.62343 8.42775V8.67957H12.4854ZM10.6701 11.97C10.6538 11.97 10.6374 11.9868 10.6374 11.9868C10.6374 12.0036 10.621 12.0036 10.621 12.0204V12.2386C10.621 12.2554 10.6374 12.2722 10.6374 12.2722C10.6538 12.2722 10.6538 12.289 10.6701 12.289H11.4224C11.4388 12.289 11.4551 12.2722 11.4551 12.2554C11.4551 12.2554 11.4715 12.2386 11.4715 12.2219C11.4715 12.2219 11.4715 12.2219 11.4715 12.2051V11.9868C11.4715 11.9868 11.4715 11.9868 11.4715 11.97C11.4715 11.97 11.4551 11.9533 11.4388 11.9365C11.4551 11.9868 11.4551 11.97 11.4388 11.97C11.4388 11.97 11.4388 11.97 11.4224 11.97H10.6701Z" stroke="black" stroke-width="0.112805" mask="url(#path-7-outside-1)"/>
</svg>
