<svg width="92" height="94" viewBox="0 0 92 94" fill="none" xmlns="http://www.w3.org/2000/svg">
<path d="M89.8285 86.0645L84.1223 91.924C83.9623 92.0883 83.749 92.143 83.4823 92.143C82.949 92.0883 82.4691 91.8692 82.0958 91.4859C75.163 84.6407 74.7363 84.093 67.9102 76.4811C66.097 74.3454 66.3103 71.1692 68.3901 69.3073C69.2967 68.4859 70.47 68.0478 71.6966 68.0478C72.8698 68.0478 74.043 68.4859 74.8963 69.3073C82.3091 76.3168 82.789 76.7549 89.4552 83.874C90.1485 84.7502 90.2018 85.6811 89.8285 86.0645Z" stroke="black" stroke-width="2.5" stroke-miterlimit="10" stroke-linecap="round"/>
<path d="M24.6602 72.593C28.6065 74.0716 32.7662 74.8383 36.9792 74.8383" stroke="black" stroke-width="2.5" stroke-miterlimit="10" stroke-linecap="round"/>
<path d="M36.9795 74.8382C56.6046 74.8382 72.5501 58.4644 72.4968 38.312C72.4434 18.1596 56.5513 1.78583 36.9261 1.84059C17.301 1.84059 1.3555 18.2144 1.40882 38.3668C1.40882 53.6453 10.6881 67.3358 24.7137 72.593" stroke="black" stroke-width="2.5" stroke-miterlimit="10" stroke-linecap="round"/>
<path d="M36.9413 68.0833C52.9078 68.0833 65.8513 54.7824 65.8513 38.375C65.8513 21.9675 52.9078 8.66663 36.9413 8.66663C20.9747 8.66663 8.03125 21.9675 8.03125 38.375C8.03125 54.7824 20.9747 68.0833 36.9413 68.0833Z" stroke="black" stroke-width="2.5" stroke-miterlimit="10" stroke-linecap="round"/>
<path d="M60.6577 66.131L66.3106 71.7715" stroke="black" stroke-width="2.5" stroke-miterlimit="10" stroke-linecap="round"/>
<path d="M64.2842 62.3525L69.9371 67.993" stroke="black" stroke-width="2.5" stroke-miterlimit="10" stroke-linecap="round"/>
<mask id="path-7-outside-1" maskUnits="userSpaceOnUse" x="20.0869" y="24.9167" width="34" height="27" fill="black">
<rect fill="white" x="20.0869" y="24.9167" width="34" height="27"/>
<path fill-rule="evenodd" clip-rule="evenodd" d="M23.8705 30.8576C23.7545 30.8576 23.6965 30.8576 23.6385 30.9172C23.4646 30.9767 23.3486 31.0957 23.2326 31.2148C23.1166 31.3339 23.0006 31.5125 22.8846 31.6315C22.8846 31.7506 22.8846 31.8101 22.8266 31.8696C22.7687 31.9292 22.8266 31.9887 22.8266 32.1077V35.4414L35.4687 39.0132C35.5267 39.0132 35.6427 39.0132 35.7007 39.0132H38.3683C38.4843 39.0132 38.5422 39.0132 38.6002 39.0132L51.2423 35.3819V32.0482C51.2423 31.9887 51.2423 31.9292 51.2423 31.8101C51.2423 31.691 51.1843 31.691 51.1843 31.572C51.1263 31.3934 51.0103 31.2743 50.8944 31.1553C50.7784 31.0362 50.6044 30.9172 50.4884 30.8576C50.4304 30.7981 50.3724 30.7981 50.2565 30.7981C50.1985 30.7981 50.1405 30.7981 50.0245 30.7981H24.0445C23.9865 30.8576 23.8705 30.8576 23.8705 30.8576ZM22.8266 48.1807C22.8266 48.2402 22.8266 48.2998 22.8266 48.3593C22.8266 48.4188 22.8846 48.4783 22.8846 48.5974C22.9426 48.776 23.0586 48.9546 23.1746 49.0141C23.2906 49.1332 23.4646 49.2522 23.5805 49.3118C23.6385 49.3713 23.6965 49.3713 23.8125 49.3713C23.8705 49.3713 23.9285 49.4308 23.9865 49.4308H49.9665C50.0245 49.4308 50.0825 49.4308 50.1405 49.3713C50.2565 49.3713 50.3144 49.3713 50.3724 49.3118C50.5464 49.2522 50.6624 49.1332 50.7784 49.0141C50.8944 48.895 51.0103 48.7165 51.1263 48.5974C51.1263 48.5379 51.1843 48.4783 51.1843 48.3593C51.1843 48.2402 51.1843 48.2402 51.1843 48.1807V37.2868L40.166 40.3823C40.166 40.4419 40.224 40.5014 40.224 40.5609C40.224 40.68 40.282 40.8586 40.282 40.9776V41.7515C40.282 41.8706 40.282 42.0492 40.224 42.1682C40.166 42.2873 40.166 42.4063 40.108 42.5254C39.992 42.7635 39.876 42.9421 39.7021 43.1207C39.5281 43.2993 39.3541 43.4779 39.1222 43.5374C39.0062 43.5969 38.8902 43.6565 38.7742 43.6565C38.6582 43.7755 38.5422 43.7755 38.3683 43.7755H35.7007C35.5847 43.7755 35.4107 43.7755 35.2947 43.716C35.1788 43.716 35.0628 43.6565 34.9468 43.5969C34.7148 43.4779 34.5409 43.3588 34.3669 43.1802C34.1929 43.0016 34.0189 42.823 33.9609 42.5849C33.903 42.4659 33.845 42.3468 33.845 42.2278C33.845 42.1087 33.787 41.9301 33.787 41.811V41.0372C33.787 40.9181 33.787 40.7395 33.845 40.6205C33.845 40.5609 33.903 40.5014 33.903 40.3823L22.8266 37.2273V48.1807ZM52.9241 48.776C52.8661 49.0141 52.8081 49.1927 52.7501 49.3118C52.5761 49.6689 52.3441 49.9666 52.1122 50.2642C51.8222 50.5023 51.5323 50.7405 51.1843 50.919C51.0103 51.0381 50.8364 51.0381 50.6624 51.0976C50.4304 51.1572 50.2565 51.2167 50.0825 51.2167H24.0445C23.8125 51.2167 23.6385 51.1572 23.4646 51.0976C23.2906 51.0381 23.1166 50.9786 22.9426 50.919C22.5947 50.7405 22.3047 50.5023 22.0148 50.2642C21.7828 50.0261 21.5508 49.6689 21.3769 49.3118C21.3189 49.1332 21.2609 48.9546 21.2029 48.776C21.1449 48.5974 21.0869 48.4188 21.0869 48.1807V32.1077C21.0869 31.8696 21.0869 31.691 21.1449 31.5125C21.2029 31.3339 21.2609 31.1553 21.3189 30.9767C21.4929 30.6195 21.7248 30.3219 21.9568 30.0242C22.2467 29.667 22.5947 29.4885 22.8846 29.3099C23.0586 29.1908 23.2326 29.1313 23.4066 29.1313C23.6385 29.0717 23.8125 29.0717 23.9865 29.0717H30.2495V28.1193C30.2495 27.9407 30.2495 27.8216 30.3075 27.643C30.3075 27.524 30.3655 27.3454 30.4235 27.2263C30.5395 26.9882 30.7134 26.7501 30.8874 26.5715C31.1194 26.3334 31.2934 26.2143 31.5253 26.0953C31.6413 26.0357 31.8153 25.9762 31.9313 25.9762C32.1632 25.9167 32.2792 25.9167 32.4532 25.9167H41.6738C41.8477 25.9167 41.9637 25.9167 42.1377 25.9762C42.2537 26.0357 42.3697 26.0953 42.5436 26.0953C42.7756 26.2143 43.0076 26.3929 43.1815 26.5715C43.3555 26.7501 43.5295 26.9882 43.6455 27.2263C43.6455 27.4049 43.7035 27.524 43.7614 27.7026C43.7614 27.8216 43.8194 28.0002 43.8194 28.1788V29.0717H50.0245C50.2565 29.0717 50.4304 29.0717 50.6044 29.1313C50.7784 29.1313 50.9524 29.2503 51.1263 29.3099C51.4743 29.4289 51.7642 29.667 52.0542 29.9647C52.3441 30.2028 52.5761 30.56 52.6921 30.9172C52.8081 31.0957 52.8661 31.2743 52.9241 31.4529C52.982 31.6315 52.982 31.8696 52.982 32.1077V48.2402C52.982 48.4188 52.982 48.5974 52.9241 48.776ZM42.1377 29.0717V28.1193V28.0597V28.0002C42.0797 27.9407 42.0217 27.8812 42.0217 27.8216C41.9637 27.7621 41.9057 27.7026 41.8477 27.7026H41.7898H41.7318H32.4532H32.3952C32.3952 27.7026 32.3372 27.7026 32.2792 27.7026C32.2212 27.7621 32.1632 27.8216 32.1052 27.8216C32.0472 27.8812 31.9892 27.9407 31.9892 28.0002C31.9892 28.0597 31.9892 28.0597 31.9892 28.1193C31.9892 28.1193 31.9892 28.1193 31.9892 28.1788V29.0717H42.1377V29.0717ZM35.7007 40.7395C35.6427 40.7395 35.5847 40.799 35.5847 40.799C35.5847 40.8586 35.5267 40.8586 35.5267 40.9181V41.692C35.5267 41.7515 35.5847 41.811 35.5847 41.811C35.6427 41.811 35.6427 41.8706 35.7007 41.8706H38.3683C38.4263 41.8706 38.4843 41.811 38.4843 41.7515C38.4843 41.7515 38.5422 41.692 38.5422 41.6325C38.5422 41.6325 38.5422 41.6325 38.5422 41.5729V40.799C38.5422 40.799 38.5422 40.799 38.5422 40.7395C38.5422 40.7395 38.4843 40.68 38.4263 40.6205C38.4843 40.799 38.4843 40.7395 38.4263 40.7395C38.4263 40.7395 38.4263 40.7395 38.3683 40.7395H35.7007Z"/>
</mask>
<path fill-rule="evenodd" clip-rule="evenodd" d="M23.8705 30.8576C23.7545 30.8576 23.6965 30.8576 23.6385 30.9172C23.4646 30.9767 23.3486 31.0957 23.2326 31.2148C23.1166 31.3339 23.0006 31.5125 22.8846 31.6315C22.8846 31.7506 22.8846 31.8101 22.8266 31.8696C22.7687 31.9292 22.8266 31.9887 22.8266 32.1077V35.4414L35.4687 39.0132C35.5267 39.0132 35.6427 39.0132 35.7007 39.0132H38.3683C38.4843 39.0132 38.5422 39.0132 38.6002 39.0132L51.2423 35.3819V32.0482C51.2423 31.9887 51.2423 31.9292 51.2423 31.8101C51.2423 31.691 51.1843 31.691 51.1843 31.572C51.1263 31.3934 51.0103 31.2743 50.8944 31.1553C50.7784 31.0362 50.6044 30.9172 50.4884 30.8576C50.4304 30.7981 50.3724 30.7981 50.2565 30.7981C50.1985 30.7981 50.1405 30.7981 50.0245 30.7981H24.0445C23.9865 30.8576 23.8705 30.8576 23.8705 30.8576ZM22.8266 48.1807C22.8266 48.2402 22.8266 48.2998 22.8266 48.3593C22.8266 48.4188 22.8846 48.4783 22.8846 48.5974C22.9426 48.776 23.0586 48.9546 23.1746 49.0141C23.2906 49.1332 23.4646 49.2522 23.5805 49.3118C23.6385 49.3713 23.6965 49.3713 23.8125 49.3713C23.8705 49.3713 23.9285 49.4308 23.9865 49.4308H49.9665C50.0245 49.4308 50.0825 49.4308 50.1405 49.3713C50.2565 49.3713 50.3144 49.3713 50.3724 49.3118C50.5464 49.2522 50.6624 49.1332 50.7784 49.0141C50.8944 48.895 51.0103 48.7165 51.1263 48.5974C51.1263 48.5379 51.1843 48.4783 51.1843 48.3593C51.1843 48.2402 51.1843 48.2402 51.1843 48.1807V37.2868L40.166 40.3823C40.166 40.4419 40.224 40.5014 40.224 40.5609C40.224 40.68 40.282 40.8586 40.282 40.9776V41.7515C40.282 41.8706 40.282 42.0492 40.224 42.1682C40.166 42.2873 40.166 42.4063 40.108 42.5254C39.992 42.7635 39.876 42.9421 39.7021 43.1207C39.5281 43.2993 39.3541 43.4779 39.1222 43.5374C39.0062 43.5969 38.8902 43.6565 38.7742 43.6565C38.6582 43.7755 38.5422 43.7755 38.3683 43.7755H35.7007C35.5847 43.7755 35.4107 43.7755 35.2947 43.716C35.1788 43.716 35.0628 43.6565 34.9468 43.5969C34.7148 43.4779 34.5409 43.3588 34.3669 43.1802C34.1929 43.0016 34.0189 42.823 33.9609 42.5849C33.903 42.4659 33.845 42.3468 33.845 42.2278C33.845 42.1087 33.787 41.9301 33.787 41.811V41.0372C33.787 40.9181 33.787 40.7395 33.845 40.6205C33.845 40.5609 33.903 40.5014 33.903 40.3823L22.8266 37.2273V48.1807ZM52.9241 48.776C52.8661 49.0141 52.8081 49.1927 52.7501 49.3118C52.5761 49.6689 52.3441 49.9666 52.1122 50.2642C51.8222 50.5023 51.5323 50.7405 51.1843 50.919C51.0103 51.0381 50.8364 51.0381 50.6624 51.0976C50.4304 51.1572 50.2565 51.2167 50.0825 51.2167H24.0445C23.8125 51.2167 23.6385 51.1572 23.4646 51.0976C23.2906 51.0381 23.1166 50.9786 22.9426 50.919C22.5947 50.7405 22.3047 50.5023 22.0148 50.2642C21.7828 50.0261 21.5508 49.6689 21.3769 49.3118C21.3189 49.1332 21.2609 48.9546 21.2029 48.776C21.1449 48.5974 21.0869 48.4188 21.0869 48.1807V32.1077C21.0869 31.8696 21.0869 31.691 21.1449 31.5125C21.2029 31.3339 21.2609 31.1553 21.3189 30.9767C21.4929 30.6195 21.7248 30.3219 21.9568 30.0242C22.2467 29.667 22.5947 29.4885 22.8846 29.3099C23.0586 29.1908 23.2326 29.1313 23.4066 29.1313C23.6385 29.0717 23.8125 29.0717 23.9865 29.0717H30.2495V28.1193C30.2495 27.9407 30.2495 27.8216 30.3075 27.643C30.3075 27.524 30.3655 27.3454 30.4235 27.2263C30.5395 26.9882 30.7134 26.7501 30.8874 26.5715C31.1194 26.3334 31.2934 26.2143 31.5253 26.0953C31.6413 26.0357 31.8153 25.9762 31.9313 25.9762C32.1632 25.9167 32.2792 25.9167 32.4532 25.9167H41.6738C41.8477 25.9167 41.9637 25.9167 42.1377 25.9762C42.2537 26.0357 42.3697 26.0953 42.5436 26.0953C42.7756 26.2143 43.0076 26.3929 43.1815 26.5715C43.3555 26.7501 43.5295 26.9882 43.6455 27.2263C43.6455 27.4049 43.7035 27.524 43.7614 27.7026C43.7614 27.8216 43.8194 28.0002 43.8194 28.1788V29.0717H50.0245C50.2565 29.0717 50.4304 29.0717 50.6044 29.1313C50.7784 29.1313 50.9524 29.2503 51.1263 29.3099C51.4743 29.4289 51.7642 29.667 52.0542 29.9647C52.3441 30.2028 52.5761 30.56 52.6921 30.9172C52.8081 31.0957 52.8661 31.2743 52.9241 31.4529C52.982 31.6315 52.982 31.8696 52.982 32.1077V48.2402C52.982 48.4188 52.982 48.5974 52.9241 48.776ZM42.1377 29.0717V28.1193V28.0597V28.0002C42.0797 27.9407 42.0217 27.8812 42.0217 27.8216C41.9637 27.7621 41.9057 27.7026 41.8477 27.7026H41.7898H41.7318H32.4532H32.3952C32.3952 27.7026 32.3372 27.7026 32.2792 27.7026C32.2212 27.7621 32.1632 27.8216 32.1052 27.8216C32.0472 27.8812 31.9892 27.9407 31.9892 28.0002C31.9892 28.0597 31.9892 28.0597 31.9892 28.1193C31.9892 28.1193 31.9892 28.1193 31.9892 28.1788V29.0717H42.1377V29.0717ZM35.7007 40.7395C35.6427 40.7395 35.5847 40.799 35.5847 40.799C35.5847 40.8586 35.5267 40.8586 35.5267 40.9181V41.692C35.5267 41.7515 35.5847 41.811 35.5847 41.811C35.6427 41.811 35.6427 41.8706 35.7007 41.8706H38.3683C38.4263 41.8706 38.4843 41.811 38.4843 41.7515C38.4843 41.7515 38.5422 41.692 38.5422 41.6325C38.5422 41.6325 38.5422 41.6325 38.5422 41.5729V40.799C38.5422 40.799 38.5422 40.799 38.5422 40.7395C38.5422 40.7395 38.4843 40.68 38.4263 40.6205C38.4843 40.799 38.4843 40.7395 38.4263 40.7395C38.4263 40.7395 38.4263 40.7395 38.3683 40.7395H35.7007Z" fill="black"/>
<path fill-rule="evenodd" clip-rule="evenodd" d="M23.8705 30.8576C23.7545 30.8576 23.6965 30.8576 23.6385 30.9172C23.4646 30.9767 23.3486 31.0957 23.2326 31.2148C23.1166 31.3339 23.0006 31.5125 22.8846 31.6315C22.8846 31.7506 22.8846 31.8101 22.8266 31.8696C22.7687 31.9292 22.8266 31.9887 22.8266 32.1077V35.4414L35.4687 39.0132C35.5267 39.0132 35.6427 39.0132 35.7007 39.0132H38.3683C38.4843 39.0132 38.5422 39.0132 38.6002 39.0132L51.2423 35.3819V32.0482C51.2423 31.9887 51.2423 31.9292 51.2423 31.8101C51.2423 31.691 51.1843 31.691 51.1843 31.572C51.1263 31.3934 51.0103 31.2743 50.8944 31.1553C50.7784 31.0362 50.6044 30.9172 50.4884 30.8576C50.4304 30.7981 50.3724 30.7981 50.2565 30.7981C50.1985 30.7981 50.1405 30.7981 50.0245 30.7981H24.0445C23.9865 30.8576 23.8705 30.8576 23.8705 30.8576ZM22.8266 48.1807C22.8266 48.2402 22.8266 48.2998 22.8266 48.3593C22.8266 48.4188 22.8846 48.4783 22.8846 48.5974C22.9426 48.776 23.0586 48.9546 23.1746 49.0141C23.2906 49.1332 23.4646 49.2522 23.5805 49.3118C23.6385 49.3713 23.6965 49.3713 23.8125 49.3713C23.8705 49.3713 23.9285 49.4308 23.9865 49.4308H49.9665C50.0245 49.4308 50.0825 49.4308 50.1405 49.3713C50.2565 49.3713 50.3144 49.3713 50.3724 49.3118C50.5464 49.2522 50.6624 49.1332 50.7784 49.0141C50.8944 48.895 51.0103 48.7165 51.1263 48.5974C51.1263 48.5379 51.1843 48.4783 51.1843 48.3593C51.1843 48.2402 51.1843 48.2402 51.1843 48.1807V37.2868L40.166 40.3823C40.166 40.4419 40.224 40.5014 40.224 40.5609C40.224 40.68 40.282 40.8586 40.282 40.9776V41.7515C40.282 41.8706 40.282 42.0492 40.224 42.1682C40.166 42.2873 40.166 42.4063 40.108 42.5254C39.992 42.7635 39.876 42.9421 39.7021 43.1207C39.5281 43.2993 39.3541 43.4779 39.1222 43.5374C39.0062 43.5969 38.8902 43.6565 38.7742 43.6565C38.6582 43.7755 38.5422 43.7755 38.3683 43.7755H35.7007C35.5847 43.7755 35.4107 43.7755 35.2947 43.716C35.1788 43.716 35.0628 43.6565 34.9468 43.5969C34.7148 43.4779 34.5409 43.3588 34.3669 43.1802C34.1929 43.0016 34.0189 42.823 33.9609 42.5849C33.903 42.4659 33.845 42.3468 33.845 42.2278C33.845 42.1087 33.787 41.9301 33.787 41.811V41.0372C33.787 40.9181 33.787 40.7395 33.845 40.6205C33.845 40.5609 33.903 40.5014 33.903 40.3823L22.8266 37.2273V48.1807ZM52.9241 48.776C52.8661 49.0141 52.8081 49.1927 52.7501 49.3118C52.5761 49.6689 52.3441 49.9666 52.1122 50.2642C51.8222 50.5023 51.5323 50.7405 51.1843 50.919C51.0103 51.0381 50.8364 51.0381 50.6624 51.0976C50.4304 51.1572 50.2565 51.2167 50.0825 51.2167H24.0445C23.8125 51.2167 23.6385 51.1572 23.4646 51.0976C23.2906 51.0381 23.1166 50.9786 22.9426 50.919C22.5947 50.7405 22.3047 50.5023 22.0148 50.2642C21.7828 50.0261 21.5508 49.6689 21.3769 49.3118C21.3189 49.1332 21.2609 48.9546 21.2029 48.776C21.1449 48.5974 21.0869 48.4188 21.0869 48.1807V32.1077C21.0869 31.8696 21.0869 31.691 21.1449 31.5125C21.2029 31.3339 21.2609 31.1553 21.3189 30.9767C21.4929 30.6195 21.7248 30.3219 21.9568 30.0242C22.2467 29.667 22.5947 29.4885 22.8846 29.3099C23.0586 29.1908 23.2326 29.1313 23.4066 29.1313C23.6385 29.0717 23.8125 29.0717 23.9865 29.0717H30.2495V28.1193C30.2495 27.9407 30.2495 27.8216 30.3075 27.643C30.3075 27.524 30.3655 27.3454 30.4235 27.2263C30.5395 26.9882 30.7134 26.7501 30.8874 26.5715C31.1194 26.3334 31.2934 26.2143 31.5253 26.0953C31.6413 26.0357 31.8153 25.9762 31.9313 25.9762C32.1632 25.9167 32.2792 25.9167 32.4532 25.9167H41.6738C41.8477 25.9167 41.9637 25.9167 42.1377 25.9762C42.2537 26.0357 42.3697 26.0953 42.5436 26.0953C42.7756 26.2143 43.0076 26.3929 43.1815 26.5715C43.3555 26.7501 43.5295 26.9882 43.6455 27.2263C43.6455 27.4049 43.7035 27.524 43.7614 27.7026C43.7614 27.8216 43.8194 28.0002 43.8194 28.1788V29.0717H50.0245C50.2565 29.0717 50.4304 29.0717 50.6044 29.1313C50.7784 29.1313 50.9524 29.2503 51.1263 29.3099C51.4743 29.4289 51.7642 29.667 52.0542 29.9647C52.3441 30.2028 52.5761 30.56 52.6921 30.9172C52.8081 31.0957 52.8661 31.2743 52.9241 31.4529C52.982 31.6315 52.982 31.8696 52.982 32.1077V48.2402C52.982 48.4188 52.982 48.5974 52.9241 48.776ZM42.1377 29.0717V28.1193V28.0597V28.0002C42.0797 27.9407 42.0217 27.8812 42.0217 27.8216C41.9637 27.7621 41.9057 27.7026 41.8477 27.7026H41.7898H41.7318H32.4532H32.3952C32.3952 27.7026 32.3372 27.7026 32.2792 27.7026C32.2212 27.7621 32.1632 27.8216 32.1052 27.8216C32.0472 27.8812 31.9892 27.9407 31.9892 28.0002C31.9892 28.0597 31.9892 28.0597 31.9892 28.1193C31.9892 28.1193 31.9892 28.1193 31.9892 28.1788V29.0717H42.1377V29.0717ZM35.7007 40.7395C35.6427 40.7395 35.5847 40.799 35.5847 40.799C35.5847 40.8586 35.5267 40.8586 35.5267 40.9181V41.692C35.5267 41.7515 35.5847 41.811 35.5847 41.811C35.6427 41.811 35.6427 41.8706 35.7007 41.8706H38.3683C38.4263 41.8706 38.4843 41.811 38.4843 41.7515C38.4843 41.7515 38.5422 41.692 38.5422 41.6325C38.5422 41.6325 38.5422 41.6325 38.5422 41.5729V40.799C38.5422 40.799 38.5422 40.799 38.5422 40.7395C38.5422 40.7395 38.4843 40.68 38.4263 40.6205C38.4843 40.799 38.4843 40.7395 38.4263 40.7395C38.4263 40.7395 38.4263 40.7395 38.3683 40.7395H35.7007Z" stroke="black" stroke-width="0.4" mask="url(#path-7-outside-1)"/>
</svg>
