<svg width="57" height="57" viewBox="0 0 57 57" fill="none" xmlns="http://www.w3.org/2000/svg">
<g clip-path="url(#clip0)">
<path d="M44.8738 16.9265C42.4328 16.9265 40.4126 18.9577 40.4126 21.412C40.4126 23.8664 42.4328 25.8976 44.8738 25.8976C47.3148 25.8976 49.335 23.8664 49.335 21.412C49.335 18.9577 47.3148 16.9265 44.8738 16.9265ZM44.8738 23.4009C43.7795 23.4009 42.8957 22.5123 42.8957 21.412C42.8957 20.3118 43.7795 19.4232 44.8738 19.4232C45.9681 19.4232 46.8519 20.3118 46.8519 21.412C46.8519 22.5123 45.9681 23.4009 44.8738 23.4009Z" fill="#343434"/>
<path d="M12.2566 16.9265C9.81558 16.9265 7.79541 18.9154 7.79541 21.412C7.79541 23.9087 9.81558 25.8976 12.2566 25.8976C14.6977 25.8976 16.7178 23.8664 16.7178 21.412C16.7178 18.9577 14.7397 16.9265 12.2566 16.9265ZM12.2566 23.4009C11.1624 23.4009 10.2785 22.5123 10.2785 21.412C10.2785 20.3118 11.1624 19.4232 12.2566 19.4232C13.3509 19.4232 14.2347 20.3118 14.2347 21.412C14.2768 22.5123 13.3509 23.4009 12.2566 23.4009Z" fill="#343434"/>
<path d="M55.6903 12.7795H44.916L29.3439 0.253896C28.8809 -0.12695 28.2496 -0.12695 27.7866 0.253896L12.2145 12.7795H1.44025C0.766856 12.7795 0.219727 13.3296 0.219727 14.0067V55.5189C0.219727 56.196 0.766856 56.7461 1.44025 56.7461H39.8235C40.1602 56.7461 40.4548 56.6192 40.7073 56.3653L56.5741 40.412C56.7845 40.2004 56.9108 39.9042 56.9108 39.608C56.9108 39.5657 56.9108 13.922 56.9108 13.922C56.9108 13.3719 56.3637 12.7795 55.6903 12.7795ZM28.5863 2.83519L40.9599 12.7795H16.2127L28.5863 2.83519ZM2.70285 15.2762H54.4277V27.5056H2.70285V15.2762ZM2.70285 30.0022H54.4277V38.3808H39.8235C39.1501 38.3808 38.603 38.931 38.603 39.608V54.2918H2.70285V30.0022ZM41.0861 52.5568V40.8775H52.7021L41.0861 52.5568Z" fill="#343434"/>
</g>
<defs>
<clipPath id="clip0">
<rect width="56.6911" height="56.8307" fill="white" transform="translate(0.219727)"/>
</clipPath>
</defs>
</svg>
