<svg width="33" height="28" viewBox="0 0 33 28" fill="none" xmlns="http://www.w3.org/2000/svg">
<path d="M27.1462 23.9965L27.1453 23.9965C27.0654 23.9964 26.9899 23.9706 26.9251 23.9261L27.0101 23.8025L26.9251 23.9261C26.8609 23.8819 26.8095 23.8209 26.7719 23.7517C26.7343 23.6825 26.7103 23.6046 26.7002 23.5245C26.69 23.4443 26.6937 23.362 26.7111 23.2835L28.0814 17.1174L28.0678 12.3576L25.9753 13.5251V20.8721C25.9753 22.7354 24.9168 24.3833 23.2125 25.5593C21.5084 26.7352 19.1495 27.4475 16.513 27.4475C13.8822 27.4475 11.5279 26.7386 9.82454 25.5676C8.12104 24.3964 7.05953 22.7548 7.04952 20.8968L7.04951 20.896L7.04951 20.8959V20.8959V20.8958V20.8958V20.8958V20.8957V20.8957V20.8956V20.8956V20.8955V20.8955V20.8954V20.8954V20.8953V20.8953V20.8953V20.8952V20.8952V20.8951V20.8951V20.895V20.895V20.8949V20.8949V20.8949V20.8948V20.8948V20.8947V20.8947V20.8946V20.8946V20.8945V20.8945V20.8944V20.8944V20.8944V20.8943V20.8943V20.8942V20.8942V20.8941V20.8941V20.894V20.894V20.894V20.8939V20.8939V20.8938V20.8938V20.8937V20.8937V20.8936V20.8936V20.8935V20.8935V20.8935V20.8934V20.8934V20.8933V20.8933V20.8932V20.8932V20.8931V20.8931V20.8931V20.893V20.893V20.8929V20.8929V20.8928V20.8928V20.8927V20.8927V20.8926V20.8926V20.8926V20.8925V20.8925V20.8924V20.8924V20.8923V20.8923V20.8922V20.8922V20.8922V20.8921V20.8921V20.892V20.892V20.8919V20.8919V20.8918V20.8918V20.8918V20.8917V20.8917V20.8916V20.8916V20.8915V20.8915V20.8914V20.8914V20.8913V20.8913V20.8913V20.8912V20.8912V20.8911V20.8911V20.891V20.891V20.8909V20.8909V20.8909V20.8908V20.8908V20.8907V20.8907V20.8906V20.8906V20.8905V20.8905V20.8904V20.8904V20.8904V20.8903V20.8903V20.8902V20.8902V20.8901V20.8901V20.89V20.89V20.89V20.8899V20.8899V20.8898V20.8898V20.8897V20.8897V20.8896V20.8896V20.8895V20.8895V20.8895V20.8894V20.8894V20.8893V20.8893V20.8892V20.8892V20.8891V20.8891V20.8891V20.889V20.889V20.8889V20.8889V20.8888V20.8888V20.8887V20.8887V20.8886V20.8886V20.8886V20.8885V20.8885V20.8884V20.8884V20.8883V20.8883V20.8882V20.8882V20.8882V20.8881V20.8881V20.888V20.888V20.8879V20.8879V20.8878V20.8878V20.8877V20.8877V20.8877V20.8876V20.8876V20.8875V20.8875V20.8874V20.8874V20.8873V20.8873V20.8873V20.8872V20.8872V20.8871V20.8871V20.887V20.887V20.8869V20.8869V20.8868V20.8868V20.8868V20.8867V20.8867V20.8866V20.8866V20.8865V20.8865V20.8864V20.8864V20.8864V20.8863V20.8863V20.8862V20.8862V20.8861V20.8861V20.886V20.886V20.8859V20.8859V20.8859V20.8858V20.8858V20.8857V20.8857V20.8856V20.8856V20.8855V20.8855V20.8855V20.8854V20.8854V20.8853V20.8853V20.8852V20.8852V20.8851V20.8851V20.885V20.885V20.885V20.8849V20.8849V20.8848V20.8848V20.8847V20.8847V20.8846V20.8846V20.8846V20.8845V20.8845V20.8844V20.8844V20.8843V20.8843V20.8842V20.8842V20.8841V20.8841V20.8841V20.884V20.884V20.8839V20.8839V20.8838V20.8838V20.8837V20.8837V20.8837V20.8836V20.8836V20.8835V20.8835V20.8834V20.8834V20.8833V20.8833V20.8832V20.8832V20.8832V20.8831V20.8831V20.883V20.883V20.8829V20.8829V20.8828V20.8828V20.8828V20.8827V20.8827V20.8826V20.8826V20.8825V20.8825V20.8824V20.8824V20.8824V20.8823V20.8823V20.8822V20.8822V20.8821V20.8821V20.882V20.882V20.8819V20.8819V20.8819V20.8818V20.8818V20.8817V20.8817V20.8816V20.8816V20.8815V20.8815V20.8815V20.8814V20.8814V20.8813V20.8813V20.8812V20.8812V20.8811V20.8811V20.881V20.881V20.881V20.8809V20.8809V20.8808V20.8808V20.8807V20.8807V20.8806V20.8806V20.8806V20.8805V20.8805V20.8804V20.8804V20.8803V20.8803V20.8802V20.8802V20.8801V20.8801V20.8801V20.88V20.88V20.8799V20.8799V20.8798V20.8798V20.8797V20.8797V20.8797V20.8796V20.8796V20.8795V20.8795V20.8794V20.8794V20.8793V20.8793V20.8792V20.8792V20.8792V20.8791V20.8791V20.879V20.879V20.8789V20.8789V20.8788V20.8788V20.8788V20.8787V20.8787V20.8786V20.8786V20.8785V20.8785V20.8784V20.8784V20.8783V20.8783V20.8783V20.8782V20.8782V20.8781V20.8781V20.878V20.878V20.8779V20.8779V20.8779V20.8778V20.8778V20.8777V20.8777V20.8776V20.8776V20.8775V20.8775V20.8774V20.8774V20.8774V20.8773V20.8773V20.8772V20.8772V20.8771V20.8771V20.877V20.877V20.877V20.8769V20.8769V20.8768V20.8768V20.8767V20.8767V20.8766V20.8766V20.8765V20.8765V20.8765V20.8764V20.8764V20.8763V20.8763V20.8762V20.8762V20.8761V20.8761V20.8761V20.876V20.876V20.8759V20.8759V20.8758V20.8758V20.8757V20.8757V20.8757V20.8756V20.8756V20.8755V20.8755V20.8754V20.8754V20.8753V20.8753V20.8752V20.8752V20.8752V20.8751V20.8751V20.875V20.875V20.8749V20.8749V20.8748V20.8748V20.8748V20.8747V20.8747V20.8746V20.8746V20.8745V20.8745V20.8744V20.8744V20.8743V20.8743V20.8743V20.8742V20.8742V20.8741V20.8741V20.874V20.874V20.8739V20.8739V20.8739V20.8738V20.8738V20.8737V20.8737V20.8736V20.8736V20.8735V20.8735V20.8734V20.8734V20.8734V20.8733V20.8733V20.8732V20.8732V20.8731V20.8731V20.873V20.873V20.873V13.6284L1.11576 10.3897L1.1148 10.3892C1.02785 10.3409 0.960991 10.2629 0.916722 10.1731C0.872329 10.083 0.85 9.98015 0.85 9.87731C0.85 9.77447 0.872328 9.67163 0.916722 9.58154C0.96099 9.4917 1.02784 9.4137 1.1148 9.36541L1.11453 9.36556L1.18762 9.49655L1.1148 9.36541L27.1462 23.9965ZM27.1462 23.9965L30.0485 23.9811L30.0486 23.8311L30.0494 23.9811L30.049 23.9811C30.13 23.9811 30.2064 23.9546 30.2717 23.9089L30.1856 23.786L30.2717 23.9089C30.3364 23.8635 30.388 23.801 30.4252 23.7302C30.4624 23.6594 30.4856 23.5798 30.4945 23.4984C30.5033 23.417 30.498 23.3336 30.4784 23.2546C30.4784 23.2545 30.4784 23.2544 30.4784 23.2544L28.984 17.118L28.9693 11.8579L31.8859 10.2304L31.8862 10.231M27.1462 23.9965L31.8862 10.231M16.66 0.898139L16.6598 0.898042L16.588 1.02971C16.5156 0.990097 16.4349 0.990097 16.3625 1.02971L16.66 0.898139ZM16.66 0.898139L31.8818 9.20572C31.8819 9.20582 31.8821 9.20592 31.8823 9.20602C31.9657 9.25084 32.0309 9.32312 32.0755 9.40697C32.1203 9.4912 32.145 9.58784 32.1493 9.68556C32.1536 9.78332 32.1376 9.88221 32.1012 9.97124C32.0662 10.0571 32.0119 10.1345 31.9396 10.19M16.66 0.898139L31.9396 10.19M31.8862 10.231L31.8973 10.2234M31.8862 10.231L31.8973 10.2234M31.8973 10.2234C31.9121 10.2132 31.9263 10.2021 31.9396 10.19M31.8973 10.2234L31.9396 10.19M16.5224 18.5944L16.5222 18.7444C16.5885 18.7445 16.6523 18.7267 16.7094 18.6946C16.7095 18.6945 16.7096 18.6945 16.7097 18.6944L25.0733 14.0285V20.8721C25.0733 22.3208 24.1209 23.681 22.5576 24.6867C20.9971 25.6906 18.8483 26.3255 16.513 26.3255C14.1777 26.3255 12.0288 25.6906 10.4681 24.6867C8.90459 23.681 7.95213 22.3208 7.95213 20.8721V14.1196L16.3387 18.6971L16.3391 18.6973C16.3955 18.7279 16.4581 18.7446 16.5229 18.7444L16.5224 18.5944ZM16.5224 18.5944C16.5614 18.5945 16.6 18.584 16.636 18.5637M16.5224 18.5944C16.4841 18.5946 16.4462 18.5847 16.4106 18.5654L16.636 18.5637M16.636 18.5637L25.0733 13.8567L16.636 18.5637ZM29.4408 22.8601L27.7386 22.8692L28.5511 19.2119L29.4408 22.8601ZM16.477 2.02306L30.5849 9.72224L16.5204 17.5653L2.41301 9.86608L16.477 2.02306Z" fill="#343434" stroke="#343434" stroke-width="0.3"/>
</svg>
