<svg width="33" height="28" viewBox="0 0 33 28" fill="none" xmlns="http://www.w3.org/2000/svg">
<mask id="path-1-outside-1" maskUnits="userSpaceOnUse" x="0" y="0" width="33" height="28" fill="black">
<rect fill="white" width="33" height="28"/>
<path d="M16.513 27.2975C21.7349 27.2975 25.8253 24.4749 25.8253 20.8721V13.4371L28.217 12.1025L28.2314 17.1337L26.8576 23.3161C26.8439 23.3775 26.841 23.4424 26.849 23.5056C26.857 23.5688 26.8758 23.6286 26.9038 23.6802C26.9317 23.7317 26.9682 23.7736 27.0101 23.8025C27.0521 23.8314 27.0984 23.8464 27.1454 23.8465L30.0486 23.8311C30.0963 23.8312 30.1432 23.8157 30.1856 23.786C30.228 23.7563 30.2646 23.7133 30.2924 23.6604C30.3202 23.6076 30.3383 23.5465 30.3454 23.4821C30.3524 23.4178 30.3481 23.3521 30.3328 23.2905L28.834 17.1363L28.819 11.77L31.8128 10.0994C31.8234 10.0922 31.8336 10.0839 31.8434 10.0747C31.8934 10.0379 31.9347 9.98235 31.9624 9.91457C31.99 9.84679 32.0029 9.76962 31.9995 9.69216C31.996 9.61471 31.9765 9.54021 31.9431 9.47745C31.9097 9.41469 31.8638 9.36628 31.8109 9.33794L16.588 1.02971C16.5156 0.990097 16.4349 0.990097 16.3625 1.02971L1.18762 9.49655C1.13216 9.52734 1.08469 9.58002 1.05127 9.64784C1.01785 9.71566 1 9.79556 1 9.87731C1 9.95905 1.01785 10.0389 1.05127 10.1068C1.08469 10.1746 1.13216 10.2273 1.18762 10.2581L7.19951 13.5394V20.873C7.19951 20.8806 7.19951 20.8883 7.19951 20.896C7.21887 24.4886 11.3023 27.2975 16.513 27.2975ZM27.5513 23.0202L28.5443 18.5509L29.6315 23.0091L27.5513 23.0202ZM7.80213 13.8668L16.4106 18.5654C16.4462 18.5847 16.4841 18.5946 16.5224 18.5944C16.5614 18.5945 16.6 18.584 16.636 18.5637L25.2233 13.773V20.8721C25.2233 23.9096 21.2347 26.4755 16.513 26.4755C11.7913 26.4755 7.80213 23.9096 7.80213 20.8721V13.8668ZM30.8954 9.72082L16.5211 17.7366L2.10249 9.8675L16.4762 1.85175L30.8954 9.72082Z"/>
</mask>
<path d="M16.513 27.2975C21.7349 27.2975 25.8253 24.4749 25.8253 20.8721V13.4371L28.217 12.1025L28.2314 17.1337L26.8576 23.3161C26.8439 23.3775 26.841 23.4424 26.849 23.5056C26.857 23.5688 26.8758 23.6286 26.9038 23.6802C26.9317 23.7317 26.9682 23.7736 27.0101 23.8025C27.0521 23.8314 27.0984 23.8464 27.1454 23.8465L30.0486 23.8311C30.0963 23.8312 30.1432 23.8157 30.1856 23.786C30.228 23.7563 30.2646 23.7133 30.2924 23.6604C30.3202 23.6076 30.3383 23.5465 30.3454 23.4821C30.3524 23.4178 30.3481 23.3521 30.3328 23.2905L28.834 17.1363L28.819 11.77L31.8128 10.0994C31.8234 10.0922 31.8336 10.0839 31.8434 10.0747C31.8934 10.0379 31.9347 9.98235 31.9624 9.91457C31.99 9.84679 32.0029 9.76962 31.9995 9.69216C31.996 9.61471 31.9765 9.54021 31.9431 9.47745C31.9097 9.41469 31.8638 9.36628 31.8109 9.33794L16.588 1.02971C16.5156 0.990097 16.4349 0.990097 16.3625 1.02971L1.18762 9.49655C1.13216 9.52734 1.08469 9.58002 1.05127 9.64784C1.01785 9.71566 1 9.79556 1 9.87731C1 9.95905 1.01785 10.0389 1.05127 10.1068C1.08469 10.1746 1.13216 10.2273 1.18762 10.2581L7.19951 13.5394V20.873C7.19951 20.8806 7.19951 20.8883 7.19951 20.896C7.21887 24.4886 11.3023 27.2975 16.513 27.2975ZM27.5513 23.0202L28.5443 18.5509L29.6315 23.0091L27.5513 23.0202ZM7.80213 13.8668L16.4106 18.5654C16.4462 18.5847 16.4841 18.5946 16.5224 18.5944C16.5614 18.5945 16.6 18.584 16.636 18.5637L25.2233 13.773V20.8721C25.2233 23.9096 21.2347 26.4755 16.513 26.4755C11.7913 26.4755 7.80213 23.9096 7.80213 20.8721V13.8668ZM30.8954 9.72082L16.5211 17.7366L2.10249 9.8675L16.4762 1.85175L30.8954 9.72082Z" fill="#343434"/>
<path d="M16.513 27.2975C21.7349 27.2975 25.8253 24.4749 25.8253 20.8721V13.4371L28.217 12.1025L28.2314 17.1337L26.8576 23.3161C26.8439 23.3775 26.841 23.4424 26.849 23.5056C26.857 23.5688 26.8758 23.6286 26.9038 23.6802C26.9317 23.7317 26.9682 23.7736 27.0101 23.8025C27.0521 23.8314 27.0984 23.8464 27.1454 23.8465L30.0486 23.8311C30.0963 23.8312 30.1432 23.8157 30.1856 23.786C30.228 23.7563 30.2646 23.7133 30.2924 23.6604C30.3202 23.6076 30.3383 23.5465 30.3454 23.4821C30.3524 23.4178 30.3481 23.3521 30.3328 23.2905L28.834 17.1363L28.819 11.77L31.8128 10.0994C31.8234 10.0922 31.8336 10.0839 31.8434 10.0747C31.8934 10.0379 31.9347 9.98235 31.9624 9.91457C31.99 9.84679 32.0029 9.76962 31.9995 9.69216C31.996 9.61471 31.9765 9.54021 31.9431 9.47745C31.9097 9.41469 31.8638 9.36628 31.8109 9.33794L16.588 1.02971C16.5156 0.990097 16.4349 0.990097 16.3625 1.02971L1.18762 9.49655C1.13216 9.52734 1.08469 9.58002 1.05127 9.64784C1.01785 9.71566 1 9.79556 1 9.87731C1 9.95905 1.01785 10.0389 1.05127 10.1068C1.08469 10.1746 1.13216 10.2273 1.18762 10.2581L7.19951 13.5394V20.873C7.19951 20.8806 7.19951 20.8883 7.19951 20.896C7.21887 24.4886 11.3023 27.2975 16.513 27.2975ZM27.5513 23.0202L28.5443 18.5509L29.6315 23.0091L27.5513 23.0202ZM7.80213 13.8668L16.4106 18.5654C16.4462 18.5847 16.4841 18.5946 16.5224 18.5944C16.5614 18.5945 16.6 18.584 16.636 18.5637L25.2233 13.773V20.8721C25.2233 23.9096 21.2347 26.4755 16.513 26.4755C11.7913 26.4755 7.80213 23.9096 7.80213 20.8721V13.8668ZM30.8954 9.72082L16.5211 17.7366L2.10249 9.8675L16.4762 1.85175L30.8954 9.72082Z" stroke="#343434" stroke-width="0.6" mask="url(#path-1-outside-1)"/>
</svg>
