<svg width="32" height="26" viewBox="0 0 32 26" fill="none" xmlns="http://www.w3.org/2000/svg">
<path d="M1.36312 22.027H30.8363C30.9052 22.027 30.9712 22.0183 31.035 21.9936C31.0993 21.9688 31.1562 21.9297 31.2098 21.8758C31.3191 21.7659 31.3599 21.6494 31.3599 21.5315V19.6451C31.3599 19.4877 31.2812 19.3725 31.2098 19.3007C31.1005 19.1908 30.9843 19.1495 30.8666 19.1495H1.39338C1.32427 19.1495 1.26333 19.1582 1.20429 19.1852C1.14655 19.2116 1.09871 19.2519 1.05014 19.3007C0.940876 19.4106 0.9 19.5271 0.9 19.6451V21.5315C0.9 21.6684 0.934108 21.7896 1.01988 21.8758C1.12915 21.9857 1.24534 22.027 1.36312 22.027ZM30.3732 20.1406V21.0663H1.8565V20.1406H30.3732Z" fill="#343434" stroke="black" stroke-width="0.2"/>
<path d="M14.4359 16.7329H27.9621C28.7395 16.7329 29.3949 16.1135 29.3633 15.3226V6.07518C29.3633 5.29025 28.7441 4.66688 27.9621 4.66688H14.4359C13.654 4.66688 13.0348 5.29025 13.0348 6.07518V15.3246C13.0348 16.1095 13.654 16.7329 14.4359 16.7329ZM13.961 6.07518C13.961 5.79862 14.1856 5.59709 14.4359 5.59709H27.9621C28.2359 5.59709 28.4371 5.82217 28.4371 6.07518V15.3246C28.4371 15.6012 28.2124 15.8027 27.9621 15.8027H14.4359C14.1622 15.8027 13.961 15.5776 13.961 15.3246V6.07518Z" fill="#343434" stroke="black" stroke-width="0.2"/>
<path d="M18.8836 18.741H23.5436C23.6551 18.741 23.7793 18.7031 23.8633 18.583C23.9676 18.4751 24.0068 18.361 24.0068 18.2455V16.2374C24.0068 16.08 23.928 15.9649 23.8566 15.893C23.7474 15.7832 23.6312 15.7419 23.5134 15.7419H18.8836C18.7265 15.7419 18.6117 15.8213 18.5404 15.893C18.4311 16.0029 18.3902 16.1195 18.3902 16.2374V18.2455C18.3902 18.4029 18.4689 18.518 18.5404 18.5898C18.6496 18.6997 18.7658 18.741 18.8836 18.741ZM23.0503 16.7634V17.8108H19.377V16.7634H23.0503Z" fill="#343434" stroke="black" stroke-width="0.2"/>
<path d="M17.9356 18.771L17.9355 18.7715H17.9456H24.3909C24.6196 18.7715 24.8163 18.8687 24.956 19.0279H17.3709C17.5168 18.8467 17.7297 18.7503 17.9356 18.771ZM16.7352 19.9581H25.6316C25.7617 19.9581 25.8814 19.9109 25.9637 19.8178C26.0452 19.7257 26.0807 19.5991 26.0644 19.4565C26.0613 18.5223 25.3222 17.7804 24.3909 17.7804H17.9153C16.982 17.7804 16.2418 18.5255 16.2418 19.4625C16.2418 19.6199 16.3205 19.7351 16.3919 19.8069C16.5012 19.9168 16.6174 19.9581 16.7352 19.9581Z" fill="#343434" stroke="black" stroke-width="0.2"/>
<path d="M3.36018 20.1406H10.1687C10.3044 20.1406 10.4323 20.106 10.5186 19.9826C10.6228 19.8747 10.662 19.7606 10.662 19.6451V19.5538C10.662 18.2203 9.58808 17.1719 8.29254 17.1719H5.23629C3.90877 17.1719 2.8668 18.2525 2.8668 19.5538V19.6451C2.8668 19.8025 2.94551 19.9176 3.01693 19.9894C3.12621 20.0993 3.2424 20.1406 3.36018 20.1406ZM9.64754 19.18H3.87795C4.03689 18.5908 4.5973 18.1602 5.23842 18.1325H8.29254C8.92806 18.1325 9.46724 18.5578 9.64754 19.18Z" fill="#343434" stroke="black" stroke-width="0.2"/>
<path d="M5.77623 17.4515L5.77575 17.4516L5.77945 17.4609C5.84948 17.637 5.9996 17.7978 6.23549 17.7978C6.25951 17.7978 6.27945 17.7918 6.2921 17.7873C6.30005 17.7845 6.31085 17.78 6.31739 17.7773C6.31938 17.7764 6.32098 17.7758 6.32198 17.7754C6.33545 17.77 6.34451 17.7674 6.35653 17.7674H6.37284L6.38831 17.7622C6.61492 17.6862 6.77148 17.4535 6.6948 17.1837L6.69466 17.1832L3.86594 7.40994L7.88127 3.07132C7.99974 2.95102 8.03388 2.76193 7.99683 2.61293C7.9548 2.44391 7.79553 2.3328 7.65182 2.29667C7.56715 2.27539 7.47841 2.28719 7.40109 2.31463C7.32334 2.34222 7.24984 2.38811 7.19342 2.44484L7.19338 2.4448L7.191 2.44736L3.01623 6.94918C2.89773 7.06948 2.86358 7.2586 2.90063 7.40761L2.90057 7.40762L2.90154 7.41101L5.77623 17.4515Z" fill="#343434" stroke="black" stroke-width="0.2"/>
<path d="M13.133 4.37555L13.133 4.37557L13.1351 4.37488C13.3614 4.29904 13.5181 4.03628 13.4418 3.79678C13.1932 2.73932 12.5422 1.8339 11.6391 1.33275C10.8603 0.894352 9.92389 0.768037 9.04816 1.051C7.17633 1.64713 6.0665 3.83289 6.59064 5.9148C6.63243 6.11763 6.82858 6.26646 7.0513 6.26646C7.05214 6.26646 7.05301 6.26646 7.05391 6.26647C7.0829 6.26651 7.13811 6.26659 7.19174 6.22531L13.133 4.37555ZM9.32101 1.97168L9.32104 1.9718L9.32582 1.97C9.55373 1.88407 9.78321 1.85473 10.0168 1.85473C10.4209 1.85473 10.8281 1.97076 11.1795 2.14695C11.7055 2.45403 12.1547 2.97453 12.3985 3.60766L7.40843 5.18291C7.26072 3.74439 8.07674 2.36975 9.32101 1.97168Z" fill="#343434" stroke="black" stroke-width="0.2"/>
<path d="M2.87679 25.1H5.11603C5.18495 25.1 5.25089 25.0913 5.31474 25.0666C5.37903 25.0418 5.43592 25.0027 5.48953 24.9488C5.59879 24.8389 5.63967 24.7224 5.63967 24.6045V21.5315C5.63967 21.3741 5.56095 21.2589 5.48953 21.1871C5.38025 21.0772 5.26407 21.0359 5.14629 21.0359H2.90705C2.83794 21.0359 2.777 21.0446 2.71797 21.0716C2.66023 21.098 2.61238 21.1383 2.56381 21.1871C2.45455 21.297 2.41367 21.4135 2.41367 21.5315V24.6349C2.41367 24.7459 2.45013 24.8649 2.53355 24.9488C2.64282 25.0587 2.75901 25.1 2.87679 25.1ZM4.65291 22.027V24.1393H3.33991V22.027H4.65291Z" fill="#343434" stroke="black" stroke-width="0.2"/>
<path d="M27.327 25.1H29.5662C29.7019 25.1 29.8298 25.0653 29.9162 24.942C30.0204 24.8341 30.0596 24.7199 30.0596 24.6045V21.5315C30.0596 21.3741 29.9809 21.2589 29.9095 21.1871C29.8002 21.0772 29.684 21.0359 29.5662 21.0359H27.327C27.2579 21.0359 27.1969 21.0446 27.1379 21.0716C27.0801 21.098 27.0323 21.1383 26.9837 21.1871C26.8745 21.297 26.8336 21.4135 26.8336 21.5315V24.6045C26.8336 24.7618 26.9123 24.877 26.9837 24.9488C27.093 25.0587 27.2092 25.1 27.327 25.1ZM29.1031 22.027V24.1393H27.7901V22.027H29.1031Z" fill="#343434" stroke="black" stroke-width="0.2"/>
</svg>
