<svg width="97" height="33" viewBox="0 0 97 33" fill="none" xmlns="http://www.w3.org/2000/svg">
<g clip-path="url(#clip0)">
<path d="M16.4776 8.2433L16.953 6.79019H7.22068L6.75425 8.22537L9.20303 8.37785C9.80401 8.37785 9.91163 8.53035 9.9206 8.53932C9.94946 8.62977 9.94946 8.72694 9.9206 8.81739L3.96462 29.17C3.83904 29.6095 3.60583 29.8248 2.65503 29.8696L0.394623 30.0042L0.0268555 31.4573H9.72326L10.1897 30.0132L7.71403 29.8696C7.07717 29.8696 6.96953 29.7082 6.96056 29.6902C6.95159 29.6723 6.96056 29.5916 6.96056 29.4301L12.9255 9.06854C13.0601 8.63799 13.2933 8.41374 14.2441 8.36889L16.4776 8.2433Z" fill="#AF8F72"/>
<path d="M35.8524 25.4475L34.5159 24.8106L34.3186 25.1963C32.2466 29.17 30.031 30.2374 29.0443 30.2374C28.8829 30.2374 28.7752 30.2374 28.7483 30.1656C28.7214 30.0939 28.551 29.8068 29.1161 28.4613L32.9821 19.1327C34.6325 15.1411 34.9734 12.6475 34.0674 11.293C33.7819 10.9078 33.401 10.6034 32.9623 10.41C32.5235 10.2165 32.0419 10.1407 31.5648 10.1898C29.0981 10.1898 26.6494 11.903 23.8687 15.5717C23.0345 16.6929 22.0299 18.1819 21.0163 19.8593L24.4966 10.2615L17.832 11.015L17.2759 12.3963L20.6306 12.6654L13.7148 32.1031L16.9709 31.3317L17.0516 31.0985C18.9994 26.0445 21.6117 21.2724 24.8195 16.9082C27.1607 13.8136 29.0802 12.2439 30.5333 12.2439C31.0805 12.2439 31.2688 12.4322 31.3675 12.5757C32.112 13.688 30.5333 17.4912 30.0131 18.747L26.1829 28.1654C25.6089 29.5557 25.5461 30.5693 26.0035 31.2599C26.2413 31.5718 26.5548 31.8179 26.9142 31.9749C27.2737 32.1318 27.6672 32.1945 28.0576 32.1569C30.91 32.1569 33.6189 29.9324 35.691 25.878L35.8524 25.4475Z" fill="#AF8F72"/>
<path d="M63.5243 29.8338C62.6273 29.8338 62.3582 29.5557 62.1968 29.1072L51.6483 -0.026886H50.4014L38.6509 29.1072C38.3998 29.6723 37.6553 29.7979 37.2247 29.8158L34.749 29.9683L35.3679 31.4035H44.3378L43.97 29.9414L41.4316 29.8338C41.2263 29.8244 41.0223 29.7974 40.8216 29.753C40.8216 29.753 40.8216 29.6544 40.8934 29.466L44.885 19.5992H55.7295L59.2098 29.466C59.2484 29.5506 59.2698 29.6421 59.2726 29.7351C59.2726 29.7351 59.165 29.8517 58.5191 29.8786L56.0435 30.0311L56.5637 31.4752H66.3319L65.8565 30.0132L63.5243 29.8338ZM54.8864 17.6437H45.5398L50.518 5.26532L54.8864 17.6437Z" fill="#AF8F72"/>
<path d="M85.5458 25.2771L83.9491 24.6761L84.0119 25.3937C84.2003 27.385 83.9043 28.9099 83.1957 29.6902C83.0551 29.8559 82.8807 29.9897 82.6843 30.0825C82.4878 30.1753 82.2738 30.2251 82.0565 30.2284C81.7067 30.2284 81.312 30.2284 80.7738 28.1564L76.2889 10.2884L73.4634 10.7549L73.571 11.2213C74.6734 15.8933 74.9917 20.716 74.5129 25.4924C74.0823 28.5511 73.2302 30.0401 71.9026 30.0401C70.1087 30.0401 69.122 27.4119 68.1532 23.1602L65.1573 10.1449L58.8784 10.8894L59.1744 12.2708L62.6726 12.5309L65.1752 23.3396C66.2247 27.8963 67.7406 32.1121 71.6336 32.1121C74.9793 32.1121 75.8045 28.874 76.1185 26.4432C76.2932 24.9939 76.3682 23.5344 76.3427 22.0749L77.9304 28.4345C78.343 30.1567 79.1413 32.13 81.6798 32.13C82.2062 32.158 82.7322 32.0696 83.2206 31.8711C83.7089 31.6727 84.1476 31.3691 84.5053 30.9819C85.5009 29.8876 85.8687 28.0577 85.6175 25.6L85.5458 25.2771Z" fill="#AF8F72"/>
<path d="M96.9282 25.7345V25.4565L95.3585 24.8555L95.4213 25.5731C95.5917 27.4836 95.3047 28.9547 94.6051 29.7171C94.4655 29.8817 94.2926 30.0148 94.0977 30.1076C93.9029 30.2003 93.6906 30.2507 93.4748 30.2553C93.1788 30.2553 92.7214 30.2553 92.246 28.2192L88.7746 13.2844H94.2373L93.6812 11.1406H88.2992L87.2946 6.79019H84.4243L85.4289 11.1406H80.8901L81.4463 13.2844H85.9312L89.4653 28.4883C89.8241 30.049 90.5955 32.13 93.1161 32.13C93.6311 32.1546 94.1453 32.0662 94.6226 31.8709C95.0999 31.6757 95.5286 31.3783 95.8788 30.9998C96.8027 29.9145 97.1794 28.1474 96.9282 25.7345Z" fill="#AF8F72"/>
</g>
<defs>
<clipPath id="clip0">
<rect width="97" height="32.13" fill="white"/>
</clipPath>
</defs>
</svg>
