<svg width="75" height="85" viewBox="0 0 75 85" fill="none" xmlns="http://www.w3.org/2000/svg">
<path d="M59.6348 72.9299C58.34 72.8117 57.0361 72.8553 55.7515 73.0599C53.2177 73.4899 50.7421 75.2399 48.8684 76.7299C48.3344 77.1499 47.8199 77.5699 47.3345 77.9699C46.8491 78.3699 46.3151 78.8099 45.8588 79.1699C45.4025 79.5299 44.9463 79.8499 44.5385 80.1099C42.4459 81.5171 39.9639 82.1809 37.4709 81.9999H37.1214C34.6373 82.1588 32.1704 81.4814 30.0927 80.0699C29.7432 79.8299 29.2772 79.5099 28.7724 79.0699C28.2675 78.6299 27.8015 78.2899 27.2773 77.8499C26.753 77.4099 26.3065 77.0299 25.7822 76.6199C23.9182 75.1299 21.4621 73.3699 18.9282 72.9099C17.6442 72.7008 16.3405 72.6504 15.0449 72.7599" stroke="#343434" stroke-width="4" stroke-miterlimit="10" stroke-linecap="round"/>
<path d="M10.6665 81.44C4.0552 79.89 1.37573 72.79 2.59896 66.82C3.44358 62.65 7.8414 58.2 11.7247 54.26C14.8022 51.14 17.4623 48.44 18.6661 45.75C20.5495 41.53 20.9184 35.54 21.2388 30.26C21.3455 28.35 21.462 26.55 21.6271 25.18V24.79C21.7436 23.79 22.0154 21.57 22.5008 19.01C23.3843 14.33 29.2966 2.01001 37.2573 2.01001C45.3928 2.01001 51.3148 15.18 52.0818 19.36C52.5284 21.79 52.7808 23.91 52.8876 24.81L52.9361 25.18C53.1011 26.56 53.2176 28.36 53.3244 30.27C53.6448 35.55 54.0137 41.54 55.8971 45.76C57.1009 48.45 59.7804 51.15 62.8385 54.27C66.7218 58.21 71.1196 62.66 71.9642 66.83C73.1875 72.83 70.508 79.9 63.8967 81.45" stroke="#343434" stroke-width="4" stroke-miterlimit="10" stroke-linecap="round"/>
</svg>
