<svg width="25" height="29" viewBox="0 0 25 29" fill="none" xmlns="http://www.w3.org/2000/svg">
<path d="M19.7946 24.9666C19.363 24.9272 18.9283 24.9417 18.5 25.0099C17.6553 25.1533 16.83 25.7367 16.2054 26.2334C16.0274 26.3734 15.8559 26.5134 15.694 26.6468C15.5322 26.7801 15.3542 26.9268 15.2021 27.0468C15.05 27.1668 14.8979 27.2735 14.762 27.3602C14.0643 27.8293 13.2369 28.0506 12.4058 27.9903H12.2893C11.4612 28.0432 10.6388 27.8174 9.94615 27.3469C9.82964 27.2669 9.67429 27.1602 9.506 27.0135C9.3377 26.8668 9.18235 26.7535 9.00759 26.6068C8.83282 26.4601 8.68394 26.3334 8.50918 26.1967C7.88778 25.7 7.06897 25.1133 6.22426 24.9599C5.79621 24.8902 5.3616 24.8734 4.92969 24.9099" stroke="#343434" stroke-width="1.33348" stroke-miterlimit="10" stroke-linecap="round"/>
<path d="M3.46938 27.8036C1.26537 27.2869 0.372116 24.92 0.779906 22.9298C1.06147 21.5396 2.52758 20.0561 3.82215 18.7426C4.84809 17.7025 5.73488 16.8024 6.13619 15.9057C6.76406 14.4988 6.88704 12.502 6.99385 10.7418C7.02945 10.105 7.06828 9.50496 7.1233 9.04824V8.91823C7.16214 8.58486 7.25276 7.84478 7.41458 6.99135C7.7091 5.43118 9.68008 1.32407 12.334 1.32407C15.0461 1.32407 17.0203 5.71455 17.276 7.10803C17.4249 7.91812 17.509 8.62486 17.5446 8.9249L17.5608 9.04824C17.6158 9.50829 17.6546 10.1084 17.6902 10.7451C17.797 12.5053 17.92 14.5022 18.5479 15.909C18.9492 16.8058 19.8425 17.7059 20.8619 18.746C22.1565 20.0594 23.6226 21.5429 23.9042 22.9331C24.312 24.9333 23.4187 27.2902 21.2147 27.807" stroke="#343434" stroke-width="1.33348" stroke-miterlimit="10" stroke-linecap="round"/>
</svg>
