<svg width="103" height="83" viewBox="0 0 103 83" fill="none" xmlns="http://www.w3.org/2000/svg">
<path d="M15.578 77.2243L29.3777 73.06L30.6272 77.2008C31.2882 79.1483 32.6798 80.763 34.5085 81.7041C36.3372 82.6451 38.4599 82.839 40.4289 82.2449C42.3978 81.6507 44.059 80.315 45.0619 78.5194C46.0647 76.7239 46.3309 74.609 45.8042 72.6209L44.5547 68.4801L73.5225 59.7386C73.8878 59.6284 74.1944 59.3775 74.3747 59.0413C74.5551 58.7051 74.5945 58.3109 74.4842 57.9457L73.0269 53.1162C72.6404 51.8354 72.7785 50.4534 73.4109 49.2744C74.0433 48.0954 75.1181 47.2159 76.399 46.8294C77.6798 46.4429 79.0617 46.581 80.2408 47.2134C81.4198 47.8458 82.2993 48.9206 82.6858 50.2015L84.1431 55.0309C84.2534 55.3962 84.5042 55.7028 84.8404 55.8831C85.1767 56.0635 85.5708 56.1029 85.9361 55.9926L101.113 51.4127C101.478 51.3025 101.785 51.0517 101.965 50.7154C102.146 50.3792 102.185 49.9851 102.075 49.6198L89.169 6.85221C89.0588 6.48693 88.808 6.18039 88.4717 6.00003C88.1355 5.81968 87.7413 5.78029 87.3761 5.89052L73.5764 10.0548L72.3268 5.914C71.6659 3.96647 70.2743 2.35182 68.4456 1.41075C66.6169 0.469667 64.4941 0.275755 62.5252 0.869914C60.5562 1.46407 58.8951 2.79984 57.8922 4.59539C56.8893 6.39094 56.6231 8.50585 57.1498 10.4939L58.3994 14.6347L29.4315 23.3762C29.0662 23.4864 28.7597 23.7373 28.5793 24.0735C28.399 24.4097 28.3596 24.8039 28.4698 25.1691L29.9272 29.9986C30.3137 31.2794 30.1755 32.6614 29.5432 33.8404C28.9108 35.0194 27.8359 35.8989 26.5551 36.2854C25.2742 36.6719 23.8923 36.5338 22.7133 35.9014C21.5343 35.269 20.6548 34.1942 20.2683 32.9133L18.8109 28.0839C18.7007 27.7186 18.4498 27.412 18.1136 27.2317C17.7774 27.0513 17.3832 27.0119 17.018 27.1222L1.84094 31.7021C1.66007 31.7567 1.49172 31.8463 1.3455 31.966C1.19928 32.0856 1.07807 32.2329 0.988768 32.3994C0.899469 32.5659 0.843834 32.7483 0.82504 32.9363C0.806253 33.1243 0.82467 33.3142 0.87925 33.495L13.785 76.2626C13.8396 76.4435 13.9293 76.6118 14.0489 76.758C14.1686 76.9042 14.3158 77.0255 14.4823 77.1148C14.6488 77.2041 14.8313 77.2597 15.0193 77.2785C15.2073 77.2973 15.3971 77.2789 15.578 77.2243ZM60.6168 16.971C60.9821 16.8608 61.2886 16.61 61.4689 16.2737C61.6493 15.9375 61.6887 15.5434 61.5785 15.1781L59.9133 9.65998C59.5268 8.37914 59.6649 6.9972 60.2973 5.8182C60.9297 4.63919 62.0045 3.75969 63.2854 3.37317C64.5662 2.98666 65.9482 3.12479 67.1272 3.75718C68.3062 4.38957 69.1857 5.46441 69.5722 6.74526L71.2374 12.2634C71.3476 12.6287 71.5984 12.9352 71.9347 13.1155C72.2709 13.2959 72.665 13.3353 73.0303 13.2251L86.83 9.06079L98.9045 49.0737L86.4822 52.8224L85.4404 49.3702C84.7795 47.4227 83.3878 45.808 81.5591 44.867C79.7304 43.9259 77.6077 43.732 75.6388 44.3261C73.6698 44.9203 72.0087 46.2561 71.0058 48.0516C70.0029 49.8472 69.7367 51.9621 70.2634 53.9501L71.3051 57.4023L58.8916 61.1482L55.143 48.7259L58.5951 47.6841C60.6065 47.0772 62.2944 45.696 63.2875 43.8445C64.2806 41.993 64.4975 39.8228 63.8906 37.8114C63.2836 35.8 61.9024 34.1121 60.0509 33.119C58.1994 32.1259 56.0293 31.909 54.0179 32.516L50.5657 33.5577L46.8171 21.1353L60.6168 16.971ZM4.04952 34.0411L16.4719 30.2924L17.5136 33.7446C18.1746 35.6921 19.5662 37.3068 21.3949 38.2478C23.2236 39.1889 25.3463 39.3828 27.3153 38.7887C29.2842 38.1945 30.9454 36.8587 31.9483 35.0632C32.9511 33.2676 33.2173 31.1527 32.6906 29.1647L31.6489 25.7125L44.0624 21.9666L48.2347 35.7927C48.3505 36.1513 48.6023 36.4502 48.9361 36.6251C49.2699 36.7999 49.6589 36.8369 50.0197 36.7279L54.8491 35.2706C56.13 34.8841 57.5119 35.0222 58.6909 35.6546C59.8699 36.287 60.7494 37.3618 61.1359 38.6427C61.5224 39.9235 61.3843 41.3055 60.7519 42.4845C60.1195 43.6635 59.0447 44.543 57.7638 44.9295L52.9344 46.3869C52.5736 46.4956 52.2699 46.7416 52.0886 47.072C51.9073 47.4023 51.8628 47.7905 51.9647 48.1533L56.137 61.9795L42.3373 66.1438C41.972 66.254 41.6654 66.5048 41.4851 66.8411C41.3047 67.1773 41.2653 67.5714 41.3756 67.9367L43.0408 73.4548C43.4273 74.7357 43.2891 76.1176 42.6567 77.2966C42.0244 78.4756 40.9495 79.3551 39.6687 79.7416C38.3878 80.1281 37.0059 79.99 35.8269 79.3576C34.6479 78.7252 33.7684 77.6504 33.3818 76.3695L31.7167 70.8514C31.6064 70.4861 31.3556 70.1796 31.0194 69.9993C30.6831 69.8189 30.289 69.7795 29.9237 69.8897L16.124 74.054L4.04952 34.0411Z" fill="#343434"/>
</svg>
