<svg width="25" height="27" viewBox="0 0 25 27" fill="none" xmlns="http://www.w3.org/2000/svg">
<g clip-path="url(#clip0)">
<path d="M18.1651 26.0471H24.6399V13.4527L18.1651 9.25455M18.1651 26.0471H6.83419V3.09729H18.1651V26.0471ZM6.83419 7.5753H0.359375V26.0471H6.83419V7.5753Z" stroke="#343434" stroke-width="0.836083" stroke-linecap="round" stroke-linejoin="round"/>
<path d="M12.5025 26.0471V19.8898M17.0859 3.09729V0.298538H7.91326V3.09729H17.0859ZM11.6902 6.17592C11.6902 6.02747 11.6334 5.88509 11.5322 5.78012C11.431 5.67514 11.2938 5.61617 11.1507 5.61617H9.53197C9.38886 5.61617 9.25163 5.67514 9.15044 5.78012C9.04925 5.88509 8.9924 6.02747 8.9924 6.17592V7.85517C8.9924 8.00363 9.04925 8.146 9.15044 8.25098C9.25163 8.35595 9.38886 8.41493 9.53197 8.41493H11.1507C11.2938 8.41493 11.431 8.35595 11.5322 8.25098C11.6334 8.146 11.6902 8.00363 11.6902 7.85517V6.17592ZM11.6902 10.9338C11.6902 10.7853 11.6334 10.643 11.5322 10.538C11.431 10.433 11.2938 10.3741 11.1507 10.3741H9.53197C9.38886 10.3741 9.25163 10.433 9.15044 10.538C9.04925 10.643 8.9924 10.7853 8.9924 10.9338V12.6131C8.9924 12.7615 9.04925 12.9039 9.15044 13.0089C9.25163 13.1138 9.38886 13.1728 9.53197 13.1728H11.1507C11.2938 13.1728 11.431 13.1138 11.5322 13.0089C11.6334 12.9039 11.6902 12.7615 11.6902 12.6131V10.9338ZM11.6902 15.6917C11.6902 15.5432 11.6334 15.4009 11.5322 15.2959C11.431 15.1909 11.2938 15.1319 11.1507 15.1319H9.53197C9.38886 15.1319 9.25163 15.1909 9.15044 15.2959C9.04925 15.4009 8.9924 15.5432 8.9924 15.6917V17.3709C8.9924 17.5194 9.04925 17.6618 9.15044 17.7667C9.25163 17.8717 9.38886 17.9307 9.53197 17.9307H11.1507C11.2938 17.9307 11.431 17.8717 11.5322 17.7667C11.6334 17.6618 11.6902 17.5194 11.6902 17.3709V15.6917ZM16.0068 26.0471V20.4496C16.0068 20.3011 15.9499 20.1587 15.8487 20.0538C15.7476 19.9488 15.6103 19.8898 15.4672 19.8898H9.53197C9.38886 19.8898 9.25163 19.9488 9.15044 20.0538C9.04925 20.1587 8.9924 20.3011 8.9924 20.4496V26.0471H16.0068ZM6.83413 10.3741H3.05715C2.91404 10.3741 2.77681 10.433 2.67562 10.538C2.57443 10.643 2.51758 10.7853 2.51758 10.9338V12.6131C2.51758 12.7615 2.57443 12.9039 2.67562 13.0089C2.77681 13.1138 2.91404 13.1728 3.05715 13.1728H6.83413V10.3741ZM6.83413 15.1319H3.05715C2.91404 15.1319 2.77681 15.1909 2.67562 15.2959C2.57443 15.4009 2.51758 15.5432 2.51758 15.6917V17.3709C2.51758 17.5194 2.57443 17.6618 2.67562 17.7667C2.77681 17.8717 2.91404 17.9307 3.05715 17.9307H6.83413V15.1319ZM6.83413 19.8898H3.05715C2.91404 19.8898 2.77681 19.9488 2.67562 20.0538C2.57443 20.1587 2.51758 20.3011 2.51758 20.4496V22.1288C2.51758 22.2773 2.57443 22.4197 2.67562 22.5246C2.77681 22.6296 2.91404 22.6886 3.05715 22.6886H6.83413V19.8898ZM13.3089 7.85517C13.3089 8.00363 13.3658 8.146 13.467 8.25098C13.5682 8.35595 13.7054 8.41493 13.8485 8.41493H15.4672C15.6103 8.41493 15.7476 8.35595 15.8487 8.25098C15.9499 8.146 16.0068 8.00363 16.0068 7.85517V6.17592C16.0068 6.02747 15.9499 5.88509 15.8487 5.78012C15.7476 5.67514 15.6103 5.61617 15.4672 5.61617H13.8485C13.7054 5.61617 13.5682 5.67514 13.467 5.78012C13.3658 5.88509 13.3089 6.02747 13.3089 6.17592V7.85517ZM13.3089 12.6131C13.3089 12.7615 13.3658 12.9039 13.467 13.0089C13.5682 13.1138 13.7054 13.1728 13.8485 13.1728H15.4672C15.6103 13.1728 15.7476 13.1138 15.8487 13.0089C15.9499 12.9039 16.0068 12.7615 16.0068 12.6131V10.9338C16.0068 10.7853 15.9499 10.643 15.8487 10.538C15.7476 10.433 15.6103 10.3741 15.4672 10.3741H13.8485C13.7054 10.3741 13.5682 10.433 13.467 10.538C13.3658 10.643 13.3089 10.7853 13.3089 10.9338V12.6131ZM20.0564 17.3709C20.0564 17.5194 20.1133 17.6618 20.2145 17.7667C20.3157 17.8717 20.4529 17.9307 20.596 17.9307H22.2147C22.3578 17.9307 22.495 17.8717 22.5962 17.7667C22.6974 17.6618 22.7543 17.5194 22.7543 17.3709V15.6917C22.7543 15.5432 22.6974 15.4009 22.5962 15.2959C22.495 15.1909 22.3578 15.1319 22.2147 15.1319H20.596C20.4529 15.1319 20.3157 15.1909 20.2145 15.2959C20.1133 15.4009 20.0564 15.5432 20.0564 15.6917V17.3709ZM20.0564 22.1288C20.0564 22.2773 20.1133 22.4197 20.2145 22.5246C20.3157 22.6296 20.4529 22.6886 20.596 22.6886H22.2147C22.3578 22.6886 22.495 22.6296 22.5962 22.5246C22.6974 22.4197 22.7543 22.2773 22.7543 22.1288V20.4496C22.7543 20.3011 22.6974 20.1587 22.5962 20.0538C22.495 19.9488 22.3578 19.8898 22.2147 19.8898H20.596C20.4529 19.8898 20.3157 19.9488 20.2145 20.0538C20.1133 20.1587 20.0564 20.3011 20.0564 20.4496V22.1288ZM13.3118 17.3709C13.3118 17.5194 13.3687 17.6618 13.4699 17.7667C13.5711 17.8717 13.7083 17.9307 13.8514 17.9307H15.4701C15.6132 17.9307 15.7504 17.8717 15.8516 17.7667C15.9528 17.6618 16.0097 17.5194 16.0097 17.3709V15.6917C16.0097 15.5432 15.9528 15.4009 15.8516 15.2959C15.7504 15.1909 15.6132 15.1319 15.4701 15.1319H13.8514C13.7083 15.1319 13.5711 15.1909 13.4699 15.2959C13.3687 15.4009 13.3118 15.5432 13.3118 15.6917V17.3709Z" stroke="#343434" stroke-width="0.836083" stroke-linecap="round" stroke-linejoin="round"/>
</g>
<defs>
<clipPath id="clip0">
<rect width="25" height="26.4202" fill="white"/>
</clipPath>
</defs>
</svg>
