<svg width="96" height="102" viewBox="0 0 96 102" fill="none" xmlns="http://www.w3.org/2000/svg">
<mask id="path-1-outside-1" maskUnits="userSpaceOnUse" x="11.3369" y="0" width="76" height="49" fill="black">
<rect fill="white" x="11.3369" width="76" height="49"/>
<path d="M49.2591 48C61.6877 48 71.4231 42.9554 71.4231 36.5163V23.2281L77.1156 20.8429L77.1499 29.8348L73.88 40.8842C73.8475 40.994 73.8405 41.11 73.8596 41.223C73.8787 41.336 73.9233 41.4428 73.9899 41.535C74.0565 41.6271 74.1432 41.702 74.2431 41.7536C74.343 41.8052 74.4533 41.8321 74.5651 41.8322L81.475 41.8047C81.5884 41.8048 81.7002 41.7772 81.8011 41.7242C81.902 41.6711 81.9891 41.5942 82.0552 41.4997C82.1213 41.4053 82.1645 41.296 82.1812 41.181C82.1979 41.066 82.1877 40.9486 82.1513 40.8385L78.5842 29.8394L78.5484 20.2485L85.6738 17.2629C85.6991 17.25 85.7235 17.2352 85.7467 17.2187C85.8658 17.153 85.964 17.0536 86.0298 16.9325C86.0956 16.8114 86.1263 16.6734 86.1181 16.535C86.11 16.3966 86.0635 16.2634 85.9839 16.1513C85.9044 16.0391 85.7953 15.9526 85.6694 15.9019L49.4375 1.0531C49.2653 0.982301 49.0731 0.982301 48.901 1.0531L12.7835 16.1854C12.6515 16.2404 12.5385 16.3346 12.4589 16.4558C12.3794 16.577 12.3369 16.7198 12.3369 16.8659C12.3369 17.012 12.3794 17.1548 12.4589 17.276C12.5385 17.3972 12.6515 17.4914 12.7835 17.5464L27.0923 23.4109V36.5178C27.0923 36.5315 27.0923 36.5452 27.0923 36.5589C27.1383 42.9798 36.8573 48 49.2591 48ZM75.5313 40.3554L77.8945 32.3678L80.4822 40.3356L75.5313 40.3554ZM28.5265 23.9962L49.0154 32.3937C49.1001 32.4282 49.1904 32.4458 49.2815 32.4455C49.3743 32.4456 49.4662 32.427 49.5519 32.3907L69.9902 23.8285V36.5163C69.9902 41.9449 60.4971 46.5308 49.2591 46.5308C38.0211 46.5308 28.5265 41.9449 28.5265 36.5163V23.9962ZM83.4904 16.5862L49.2785 30.9123L14.9609 16.8484L49.1714 2.52229L83.4904 16.5862Z"/>
</mask>
<path d="M49.2591 48C61.6877 48 71.4231 42.9554 71.4231 36.5163V23.2281L77.1156 20.8429L77.1499 29.8348L73.88 40.8842C73.8475 40.994 73.8405 41.11 73.8596 41.223C73.8787 41.336 73.9233 41.4428 73.9899 41.535C74.0565 41.6271 74.1432 41.702 74.2431 41.7536C74.343 41.8052 74.4533 41.8321 74.5651 41.8322L81.475 41.8047C81.5884 41.8048 81.7002 41.7772 81.8011 41.7242C81.902 41.6711 81.9891 41.5942 82.0552 41.4997C82.1213 41.4053 82.1645 41.296 82.1812 41.181C82.1979 41.066 82.1877 40.9486 82.1513 40.8385L78.5842 29.8394L78.5484 20.2485L85.6738 17.2629C85.6991 17.25 85.7235 17.2352 85.7467 17.2187C85.8658 17.153 85.964 17.0536 86.0298 16.9325C86.0956 16.8114 86.1263 16.6734 86.1181 16.535C86.11 16.3966 86.0635 16.2634 85.9839 16.1513C85.9044 16.0391 85.7953 15.9526 85.6694 15.9019L49.4375 1.0531C49.2653 0.982301 49.0731 0.982301 48.901 1.0531L12.7835 16.1854C12.6515 16.2404 12.5385 16.3346 12.4589 16.4558C12.3794 16.577 12.3369 16.7198 12.3369 16.8659C12.3369 17.012 12.3794 17.1548 12.4589 17.276C12.5385 17.3972 12.6515 17.4914 12.7835 17.5464L27.0923 23.4109V36.5178C27.0923 36.5315 27.0923 36.5452 27.0923 36.5589C27.1383 42.9798 36.8573 48 49.2591 48ZM75.5313 40.3554L77.8945 32.3678L80.4822 40.3356L75.5313 40.3554ZM28.5265 23.9962L49.0154 32.3937C49.1001 32.4282 49.1904 32.4458 49.2815 32.4455C49.3743 32.4456 49.4662 32.427 49.5519 32.3907L69.9902 23.8285V36.5163C69.9902 41.9449 60.4971 46.5308 49.2591 46.5308C38.0211 46.5308 28.5265 41.9449 28.5265 36.5163V23.9962ZM83.4904 16.5862L49.2785 30.9123L14.9609 16.8484L49.1714 2.52229L83.4904 16.5862Z" fill="#343434"/>
<path d="M49.2591 48C61.6877 48 71.4231 42.9554 71.4231 36.5163V23.2281L77.1156 20.8429L77.1499 29.8348L73.88 40.8842C73.8475 40.994 73.8405 41.11 73.8596 41.223C73.8787 41.336 73.9233 41.4428 73.9899 41.535C74.0565 41.6271 74.1432 41.702 74.2431 41.7536C74.343 41.8052 74.4533 41.8321 74.5651 41.8322L81.475 41.8047C81.5884 41.8048 81.7002 41.7772 81.8011 41.7242C81.902 41.6711 81.9891 41.5942 82.0552 41.4997C82.1213 41.4053 82.1645 41.296 82.1812 41.181C82.1979 41.066 82.1877 40.9486 82.1513 40.8385L78.5842 29.8394L78.5484 20.2485L85.6738 17.2629C85.6991 17.25 85.7235 17.2352 85.7467 17.2187C85.8658 17.153 85.964 17.0536 86.0298 16.9325C86.0956 16.8114 86.1263 16.6734 86.1181 16.535C86.11 16.3966 86.0635 16.2634 85.9839 16.1513C85.9044 16.0391 85.7953 15.9526 85.6694 15.9019L49.4375 1.0531C49.2653 0.982301 49.0731 0.982301 48.901 1.0531L12.7835 16.1854C12.6515 16.2404 12.5385 16.3346 12.4589 16.4558C12.3794 16.577 12.3369 16.7198 12.3369 16.8659C12.3369 17.012 12.3794 17.1548 12.4589 17.276C12.5385 17.3972 12.6515 17.4914 12.7835 17.5464L27.0923 23.4109V36.5178C27.0923 36.5315 27.0923 36.5452 27.0923 36.5589C27.1383 42.9798 36.8573 48 49.2591 48ZM75.5313 40.3554L77.8945 32.3678L80.4822 40.3356L75.5313 40.3554ZM28.5265 23.9962L49.0154 32.3937C49.1001 32.4282 49.1904 32.4458 49.2815 32.4455C49.3743 32.4456 49.4662 32.427 49.5519 32.3907L69.9902 23.8285V36.5163C69.9902 41.9449 60.4971 46.5308 49.2591 46.5308C38.0211 46.5308 28.5265 41.9449 28.5265 36.5163V23.9962ZM83.4904 16.5862L49.2785 30.9123L14.9609 16.8484L49.1714 2.52229L83.4904 16.5862Z" stroke="black" mask="url(#path-1-outside-1)"/>
<mask id="path-2-outside-2" maskUnits="userSpaceOnUse" x="-0.384754" y="45.7011" width="96.5621" height="56.7986" fill="black">
<rect fill="white" x="-0.384754" y="45.7011" width="96.5621" height="56.7986"/>
<path d="M27.7886 85.96C28.3881 85.9478 28.9866 86.0205 29.5669 86.1761C31.7149 86.7458 34.1868 87.4861 36.7921 88.2693C40.6496 89.4258 44.6317 90.6194 47.5954 91.2518C50.7384 91.9263 54.0042 91.6471 56.9886 90.4488C57.9018 90.0347 79.4731 80.2094 92.0069 68.1654C95.1005 65.6005 95.0863 61.6638 93.2766 59.327C91.3906 56.8861 88.0548 56.2134 85.178 57.6137C84.3077 56.7939 83.2006 56.2835 82.0231 56.1593C80.8456 56.0351 79.6613 56.3037 78.6482 56.9248C75.6477 58.6553 70.2748 61.9836 62.69 66.8003C61.9804 66.6257 61.2603 66.4992 60.5344 66.4217L59.8288 66.336C57.4766 66.0501 55.0407 65.7663 49.7609 64.6994C47.3826 64.2558 45.0758 63.4765 42.907 62.384C42.2737 62.0834 41.6179 61.7704 40.8885 61.4752C36.9852 59.8853 32.6825 58.5337 27.6588 59.3548C25.3471 59.735 23.3695 60.2603 21.3195 61.4379C20.5814 61.8688 19.8735 62.3512 19.2009 62.8818C18.763 63.2272 18.3572 63.5643 17.9063 63.9398C17.4555 64.3152 17.0175 64.6824 16.4373 65.1466C14.2532 66.8912 6.54396 69.9623 3.75673 70.9969C3.5923 71.0341 3.43767 71.1067 3.30313 71.2098C3.16859 71.3129 3.05726 71.4442 2.97658 71.5948C2.89591 71.7454 2.84775 71.9119 2.83532 72.0832C2.82289 72.2545 2.84647 72.4266 2.90449 72.5881C2.96252 72.7495 3.05365 72.8965 3.17179 73.0193C3.28994 73.1421 3.43237 73.2379 3.58958 73.3002C3.74678 73.3625 3.91514 73.3898 4.08339 73.3805C4.25164 73.3712 4.4159 73.3254 4.56521 73.2461L4.61501 73.2278C5.44469 72.9179 15.0323 69.3143 17.8885 67.0316C18.4845 66.5547 18.9619 66.1558 19.397 65.7931C19.832 65.4303 20.2143 65.1122 20.6337 64.7816C23.1272 62.8339 25.2363 62.1812 28.0361 61.7242C32.4963 60.9926 36.4313 62.2436 40.0205 63.703C40.6903 63.9764 41.2851 64.2601 41.9184 64.5607C44.2578 65.7372 46.7454 66.5768 49.3098 67.0556C54.6711 68.1397 57.2593 68.4469 59.5627 68.7219L60.2684 68.8077C61.4445 68.9506 62.1316 69.073 62.8989 69.3704C63.209 69.4752 63.5005 69.6304 63.7621 69.8301C64.2902 70.2563 64.6868 70.8286 64.9041 71.4782C64.9085 71.4938 64.914 71.5091 64.9204 71.5239L64.9174 71.5503C65.0402 72.112 65.0078 72.697 64.824 73.2403C64.4388 74.5205 63.2138 75.5967 61.6959 75.9809C61.0812 76.1239 60.4462 76.1537 59.8207 76.069C59.6584 76.0493 43.618 74.6058 37.3905 73.0057C37.1042 72.97 36.8151 73.042 36.5777 73.2083C36.3402 73.3745 36.1707 73.6236 36.1008 73.9087C36.031 74.1937 36.0657 74.4953 36.1984 74.7566C36.3312 75.018 36.5528 75.2212 36.8217 75.3282C39.8057 76.0942 44.8083 76.8115 49.3693 77.3657C54.603 78.0016 59.2509 78.4206 59.5931 78.4524C60.4872 78.5645 61.3933 78.5141 62.2693 78.3037C64.6028 77.7122 66.442 76.0424 67.0614 73.9448C67.276 73.2482 67.3598 72.5163 67.3085 71.7874L85.8367 59.942L85.8508 59.9437C88.0767 58.6465 90.3427 59.3934 91.4291 60.7989C92.5154 62.2045 92.4868 64.6826 90.4893 66.3186L90.4178 66.3804C78.1868 78.1549 56.2479 88.1495 56.0767 88.2283C53.5302 89.2443 50.7465 89.4804 48.0665 88.9077C45.1982 88.2967 41.2585 87.1082 37.4463 85.9718C34.8154 85.183 32.3321 84.4389 30.1459 83.8694C28.2254 83.3626 26.1961 83.515 24.3724 84.303L11.4479 89.8878C11.2165 89.9966 11.0259 90.1787 10.9045 90.407C10.7831 90.6353 10.7374 90.8977 10.7741 91.1551C10.8108 91.4124 10.928 91.651 11.1083 91.8354C11.2886 92.0197 11.5223 92.1399 11.7747 92.1782C11.9778 92.2031 12.1837 92.1728 12.3714 92.0903L25.3248 86.4822C26.1057 86.1503 26.9419 85.9731 27.7886 85.96V85.96ZM82.9944 58.938L66.5431 69.4535C66.1985 68.9188 65.7816 68.4361 65.305 68.0197C65.2887 68.0087 65.2734 67.9962 65.2592 67.9826C72.1181 63.6318 77.0096 60.6121 79.8057 59.0001C80.2842 58.7047 80.8309 58.5434 81.3908 58.5325C81.9507 58.5216 82.5038 58.6614 82.9944 58.938Z"/>
</mask>
<path d="M27.7886 85.96C28.3881 85.9478 28.9866 86.0205 29.5669 86.1761C31.7149 86.7458 34.1868 87.4861 36.7921 88.2693C40.6496 89.4258 44.6317 90.6194 47.5954 91.2518C50.7384 91.9263 54.0042 91.6471 56.9886 90.4488C57.9018 90.0347 79.4731 80.2094 92.0069 68.1654C95.1005 65.6005 95.0863 61.6638 93.2766 59.327C91.3906 56.8861 88.0548 56.2134 85.178 57.6137C84.3077 56.7939 83.2006 56.2835 82.0231 56.1593C80.8456 56.0351 79.6613 56.3037 78.6482 56.9248C75.6477 58.6553 70.2748 61.9836 62.69 66.8003C61.9804 66.6257 61.2603 66.4992 60.5344 66.4217L59.8288 66.336C57.4766 66.0501 55.0407 65.7663 49.7609 64.6994C47.3826 64.2558 45.0758 63.4765 42.907 62.384C42.2737 62.0834 41.6179 61.7704 40.8885 61.4752C36.9852 59.8853 32.6825 58.5337 27.6588 59.3548C25.3471 59.735 23.3695 60.2603 21.3195 61.4379C20.5814 61.8688 19.8735 62.3512 19.2009 62.8818C18.763 63.2272 18.3572 63.5643 17.9063 63.9398C17.4555 64.3152 17.0175 64.6824 16.4373 65.1466C14.2532 66.8912 6.54396 69.9623 3.75673 70.9969C3.5923 71.0341 3.43767 71.1067 3.30313 71.2098C3.16859 71.3129 3.05726 71.4442 2.97658 71.5948C2.89591 71.7454 2.84775 71.9119 2.83532 72.0832C2.82289 72.2545 2.84647 72.4266 2.90449 72.5881C2.96252 72.7495 3.05365 72.8965 3.17179 73.0193C3.28994 73.1421 3.43237 73.2379 3.58958 73.3002C3.74678 73.3625 3.91514 73.3898 4.08339 73.3805C4.25164 73.3712 4.4159 73.3254 4.56521 73.2461L4.61501 73.2278C5.44469 72.9179 15.0323 69.3143 17.8885 67.0316C18.4845 66.5547 18.9619 66.1558 19.397 65.7931C19.832 65.4303 20.2143 65.1122 20.6337 64.7816C23.1272 62.8339 25.2363 62.1812 28.0361 61.7242C32.4963 60.9926 36.4313 62.2436 40.0205 63.703C40.6903 63.9764 41.2851 64.2601 41.9184 64.5607C44.2578 65.7372 46.7454 66.5768 49.3098 67.0556C54.6711 68.1397 57.2593 68.4469 59.5627 68.7219L60.2684 68.8077C61.4445 68.9506 62.1316 69.073 62.8989 69.3704C63.209 69.4752 63.5005 69.6304 63.7621 69.8301C64.2902 70.2563 64.6868 70.8286 64.9041 71.4782C64.9085 71.4938 64.914 71.5091 64.9204 71.5239L64.9174 71.5503C65.0402 72.112 65.0078 72.697 64.824 73.2403C64.4388 74.5205 63.2138 75.5967 61.6959 75.9809C61.0812 76.1239 60.4462 76.1537 59.8207 76.069C59.6584 76.0493 43.618 74.6058 37.3905 73.0057C37.1042 72.97 36.8151 73.042 36.5777 73.2083C36.3402 73.3745 36.1707 73.6236 36.1008 73.9087C36.031 74.1937 36.0657 74.4953 36.1984 74.7566C36.3312 75.018 36.5528 75.2212 36.8217 75.3282C39.8057 76.0942 44.8083 76.8115 49.3693 77.3657C54.603 78.0016 59.2509 78.4206 59.5931 78.4524C60.4872 78.5645 61.3933 78.5141 62.2693 78.3037C64.6028 77.7122 66.442 76.0424 67.0614 73.9448C67.276 73.2482 67.3598 72.5163 67.3085 71.7874L85.8367 59.942L85.8508 59.9437C88.0767 58.6465 90.3427 59.3934 91.4291 60.7989C92.5154 62.2045 92.4868 64.6826 90.4893 66.3186L90.4178 66.3804C78.1868 78.1549 56.2479 88.1495 56.0767 88.2283C53.5302 89.2443 50.7465 89.4804 48.0665 88.9077C45.1982 88.2967 41.2585 87.1082 37.4463 85.9718C34.8154 85.183 32.3321 84.4389 30.1459 83.8694C28.2254 83.3626 26.1961 83.515 24.3724 84.303L11.4479 89.8878C11.2165 89.9966 11.0259 90.1787 10.9045 90.407C10.7831 90.6353 10.7374 90.8977 10.7741 91.1551C10.8108 91.4124 10.928 91.651 11.1083 91.8354C11.2886 92.0197 11.5223 92.1399 11.7747 92.1782C11.9778 92.2031 12.1837 92.1728 12.3714 92.0903L25.3248 86.4822C26.1057 86.1503 26.9419 85.9731 27.7886 85.96V85.96ZM82.9944 58.938L66.5431 69.4535C66.1985 68.9188 65.7816 68.4361 65.305 68.0197C65.2887 68.0087 65.2734 67.9962 65.2592 67.9826C72.1181 63.6318 77.0096 60.6121 79.8057 59.0001C80.2842 58.7047 80.8309 58.5434 81.3908 58.5325C81.9507 58.5216 82.5038 58.6614 82.9944 58.938Z" fill="#343434"/>
<path d="M27.7886 85.96C28.3881 85.9478 28.9866 86.0205 29.5669 86.1761C31.7149 86.7458 34.1868 87.4861 36.7921 88.2693C40.6496 89.4258 44.6317 90.6194 47.5954 91.2518C50.7384 91.9263 54.0042 91.6471 56.9886 90.4488C57.9018 90.0347 79.4731 80.2094 92.0069 68.1654C95.1005 65.6005 95.0863 61.6638 93.2766 59.327C91.3906 56.8861 88.0548 56.2134 85.178 57.6137C84.3077 56.7939 83.2006 56.2835 82.0231 56.1593C80.8456 56.0351 79.6613 56.3037 78.6482 56.9248C75.6477 58.6553 70.2748 61.9836 62.69 66.8003C61.9804 66.6257 61.2603 66.4992 60.5344 66.4217L59.8288 66.336C57.4766 66.0501 55.0407 65.7663 49.7609 64.6994C47.3826 64.2558 45.0758 63.4765 42.907 62.384C42.2737 62.0834 41.6179 61.7704 40.8885 61.4752C36.9852 59.8853 32.6825 58.5337 27.6588 59.3548C25.3471 59.735 23.3695 60.2603 21.3195 61.4379C20.5814 61.8688 19.8735 62.3512 19.2009 62.8818C18.763 63.2272 18.3572 63.5643 17.9063 63.9398C17.4555 64.3152 17.0175 64.6824 16.4373 65.1466C14.2532 66.8912 6.54396 69.9623 3.75673 70.9969C3.5923 71.0341 3.43767 71.1067 3.30313 71.2098C3.16859 71.3129 3.05726 71.4442 2.97658 71.5948C2.89591 71.7454 2.84775 71.9119 2.83532 72.0832C2.82289 72.2545 2.84647 72.4266 2.90449 72.5881C2.96252 72.7495 3.05365 72.8965 3.17179 73.0193C3.28994 73.1421 3.43237 73.2379 3.58958 73.3002C3.74678 73.3625 3.91514 73.3898 4.08339 73.3805C4.25164 73.3712 4.4159 73.3254 4.56521 73.2461L4.61501 73.2278C5.44469 72.9179 15.0323 69.3143 17.8885 67.0316C18.4845 66.5547 18.9619 66.1558 19.397 65.7931C19.832 65.4303 20.2143 65.1122 20.6337 64.7816C23.1272 62.8339 25.2363 62.1812 28.0361 61.7242C32.4963 60.9926 36.4313 62.2436 40.0205 63.703C40.6903 63.9764 41.2851 64.2601 41.9184 64.5607C44.2578 65.7372 46.7454 66.5768 49.3098 67.0556C54.6711 68.1397 57.2593 68.4469 59.5627 68.7219L60.2684 68.8077C61.4445 68.9506 62.1316 69.073 62.8989 69.3704C63.209 69.4752 63.5005 69.6304 63.7621 69.8301C64.2902 70.2563 64.6868 70.8286 64.9041 71.4782C64.9085 71.4938 64.914 71.5091 64.9204 71.5239L64.9174 71.5503C65.0402 72.112 65.0078 72.697 64.824 73.2403C64.4388 74.5205 63.2138 75.5967 61.6959 75.9809C61.0812 76.1239 60.4462 76.1537 59.8207 76.069C59.6584 76.0493 43.618 74.6058 37.3905 73.0057C37.1042 72.97 36.8151 73.042 36.5777 73.2083C36.3402 73.3745 36.1707 73.6236 36.1008 73.9087C36.031 74.1937 36.0657 74.4953 36.1984 74.7566C36.3312 75.018 36.5528 75.2212 36.8217 75.3282C39.8057 76.0942 44.8083 76.8115 49.3693 77.3657C54.603 78.0016 59.2509 78.4206 59.5931 78.4524C60.4872 78.5645 61.3933 78.5141 62.2693 78.3037C64.6028 77.7122 66.442 76.0424 67.0614 73.9448C67.276 73.2482 67.3598 72.5163 67.3085 71.7874L85.8367 59.942L85.8508 59.9437C88.0767 58.6465 90.3427 59.3934 91.4291 60.7989C92.5154 62.2045 92.4868 64.6826 90.4893 66.3186L90.4178 66.3804C78.1868 78.1549 56.2479 88.1495 56.0767 88.2283C53.5302 89.2443 50.7465 89.4804 48.0665 88.9077C45.1982 88.2967 41.2585 87.1082 37.4463 85.9718C34.8154 85.183 32.3321 84.4389 30.1459 83.8694C28.2254 83.3626 26.1961 83.515 24.3724 84.303L11.4479 89.8878C11.2165 89.9966 11.0259 90.1787 10.9045 90.407C10.7831 90.6353 10.7374 90.8977 10.7741 91.1551C10.8108 91.4124 10.928 91.651 11.1083 91.8354C11.2886 92.0197 11.5223 92.1399 11.7747 92.1782C11.9778 92.2031 12.1837 92.1728 12.3714 92.0903L25.3248 86.4822C26.1057 86.1503 26.9419 85.9731 27.7886 85.96V85.96ZM82.9944 58.938L66.5431 69.4535C66.1985 68.9188 65.7816 68.4361 65.305 68.0197C65.2887 68.0087 65.2734 67.9962 65.2592 67.9826C72.1181 63.6318 77.0096 60.6121 79.8057 59.0001C80.2842 58.7047 80.8309 58.5434 81.3908 58.5325C81.9507 58.5216 82.5038 58.6614 82.9944 58.938Z" stroke="#343434" stroke-width="0.4" mask="url(#path-2-outside-2)"/>
</svg>
