<svg width="33" height="34" viewBox="0 0 33 34" fill="none" xmlns="http://www.w3.org/2000/svg">
<path d="M25.4777 15.2711L25.3352 15.3728C25.2964 15.3184 25.2707 15.2558 25.2598 15.1901C25.2488 15.1243 25.2528 15.0569 25.2715 14.9929L26.4009 11.1271L26.3901 8.25004L24.7605 8.94165V13.5042C24.7605 14.7335 23.8448 15.7908 22.435 16.5308C21.0186 17.2742 19.0634 17.7222 16.882 17.7222C14.7052 17.7222 12.7538 17.2763 11.3381 16.536C9.92896 15.7991 9.01106 14.746 9.00238 13.5204L9.00237 13.5192L9.00237 13.5192V13.5191V13.5191V13.5191V13.5191V13.519V13.519V13.519V13.5189V13.5189V13.5189V13.5189V13.5188V13.5188V13.5188V13.5187V13.5187V13.5187V13.5187V13.5186V13.5186V13.5186V13.5186V13.5185V13.5185V13.5185V13.5184V13.5184V13.5184V13.5184V13.5183V13.5183V13.5183V13.5182V13.5182V13.5182V13.5182V13.5181V13.5181V13.5181V13.518V13.518V13.518V13.518V13.5179V13.5179V13.5179V13.5178V13.5178V13.5178V13.5178V13.5177V13.5177V13.5177V13.5176V13.5176V13.5176V13.5176V13.5175V13.5175V13.5175V13.5174V13.5174V13.5174V13.5174V13.5173V13.5173V13.5173V13.5173V13.5172V13.5172V13.5172V13.5171V13.5171V13.5171V13.5171V13.517V13.517V13.517V13.5169V13.5169V13.5169V13.5169V13.5168V13.5168V13.5168V13.5167V13.5167V13.5167V13.5167V13.5166V13.5166V13.5166V13.5165V13.5165V13.5165V13.5165V13.5164V13.5164V13.5164V13.5163V13.5163V13.5163V13.5163V13.5162V13.5162V13.5162V13.5161V13.5161V13.5161V13.5161V13.516V13.516V13.516V13.5159V13.5159V13.5159V13.5159V13.5158V13.5158V13.5158V13.5157V13.5157V13.5157V13.5157V13.5156V13.5156V13.5156V13.5156V13.5155V13.5155V13.5155V13.5154V13.5154V13.5154V13.5154V13.5153V13.5153V13.5153V13.5152V13.5152V13.5152V13.5152V13.5151V13.5151V13.5151V13.515V13.515V13.515V13.515V13.5149V13.5149V13.5149V13.5148V13.5148V13.5148V13.5148V13.5147V13.5147V13.5147V13.5146V13.5146V13.5146V13.5146V13.5145V13.5145V13.5145V13.5144V13.5144V13.5144V13.5144V13.5143V13.5143V13.5143V13.5142V13.5142V13.5142V13.5142V13.5141V13.5141V13.5141V13.5141V13.514V13.514V13.514V13.5139V13.5139V13.5139V13.5139V13.5138V13.5138V13.5138V13.5137V13.5137V13.5137V13.5137V13.5136V13.5136V13.5136V13.5135V13.5135V13.5135V13.5135V13.5134V13.5134V13.5134V13.5133V13.5133V13.5133V13.5133V13.5132V13.5132V13.5132V13.5131V13.5131V13.5131V13.5131V13.513V13.513V13.513V13.5129V13.5129V13.5129V13.5129V13.5128V13.5128V13.5128V13.5128V13.5127V13.5127V13.5127V13.5126V13.5126V13.5126V13.5126V13.5125V13.5125V13.5125V13.5124V13.5124V13.5124V13.5124V13.5123V13.5123V13.5123V13.5122V13.5122V13.5122V13.5122V13.5121V13.5121V13.5121V13.512V13.512V13.512V13.512V13.5119V13.5119V13.5119V13.5118V13.5118V13.5118V13.5118V13.5117V13.5117V13.5117V13.5116V13.5116V13.5116V13.5116V13.5115V13.5115V13.5115V13.5114V13.5114V13.5114V13.5114V13.5113V13.5113V13.5113V13.5113V13.5112V13.5112V13.5112V13.5111V13.5111V13.5111V13.5111V13.511V13.511V13.511V13.5109V13.5109V13.5109V13.5109V13.5108V13.5108V13.5108V13.5107V13.5107V13.5107V13.5107V13.5106V13.5106V13.5106V13.5105V13.5105V13.5105V13.5105V13.5104V13.5104V13.5104V13.5103V13.5103V13.5103V13.5103V13.5102V13.5102V13.5102V13.5101V13.5101V13.5101V13.5101V13.51V13.51V13.51V13.5099V13.5099V13.5099V13.5099V13.5098V13.5098V13.5098V13.5098V13.5097V13.5097V13.5097V13.5096V13.5096V13.5096V13.5096V13.5095V13.5095V13.5095V13.5094V13.5094V13.5094V13.5094V13.5093V13.5093V13.5093V13.5092V13.5092V13.5092V13.5092V13.5091V13.5091V13.5091V13.509V13.509V13.509V13.509V13.5089V13.5089V13.5089V13.5088V13.5088V13.5088V13.5088V13.5087V13.5087V13.5087V13.5086V13.5086V13.5086V13.5086V13.5085V13.5085V13.5085V13.5084V13.5084V13.5084V13.5084V13.5083V13.5083V13.5083V13.5083V13.5082V13.5082V13.5082V13.5081V13.5081V13.5081V13.5081V13.508V13.508V13.508V13.5079V13.5079V13.5079V13.5079V13.5078V13.5078V13.5078V13.5077V13.5077V13.5077V13.5077V13.5076V13.5076V13.5076V13.5075V13.5075V13.5075V13.5075V13.5074V13.5074V13.5074V13.5073V13.5073V13.5073V13.5073V13.5072V13.5072V13.5072V13.5071V13.5071V13.5071V13.5071V13.507V13.507V13.507V13.5069V13.5069V13.5069V13.5069V13.5068V13.5068V13.5068V13.5068V13.5067V13.5067V13.5067V13.5066V13.5066V13.5066V13.5066V13.5065V13.5065V13.5065V13.5064V13.5064V13.5064V13.5064V13.5063V13.5063V13.5063V13.5062V13.5062V13.5062V13.5062V13.5061V13.5061V13.5061V13.506V13.506V13.506V13.506V13.5059V13.5059V13.5059V13.5058V13.5058V13.5058V13.5058V13.5057V13.5057V13.5057V13.5056V13.5056V13.5056V13.5056V13.5055V13.5055V13.5055V13.5054V13.5054V13.5054V13.5054V13.5053V13.5053V13.5053V13.5053V13.5052V13.5052V13.5052V13.5051V13.5051V13.5051V13.5051V13.505V13.505V13.505V13.5049V13.5049V13.5049V13.5049V13.5048V13.5048V13.5048V13.5047V13.5047V9.00703L4.13694 6.9871L4.13595 6.98669C4.05706 6.95337 3.99064 6.89684 3.94437 6.82542C3.89814 6.75406 3.87383 6.67068 3.87383 6.58589C3.87383 6.50111 3.89814 6.41772 3.94437 6.34635C3.99064 6.27494 4.05704 6.21843 4.13591 6.18511L4.13567 6.18522L4.20404 6.34631L4.13595 6.1851L25.4777 15.2711ZM25.4777 15.2711L25.3352 15.3728C25.3741 15.4272 25.4251 15.472 25.4846 15.5031C25.5441 15.5343 25.6102 15.5507 25.6775 15.5507L25.6783 15.5507L28.0791 15.5411C28.0793 15.5411 28.0794 15.5411 28.0795 15.5411L28.08 15.5411L28.0793 15.3661M25.4777 15.2711L28.3247 15.1465C28.3189 15.187 28.3039 15.2254 28.281 15.2587C28.258 15.292 28.2277 15.319 28.1926 15.3377C28.1576 15.3564 28.1187 15.3661 28.0793 15.3661M25.4777 15.2711C25.5008 15.3035 25.531 15.3299 25.5657 15.3481C25.6004 15.3662 25.6387 15.3757 25.6776 15.3757M25.4777 15.2711L25.6776 15.3757M28.0793 15.3661L25.6776 15.3757M28.0793 15.3661L25.6776 15.3757M16.8896 12.246C16.9456 12.246 17.0009 12.2347 17.0523 12.2127C17.0524 12.2126 17.0526 12.2126 17.0527 12.2125L23.9125 9.30158V13.5042C23.9125 14.3539 23.1715 15.191 21.8726 15.8266C20.5874 16.4555 18.8132 16.855 16.882 16.855C14.9507 16.855 13.1764 16.4555 11.8911 15.8266C10.592 15.191 9.85089 14.3539 9.85089 13.5042V9.35837L16.7301 12.2144L16.7305 12.2145C16.781 12.2353 16.835 12.2461 16.8896 12.246ZM16.8896 12.246C16.8896 12.246 16.8896 12.246 16.8896 12.246L16.8897 12.071L16.8902 12.246C16.89 12.246 16.8898 12.246 16.8896 12.246ZM29.6032 6.08445L17.0112 0.857144L29.6032 6.08445ZM27.4946 14.6748L26.2471 14.6799L26.8426 12.6411L27.4946 14.6748ZM16.8522 1.72573L28.3275 6.48917L16.888 11.3414L5.41311 6.57798L16.8522 1.72573Z" fill="#343434" stroke="black" stroke-width="0.35"/>
<path d="M9.42261 31.0119L9.42211 31.0119C9.14097 31.0163 8.86321 31.0758 8.60365 31.1875C8.60356 31.1876 8.60348 31.1876 8.6034 31.1876L4.10231 33.1616C4.10223 33.1616 4.10216 33.1617 4.10208 33.1617C4.02056 33.198 3.93089 33.2114 3.84222 33.2003L3.83941 33.2L3.83941 33.1999C3.72965 33.1831 3.62837 33.1302 3.55053 33.0496C3.47275 32.969 3.4226 32.8652 3.40691 32.7538C3.39123 32.6425 3.41074 32.529 3.46265 32.4301C3.51458 32.3312 3.59641 32.2517 3.69646 32.2041L3.69929 32.2028L3.69931 32.2028L8.19149 30.2366L8.2322 30.3284L8.19149 30.2366C8.84578 29.9502 9.57414 29.8947 10.2636 30.079C10.2637 30.079 10.2637 30.079 10.2638 30.079L10.2389 30.1757C10.9988 30.3762 11.8619 30.6382 12.7763 30.9159L9.42261 31.0119ZM9.42261 31.0119C9.62146 31.0078 9.81994 31.0322 10.0124 31.0845L10.0127 31.0845M9.42261 31.0119L10.0127 31.0845M10.0127 31.0845C10.7574 31.2846 11.6149 31.5447 12.5207 31.8206L12.5208 31.8206L10.0127 31.0845ZM19.607 32.585L19.607 32.5849C18.5514 33.0143 17.3959 33.1144 16.2837 32.8727C16.2837 32.8727 16.2836 32.8727 16.2836 32.8727L16.3039 32.7748L19.607 32.585ZM19.607 32.585L19.611 32.5832M19.607 32.585L19.611 32.5832M19.611 32.5832C19.9267 32.4382 27.4368 28.9742 31.8074 24.7215C32.9218 23.7832 32.9206 22.3382 32.2605 21.4748C31.5867 20.5915 30.4082 20.3398 29.3837 20.8124C29.0736 20.5362 28.6884 20.364 28.2796 20.3203C27.8485 20.2742 27.4153 20.3738 27.0449 20.6034C26.0045 21.2113 24.1479 22.3761 21.5316 24.0588C21.2944 24.0016 21.0539 23.9597 20.8116 23.9335L20.5671 23.9034L20.5005 23.8952C19.7044 23.7973 18.8574 23.6932 17.0756 23.3285L17.0756 23.3285M19.611 32.5832L17.0756 23.3285M17.0756 23.3285L17.0741 23.3282M17.0756 23.3285L17.0741 23.3282M17.0741 23.3282C16.2569 23.1738 15.4643 22.9026 14.719 22.5223L14.719 22.5222M17.0741 23.3282L14.719 22.5222M14.719 22.5222L14.7168 22.5212M14.719 22.5222L14.7168 22.5212M14.7168 22.5212L14.6943 22.5104C14.4814 22.408 14.2579 22.3005 14.01 22.1989C12.6483 21.6371 11.1314 21.1524 9.35726 21.4461L9.35717 21.4462M14.7168 22.5212L9.35717 21.4462M9.35717 21.4462C8.54749 21.581 7.84715 21.7687 7.12035 22.1916L7.11976 22.192M9.35717 21.4462L7.11976 22.192M7.11976 22.192C6.85922 22.346 6.60937 22.5185 6.37201 22.7081C6.21868 22.8307 6.07668 22.9502 5.92005 23.0823C5.90359 23.0962 5.88719 23.11 5.87078 23.1238C5.73083 23.242 5.59065 23.3603 5.41095 23.5059C5.22943 23.6528 4.92724 23.8317 4.55496 24.0247C4.18431 24.2169 3.74992 24.4201 3.30798 24.616C2.4277 25.0061 1.5212 25.3655 1.03678 25.5477C0.96801 25.5645 0.90359 25.5958 0.84749 25.6393L0.909126 25.7187L0.847489 25.6393C0.789539 25.6843 0.741791 25.7414 0.707273 25.8067C0.672761 25.8719 0.652205 25.944 0.646899 26.0181C0.641594 26.0921 0.651646 26.1666 0.676499 26.2367C0.701351 26.3067 0.740473 26.3708 0.791447 26.4244C0.842433 26.4781 0.904075 26.5201 0.972325 26.5475L1.00869 26.4546M7.11976 22.192L1.00869 26.4546M1.00869 26.4546L0.972327 26.5475C1.0406 26.5749 1.11376 26.587 1.18686 26.5829C1.25757 26.5789 1.32649 26.5599 1.38932 26.5273L1.40057 26.5231L1.40116 26.5229C1.54592 26.4681 2.4528 26.123 3.44815 25.6908C3.94578 25.4747 4.46649 25.2365 4.92558 25.0015C5.38302 24.7673 5.78519 24.5335 6.04181 24.3258L6.04185 24.3257C6.2415 24.1639 6.40303 24.0275 6.54933 23.9039L6.56768 23.8884C6.71892 23.7607 6.85075 23.6496 6.99525 23.5342C7.84483 22.8621 8.56047 22.637 9.5228 22.4779L9.52288 22.4779C11.0445 22.225 12.3903 22.6562 13.6337 23.1683L1.00869 26.4546ZM28.4008 21.4123L22.9174 24.9626C22.8257 24.8306 22.7217 24.7081 22.607 24.5968C24.9337 23.1026 26.5952 22.0643 27.5502 21.5067L27.5502 21.5067L27.5527 21.5051C27.7041 21.4105 27.8767 21.359 28.0531 21.3555C28.1717 21.3532 28.2894 21.3725 28.4008 21.4123Z" fill="#343434" stroke="#343434" stroke-width="0.2"/>
</svg>
