<svg width="33" height="37" viewBox="0 0 33 37" fill="none" xmlns="http://www.w3.org/2000/svg">
<mask id="path-1-outside-1" maskUnits="userSpaceOnUse" x="3.04883" y="0" width="27" height="18" fill="black">
<rect fill="white" x="3.04883" width="27" height="18"/>
<path d="M16.882 17.5472C21.2018 17.5472 24.5855 15.7712 24.5855 13.5042V8.82581L26.5641 7.98608L26.576 11.1518L25.4395 15.042C25.4282 15.0806 25.4258 15.1215 25.4324 15.1613C25.439 15.2011 25.4545 15.2387 25.4777 15.2711C25.5008 15.3035 25.531 15.3299 25.5657 15.3481C25.6004 15.3662 25.6387 15.3757 25.6776 15.3757L28.0793 15.3661C28.1187 15.3661 28.1576 15.3564 28.1926 15.3377C28.2277 15.319 28.258 15.292 28.281 15.2587C28.3039 15.2254 28.3189 15.187 28.3247 15.1465C28.3306 15.106 28.327 15.0647 28.3144 15.0259L27.0745 11.1535L27.0621 7.77681L29.5387 6.72567C29.5475 6.72111 29.5559 6.71591 29.564 6.71011C29.6054 6.68695 29.6395 6.65199 29.6624 6.60934C29.6853 6.56669 29.6959 6.51813 29.6931 6.4694C29.6903 6.42066 29.6741 6.37378 29.6465 6.33429C29.6188 6.2948 29.5809 6.26434 29.5371 6.24651L16.944 1.01869C16.8841 0.993769 16.8173 0.993769 16.7575 1.01869L4.20404 6.34631C4.15816 6.36568 4.11889 6.39883 4.09124 6.44151C4.0636 6.48418 4.04883 6.53445 4.04883 6.58589C4.04883 6.63733 4.0636 6.6876 4.09124 6.73027C4.11889 6.77295 4.15816 6.8061 4.20404 6.82547L9.17737 8.8902V13.5047C9.17737 13.5095 9.17737 13.5144 9.17737 13.5192C9.19339 15.7798 12.5714 17.5472 16.882 17.5472ZM26.0134 14.8558L26.8348 12.0436L27.7342 14.8488L26.0134 14.8558ZM9.67589 9.09624L16.7972 12.0528C16.8267 12.0649 16.8581 12.0711 16.8897 12.071C16.922 12.071 16.9539 12.0645 16.9837 12.0517L24.0875 9.03722V13.5042C24.0875 15.4154 20.788 17.03 16.882 17.03C12.9759 17.03 9.67589 15.4154 9.67589 13.5042V9.09624ZM28.7798 6.48743L16.8887 11.5312L4.96086 6.57972L16.8515 1.53595L28.7798 6.48743Z"/>
</mask>
<path d="M16.882 17.5472C21.2018 17.5472 24.5855 15.7712 24.5855 13.5042V8.82581L26.5641 7.98608L26.576 11.1518L25.4395 15.042C25.4282 15.0806 25.4258 15.1215 25.4324 15.1613C25.439 15.2011 25.4545 15.2387 25.4777 15.2711C25.5008 15.3035 25.531 15.3299 25.5657 15.3481C25.6004 15.3662 25.6387 15.3757 25.6776 15.3757L28.0793 15.3661C28.1187 15.3661 28.1576 15.3564 28.1926 15.3377C28.2277 15.319 28.258 15.292 28.281 15.2587C28.3039 15.2254 28.3189 15.187 28.3247 15.1465C28.3306 15.106 28.327 15.0647 28.3144 15.0259L27.0745 11.1535L27.0621 7.77681L29.5387 6.72567C29.5475 6.72111 29.5559 6.71591 29.564 6.71011C29.6054 6.68695 29.6395 6.65199 29.6624 6.60934C29.6853 6.56669 29.6959 6.51813 29.6931 6.4694C29.6903 6.42066 29.6741 6.37378 29.6465 6.33429C29.6188 6.2948 29.5809 6.26434 29.5371 6.24651L16.944 1.01869C16.8841 0.993769 16.8173 0.993769 16.7575 1.01869L4.20404 6.34631C4.15816 6.36568 4.11889 6.39883 4.09124 6.44151C4.0636 6.48418 4.04883 6.53445 4.04883 6.58589C4.04883 6.63733 4.0636 6.6876 4.09124 6.73027C4.11889 6.77295 4.15816 6.8061 4.20404 6.82547L9.17737 8.8902V13.5047C9.17737 13.5095 9.17737 13.5144 9.17737 13.5192C9.19339 15.7798 12.5714 17.5472 16.882 17.5472ZM26.0134 14.8558L26.8348 12.0436L27.7342 14.8488L26.0134 14.8558ZM9.67589 9.09624L16.7972 12.0528C16.8267 12.0649 16.8581 12.0711 16.8897 12.071C16.922 12.071 16.9539 12.0645 16.9837 12.0517L24.0875 9.03722V13.5042C24.0875 15.4154 20.788 17.03 16.882 17.03C12.9759 17.03 9.67589 15.4154 9.67589 13.5042V9.09624ZM28.7798 6.48743L16.8887 11.5312L4.96086 6.57972L16.8515 1.53595L28.7798 6.48743Z" fill="#343434"/>
<path d="M16.882 17.5472C21.2018 17.5472 24.5855 15.7712 24.5855 13.5042V8.82581L26.5641 7.98608L26.576 11.1518L25.4395 15.042C25.4282 15.0806 25.4258 15.1215 25.4324 15.1613C25.439 15.2011 25.4545 15.2387 25.4777 15.2711C25.5008 15.3035 25.531 15.3299 25.5657 15.3481C25.6004 15.3662 25.6387 15.3757 25.6776 15.3757L28.0793 15.3661C28.1187 15.3661 28.1576 15.3564 28.1926 15.3377C28.2277 15.319 28.258 15.292 28.281 15.2587C28.3039 15.2254 28.3189 15.187 28.3247 15.1465C28.3306 15.106 28.327 15.0647 28.3144 15.0259L27.0745 11.1535L27.0621 7.77681L29.5387 6.72567C29.5475 6.72111 29.5559 6.71591 29.564 6.71011C29.6054 6.68695 29.6395 6.65199 29.6624 6.60934C29.6853 6.56669 29.6959 6.51813 29.6931 6.4694C29.6903 6.42066 29.6741 6.37378 29.6465 6.33429C29.6188 6.2948 29.5809 6.26434 29.5371 6.24651L16.944 1.01869C16.8841 0.993769 16.8173 0.993769 16.7575 1.01869L4.20404 6.34631C4.15816 6.36568 4.11889 6.39883 4.09124 6.44151C4.0636 6.48418 4.04883 6.53445 4.04883 6.58589C4.04883 6.63733 4.0636 6.6876 4.09124 6.73027C4.11889 6.77295 4.15816 6.8061 4.20404 6.82547L9.17737 8.8902V13.5047C9.17737 13.5095 9.17737 13.5144 9.17737 13.5192C9.19339 15.7798 12.5714 17.5472 16.882 17.5472ZM26.0134 14.8558L26.8348 12.0436L27.7342 14.8488L26.0134 14.8558ZM9.67589 9.09624L16.7972 12.0528C16.8267 12.0649 16.8581 12.0711 16.8897 12.071C16.922 12.071 16.9539 12.0645 16.9837 12.0517L24.0875 9.03722V13.5042C24.0875 15.4154 20.788 17.03 16.882 17.03C12.9759 17.03 9.67589 15.4154 9.67589 13.5042V9.09624ZM28.7798 6.48743L16.8887 11.5312L4.96086 6.57972L16.8515 1.53595L28.7798 6.48743Z" stroke="black" stroke-width="0.7" mask="url(#path-1-outside-1)"/>
<mask id="path-2-outside-2" maskUnits="userSpaceOnUse" x="-1.03807" y="16.0143" width="34.6627" height="20.9237" fill="black">
<rect fill="white" x="-1.03807" y="16.0143" width="34.6627" height="20.9237"/>
<path d="M9.4196 30.9118C9.62797 30.9075 9.83598 30.9331 10.0377 30.9878C10.7843 31.1884 11.6434 31.449 12.5489 31.7248C13.8897 32.132 15.2738 32.5522 16.3039 32.7748C17.3963 33.0123 18.5314 32.914 19.5687 32.4921C19.8861 32.3463 27.3837 28.8872 31.7401 24.6469C32.8153 23.7438 32.8104 22.3578 32.1814 21.5351C31.5259 20.6757 30.3664 20.4389 29.3665 20.9319C29.064 20.6433 28.6793 20.4636 28.27 20.4199C27.8607 20.3761 27.4491 20.4707 27.097 20.6894C26.0541 21.2986 24.1866 22.4704 21.5503 24.1662C21.3037 24.1047 21.0534 24.0602 20.8011 24.0329L20.5559 24.0028C19.7383 23.9021 18.8916 23.8022 17.0566 23.4266C16.2299 23.2704 15.4281 22.996 14.6743 22.6114C14.4542 22.5056 14.2263 22.3954 13.9727 22.2914C12.6161 21.7317 11.1206 21.2558 9.37446 21.5449C8.57101 21.6788 7.88363 21.8637 7.17112 22.2783C6.91456 22.43 6.66851 22.5999 6.43474 22.7867C6.28256 22.9083 6.14149 23.027 5.98479 23.1591C5.8281 23.2913 5.67587 23.4206 5.4742 23.584C4.71508 24.1982 2.03555 25.2795 1.06678 25.6437C1.00963 25.6568 0.955888 25.6824 0.909126 25.7187C0.862364 25.755 0.823668 25.8012 0.795628 25.8542C0.767588 25.9073 0.750849 25.9659 0.746528 26.0262C0.742207 26.0865 0.750404 26.1471 0.770572 26.2039C0.790741 26.2608 0.822415 26.3125 0.863478 26.3558C0.904541 26.399 0.954048 26.4327 1.00869 26.4546C1.06333 26.4766 1.12184 26.4862 1.18032 26.4829C1.2388 26.4796 1.29589 26.4635 1.34779 26.4356L1.3651 26.4292C1.65347 26.32 4.98585 25.0513 5.9786 24.2477C6.18575 24.0798 6.35167 23.9393 6.50289 23.8116C6.6541 23.6839 6.78696 23.5719 6.93275 23.4555C7.79943 22.7698 8.53249 22.54 9.50562 22.3791C11.0558 22.1215 12.4235 22.562 13.671 23.0758C13.9039 23.172 14.1106 23.2719 14.3307 23.3777C15.1438 23.7919 16.0084 24.0876 16.8998 24.2561C18.7632 24.6378 19.6628 24.746 20.4634 24.8428L20.7086 24.873C21.1174 24.9233 21.3563 24.9664 21.6229 25.0711C21.7307 25.108 21.832 25.1626 21.923 25.2329C22.1065 25.383 22.2444 25.5845 22.3199 25.8132C22.3214 25.8187 22.3233 25.824 22.3255 25.8293L22.3245 25.8386C22.3672 26.0363 22.356 26.2423 22.292 26.4335C22.1582 26.8843 21.7324 27.2631 21.2048 27.3984C20.9912 27.4488 20.7705 27.4593 20.5531 27.4295C20.4966 27.4225 14.9215 26.9143 12.757 26.351C12.6574 26.3384 12.557 26.3637 12.4744 26.4223C12.3919 26.4808 12.333 26.5685 12.3087 26.6689C12.2844 26.7692 12.2965 26.8754 12.3426 26.9674C12.3887 27.0594 12.4658 27.131 12.5592 27.1686C13.5964 27.4383 15.3352 27.6908 16.9204 27.886C18.7395 28.1099 20.355 28.2574 20.4739 28.2686C20.7847 28.308 21.0996 28.2903 21.4041 28.2162C22.2152 28.008 22.8544 27.4201 23.0697 26.6816C23.1443 26.4363 23.1734 26.1787 23.1556 25.922L29.5955 21.7516L29.6004 21.7522C30.374 21.2955 31.1616 21.5585 31.5392 22.0533C31.9168 22.5482 31.9069 23.4206 31.2126 23.9966L31.1877 24.0184C26.9366 28.1638 19.3112 31.6826 19.2517 31.7104C18.3666 32.0681 17.3991 32.1512 16.4676 31.9495C15.4707 31.7344 14.1013 31.316 12.7763 30.9159C11.8619 30.6382 10.9988 30.3762 10.2389 30.1757C9.57141 29.9973 8.86609 30.0509 8.2322 30.3284L3.74002 32.2946C3.65959 32.3329 3.59334 32.397 3.55115 32.4774C3.50895 32.5578 3.49305 32.6502 3.50582 32.7408C3.51858 32.8314 3.55933 32.9154 3.62199 32.9803C3.68465 33.0452 3.76588 33.0875 3.8536 33.101C3.92422 33.1098 3.99578 33.0991 4.06101 33.07L8.56323 31.0956C8.83467 30.9787 9.1253 30.9164 9.4196 30.9118ZM28.6076 21.3981L22.8896 25.1003C22.7698 24.9121 22.6249 24.7421 22.4592 24.5956C22.4536 24.5917 22.4482 24.5873 22.4433 24.5825C24.8273 23.0507 26.5274 21.9875 27.4993 21.42C27.6656 21.316 27.8556 21.2592 28.0502 21.2554C28.2448 21.2516 28.4371 21.3008 28.6076 21.3981Z"/>
</mask>
<path d="M9.4196 30.9118C9.62797 30.9075 9.83598 30.9331 10.0377 30.9878C10.7843 31.1884 11.6434 31.449 12.5489 31.7248C13.8897 32.132 15.2738 32.5522 16.3039 32.7748C17.3963 33.0123 18.5314 32.914 19.5687 32.4921C19.8861 32.3463 27.3837 28.8872 31.7401 24.6469C32.8153 23.7438 32.8104 22.3578 32.1814 21.5351C31.5259 20.6757 30.3664 20.4389 29.3665 20.9319C29.064 20.6433 28.6793 20.4636 28.27 20.4199C27.8607 20.3761 27.4491 20.4707 27.097 20.6894C26.0541 21.2986 24.1866 22.4704 21.5503 24.1662C21.3037 24.1047 21.0534 24.0602 20.8011 24.0329L20.5559 24.0028C19.7383 23.9021 18.8916 23.8022 17.0566 23.4266C16.2299 23.2704 15.4281 22.996 14.6743 22.6114C14.4542 22.5056 14.2263 22.3954 13.9727 22.2914C12.6161 21.7317 11.1206 21.2558 9.37446 21.5449C8.57101 21.6788 7.88363 21.8637 7.17112 22.2783C6.91456 22.43 6.66851 22.5999 6.43474 22.7867C6.28256 22.9083 6.14149 23.027 5.98479 23.1591C5.8281 23.2913 5.67587 23.4206 5.4742 23.584C4.71508 24.1982 2.03555 25.2795 1.06678 25.6437C1.00963 25.6568 0.955888 25.6824 0.909126 25.7187C0.862364 25.755 0.823668 25.8012 0.795628 25.8542C0.767588 25.9073 0.750849 25.9659 0.746528 26.0262C0.742207 26.0865 0.750404 26.1471 0.770572 26.2039C0.790741 26.2608 0.822415 26.3125 0.863478 26.3558C0.904541 26.399 0.954048 26.4327 1.00869 26.4546C1.06333 26.4766 1.12184 26.4862 1.18032 26.4829C1.2388 26.4796 1.29589 26.4635 1.34779 26.4356L1.3651 26.4292C1.65347 26.32 4.98585 25.0513 5.9786 24.2477C6.18575 24.0798 6.35167 23.9393 6.50289 23.8116C6.6541 23.6839 6.78696 23.5719 6.93275 23.4555C7.79943 22.7698 8.53249 22.54 9.50562 22.3791C11.0558 22.1215 12.4235 22.562 13.671 23.0758C13.9039 23.172 14.1106 23.2719 14.3307 23.3777C15.1438 23.7919 16.0084 24.0876 16.8998 24.2561C18.7632 24.6378 19.6628 24.746 20.4634 24.8428L20.7086 24.873C21.1174 24.9233 21.3563 24.9664 21.6229 25.0711C21.7307 25.108 21.832 25.1626 21.923 25.2329C22.1065 25.383 22.2444 25.5845 22.3199 25.8132C22.3214 25.8187 22.3233 25.824 22.3255 25.8293L22.3245 25.8386C22.3672 26.0363 22.356 26.2423 22.292 26.4335C22.1582 26.8843 21.7324 27.2631 21.2048 27.3984C20.9912 27.4488 20.7705 27.4593 20.5531 27.4295C20.4966 27.4225 14.9215 26.9143 12.757 26.351C12.6574 26.3384 12.557 26.3637 12.4744 26.4223C12.3919 26.4808 12.333 26.5685 12.3087 26.6689C12.2844 26.7692 12.2965 26.8754 12.3426 26.9674C12.3887 27.0594 12.4658 27.131 12.5592 27.1686C13.5964 27.4383 15.3352 27.6908 16.9204 27.886C18.7395 28.1099 20.355 28.2574 20.4739 28.2686C20.7847 28.308 21.0996 28.2903 21.4041 28.2162C22.2152 28.008 22.8544 27.4201 23.0697 26.6816C23.1443 26.4363 23.1734 26.1787 23.1556 25.922L29.5955 21.7516L29.6004 21.7522C30.374 21.2955 31.1616 21.5585 31.5392 22.0533C31.9168 22.5482 31.9069 23.4206 31.2126 23.9966L31.1877 24.0184C26.9366 28.1638 19.3112 31.6826 19.2517 31.7104C18.3666 32.0681 17.3991 32.1512 16.4676 31.9495C15.4707 31.7344 14.1013 31.316 12.7763 30.9159C11.8619 30.6382 10.9988 30.3762 10.2389 30.1757C9.57141 29.9973 8.86609 30.0509 8.2322 30.3284L3.74002 32.2946C3.65959 32.3329 3.59334 32.397 3.55115 32.4774C3.50895 32.5578 3.49305 32.6502 3.50582 32.7408C3.51858 32.8314 3.55933 32.9154 3.62199 32.9803C3.68465 33.0452 3.76588 33.0875 3.8536 33.101C3.92422 33.1098 3.99578 33.0991 4.06101 33.07L8.56323 31.0956C8.83467 30.9787 9.1253 30.9164 9.4196 30.9118ZM28.6076 21.3981L22.8896 25.1003C22.7698 24.9121 22.6249 24.7421 22.4592 24.5956C22.4536 24.5917 22.4482 24.5873 22.4433 24.5825C24.8273 23.0507 26.5274 21.9875 27.4993 21.42C27.6656 21.316 27.8556 21.2592 28.0502 21.2554C28.2448 21.2516 28.4371 21.3008 28.6076 21.3981Z" fill="#343434"/>
<path d="M9.4196 30.9118C9.62797 30.9075 9.83598 30.9331 10.0377 30.9878C10.7843 31.1884 11.6434 31.449 12.5489 31.7248C13.8897 32.132 15.2738 32.5522 16.3039 32.7748C17.3963 33.0123 18.5314 32.914 19.5687 32.4921C19.8861 32.3463 27.3837 28.8872 31.7401 24.6469C32.8153 23.7438 32.8104 22.3578 32.1814 21.5351C31.5259 20.6757 30.3664 20.4389 29.3665 20.9319C29.064 20.6433 28.6793 20.4636 28.27 20.4199C27.8607 20.3761 27.4491 20.4707 27.097 20.6894C26.0541 21.2986 24.1866 22.4704 21.5503 24.1662C21.3037 24.1047 21.0534 24.0602 20.8011 24.0329L20.5559 24.0028C19.7383 23.9021 18.8916 23.8022 17.0566 23.4266C16.2299 23.2704 15.4281 22.996 14.6743 22.6114C14.4542 22.5056 14.2263 22.3954 13.9727 22.2914C12.6161 21.7317 11.1206 21.2558 9.37446 21.5449C8.57101 21.6788 7.88363 21.8637 7.17112 22.2783C6.91456 22.43 6.66851 22.5999 6.43474 22.7867C6.28256 22.9083 6.14149 23.027 5.98479 23.1591C5.8281 23.2913 5.67587 23.4206 5.4742 23.584C4.71508 24.1982 2.03555 25.2795 1.06678 25.6437C1.00963 25.6568 0.955888 25.6824 0.909126 25.7187C0.862364 25.755 0.823668 25.8012 0.795628 25.8542C0.767588 25.9073 0.750849 25.9659 0.746528 26.0262C0.742207 26.0865 0.750404 26.1471 0.770572 26.2039C0.790741 26.2608 0.822415 26.3125 0.863478 26.3558C0.904541 26.399 0.954048 26.4327 1.00869 26.4546C1.06333 26.4766 1.12184 26.4862 1.18032 26.4829C1.2388 26.4796 1.29589 26.4635 1.34779 26.4356L1.3651 26.4292C1.65347 26.32 4.98585 25.0513 5.9786 24.2477C6.18575 24.0798 6.35167 23.9393 6.50289 23.8116C6.6541 23.6839 6.78696 23.5719 6.93275 23.4555C7.79943 22.7698 8.53249 22.54 9.50562 22.3791C11.0558 22.1215 12.4235 22.562 13.671 23.0758C13.9039 23.172 14.1106 23.2719 14.3307 23.3777C15.1438 23.7919 16.0084 24.0876 16.8998 24.2561C18.7632 24.6378 19.6628 24.746 20.4634 24.8428L20.7086 24.873C21.1174 24.9233 21.3563 24.9664 21.6229 25.0711C21.7307 25.108 21.832 25.1626 21.923 25.2329C22.1065 25.383 22.2444 25.5845 22.3199 25.8132C22.3214 25.8187 22.3233 25.824 22.3255 25.8293L22.3245 25.8386C22.3672 26.0363 22.356 26.2423 22.292 26.4335C22.1582 26.8843 21.7324 27.2631 21.2048 27.3984C20.9912 27.4488 20.7705 27.4593 20.5531 27.4295C20.4966 27.4225 14.9215 26.9143 12.757 26.351C12.6574 26.3384 12.557 26.3637 12.4744 26.4223C12.3919 26.4808 12.333 26.5685 12.3087 26.6689C12.2844 26.7692 12.2965 26.8754 12.3426 26.9674C12.3887 27.0594 12.4658 27.131 12.5592 27.1686C13.5964 27.4383 15.3352 27.6908 16.9204 27.886C18.7395 28.1099 20.355 28.2574 20.4739 28.2686C20.7847 28.308 21.0996 28.2903 21.4041 28.2162C22.2152 28.008 22.8544 27.4201 23.0697 26.6816C23.1443 26.4363 23.1734 26.1787 23.1556 25.922L29.5955 21.7516L29.6004 21.7522C30.374 21.2955 31.1616 21.5585 31.5392 22.0533C31.9168 22.5482 31.9069 23.4206 31.2126 23.9966L31.1877 24.0184C26.9366 28.1638 19.3112 31.6826 19.2517 31.7104C18.3666 32.0681 17.3991 32.1512 16.4676 31.9495C15.4707 31.7344 14.1013 31.316 12.7763 30.9159C11.8619 30.6382 10.9988 30.3762 10.2389 30.1757C9.57141 29.9973 8.86609 30.0509 8.2322 30.3284L3.74002 32.2946C3.65959 32.3329 3.59334 32.397 3.55115 32.4774C3.50895 32.5578 3.49305 32.6502 3.50582 32.7408C3.51858 32.8314 3.55933 32.9154 3.62199 32.9803C3.68465 33.0452 3.76588 33.0875 3.8536 33.101C3.92422 33.1098 3.99578 33.0991 4.06101 33.07L8.56323 31.0956C8.83467 30.9787 9.1253 30.9164 9.4196 30.9118ZM28.6076 21.3981L22.8896 25.1003C22.7698 24.9121 22.6249 24.7421 22.4592 24.5956C22.4536 24.5917 22.4482 24.5873 22.4433 24.5825C24.8273 23.0507 26.5274 21.9875 27.4993 21.42C27.6656 21.316 27.8556 21.2592 28.0502 21.2554C28.2448 21.2516 28.4371 21.3008 28.6076 21.3981Z" stroke="#343434" stroke-width="0.4" mask="url(#path-2-outside-2)"/>
</svg>
