<svg width="93" height="93" viewBox="0 0 93 93" fill="none" xmlns="http://www.w3.org/2000/svg">
<path d="M47.2819 32.6955C47.4079 32.6955 47.5325 32.6702 47.6486 32.6212C47.6489 32.6211 47.6491 32.621 47.6494 32.6209L67.7402 24.2043V36.5163C67.7402 39.0776 65.4893 41.5183 61.7302 43.3342C57.9918 45.1401 52.8474 46.2808 47.2591 46.2808C41.6708 46.2808 36.526 45.1401 32.7873 43.3342C29.0278 41.5183 26.7765 39.0776 26.7765 36.5163V24.3688L46.9206 32.625L46.9212 32.6253C47.0358 32.6719 47.1583 32.6958 47.2819 32.6955ZM47.2819 32.6955C47.2817 32.6955 47.2815 32.6955 47.2812 32.6955L47.2815 32.4455L47.2821 32.6955C47.282 32.6955 47.282 32.6955 47.2819 32.6955ZM72.565 42.0822L72.5661 42.0822L79.4748 42.0547L79.475 41.8047L79.476 42.0547L79.475 42.0547C79.6291 42.0548 79.7808 42.0173 79.9174 41.9454C80.054 41.8736 80.1713 41.7698 80.26 41.6431C80.3487 41.5163 80.4063 41.3702 80.4286 41.217C80.4508 41.0641 80.4374 40.9081 80.3891 40.7614C80.389 40.7609 80.3888 40.7605 80.3887 40.7601L76.834 29.7994L76.7991 20.4146L83.7704 17.4935L83.7793 17.4898L83.7878 17.4854C83.8195 17.4692 83.8502 17.4509 83.8797 17.4307C84.0356 17.3416 84.1634 17.2102 84.2495 17.0519C84.3377 16.8894 84.3785 16.705 84.3677 16.5204C84.3569 16.3357 84.2947 16.1574 84.1879 16.0067C84.0812 15.8562 83.9343 15.7392 83.7636 15.6704C83.7633 15.6702 83.763 15.6701 83.7627 15.67L47.5326 0.821877C47.2995 0.726041 47.039 0.726041 46.8059 0.821872L46.8043 0.822517L10.6873 15.9547C10.5085 16.0292 10.3565 16.1563 10.2499 16.3186C10.1434 16.4809 10.0869 16.6715 10.0869 16.8659C10.0869 17.0603 10.1434 17.2509 10.2499 17.4132C10.3565 17.5755 10.5085 17.7026 10.6873 17.7771L10.6887 17.7777L24.8423 23.5787V36.5178V36.5179V36.518V36.518V36.5181V36.5182V36.5183V36.5184V36.5184V36.5185V36.5186V36.5187V36.5188V36.5188V36.5189V36.519V36.5191V36.5192V36.5192V36.5193V36.5194V36.5195V36.5196V36.5196V36.5197V36.5198V36.5199V36.52V36.52V36.5201V36.5202V36.5203V36.5204V36.5204V36.5205V36.5206V36.5207V36.5208V36.5209V36.5209V36.521V36.5211V36.5212V36.5213V36.5213V36.5214V36.5215V36.5216V36.5217V36.5217V36.5218V36.5219V36.522V36.5221V36.5221V36.5222V36.5223V36.5224V36.5225V36.5225V36.5226V36.5227V36.5228V36.5229V36.5229V36.523V36.5231V36.5232V36.5233V36.5233V36.5234V36.5235V36.5236V36.5237V36.5237V36.5238V36.5239V36.524V36.5241V36.5241V36.5242V36.5243V36.5244V36.5245V36.5245V36.5246V36.5247V36.5248V36.5249V36.5249V36.525V36.5251V36.5252V36.5253V36.5254V36.5254V36.5255V36.5256V36.5257V36.5258V36.5258V36.5259V36.526V36.5261V36.5262V36.5262V36.5263V36.5264V36.5265V36.5266V36.5266V36.5267V36.5268V36.5269V36.527V36.527V36.5271V36.5272V36.5273V36.5274V36.5274V36.5275V36.5276V36.5277V36.5278V36.5278V36.5279V36.528V36.5281V36.5282V36.5282V36.5283V36.5284V36.5285V36.5286V36.5286V36.5287V36.5288V36.5289V36.529V36.529V36.5291V36.5292V36.5293V36.5294V36.5294V36.5295V36.5296V36.5297V36.5298V36.5299V36.5299V36.53V36.5301V36.5302V36.5303V36.5303V36.5304V36.5305V36.5306V36.5307V36.5307V36.5308V36.5309V36.531V36.5311V36.5311V36.5312V36.5313V36.5314V36.5315V36.5315V36.5316V36.5317V36.5318V36.5319V36.5319V36.532V36.5321V36.5322V36.5323V36.5323V36.5324V36.5325V36.5326V36.5327V36.5327V36.5328V36.5329V36.533V36.5331V36.5331V36.5332V36.5333V36.5334V36.5335V36.5336V36.5336V36.5337V36.5338V36.5339V36.534V36.534V36.5341V36.5342V36.5343V36.5344V36.5344V36.5345V36.5346V36.5347V36.5348V36.5348V36.5349V36.535V36.5351V36.5352V36.5352V36.5353V36.5354V36.5355V36.5356V36.5356V36.5357V36.5358V36.5359V36.536V36.536V36.5361V36.5362V36.5363V36.5364V36.5364V36.5365V36.5366V36.5367V36.5368V36.5368V36.5369V36.537V36.5371V36.5372V36.5372V36.5373V36.5374V36.5375V36.5376V36.5376V36.5377V36.5378V36.5379V36.538V36.538V36.5381V36.5382V36.5383V36.5384V36.5385V36.5385V36.5386V36.5387V36.5388V36.5389V36.5389V36.539V36.5391V36.5392V36.5393V36.5393V36.5394V36.5395V36.5396V36.5397V36.5397V36.5398V36.5399V36.54V36.5401V36.5401V36.5402V36.5403V36.5404V36.5405V36.5405V36.5406V36.5407V36.5408V36.5409V36.5409V36.541V36.5411V36.5412V36.5413V36.5413V36.5414V36.5415V36.5416V36.5417V36.5417V36.5418V36.5419V36.542V36.5421V36.5421V36.5422V36.5423V36.5424V36.5425V36.5425V36.5426V36.5427V36.5428V36.5429V36.543V36.543V36.5431V36.5432V36.5433V36.5434V36.5434V36.5435V36.5436V36.5437V36.5438V36.5438V36.5439V36.544V36.5441V36.5442V36.5442V36.5443V36.5444V36.5445V36.5446V36.5446V36.5447V36.5448V36.5449V36.545V36.545V36.5451V36.5452V36.5453V36.5454V36.5454V36.5455V36.5456V36.5457V36.5458V36.5458V36.5459V36.546V36.5461V36.5462V36.5462V36.5463V36.5464V36.5465V36.5466V36.5466V36.5467V36.5468V36.5469V36.547V36.5471V36.5471V36.5472V36.5473V36.5474V36.5475V36.5475V36.5476V36.5477V36.5478V36.5479V36.5479V36.548V36.5481V36.5482V36.5483V36.5483V36.5484V36.5485V36.5486V36.5487V36.5487V36.5488V36.5489V36.549V36.5491V36.5491V36.5492V36.5493V36.5494V36.5495V36.5495V36.5496V36.5497V36.5498V36.5499V36.5499V36.55V36.5501V36.5502V36.5503V36.5503V36.5504V36.5505V36.5506V36.5507V36.5507V36.5508V36.5509V36.551V36.5511V36.5512V36.5512V36.5513V36.5514V36.5515V36.5516V36.5516V36.5517V36.5518V36.5519V36.552V36.552V36.5521V36.5522V36.5523V36.5524V36.5524V36.5525V36.5526V36.5527V36.5528V36.5528V36.5529V36.553V36.5531V36.5532V36.5532V36.5533V36.5534V36.5535V36.5536V36.5536V36.5537V36.5538V36.5539V36.554V36.554V36.5541V36.5542V36.5543V36.5544V36.5544V36.5545V36.5546V36.5547V36.5548V36.5548V36.5549V36.555V36.5551V36.5552V36.5552V36.5553V36.5554V36.5555V36.5556V36.5557V36.5557V36.5558V36.5559V36.556V36.5561V36.5561V36.5562V36.5563V36.5564V36.5565V36.5565V36.5566V36.5567V36.5568V36.5569V36.5569V36.557V36.5571V36.5572V36.5573V36.5573V36.5574V36.5575V36.5576V36.5577V36.5577V36.5578V36.5579V36.558V36.5581V36.5581V36.5582V36.5583V36.5584V36.5585V36.5585V36.5586V36.5587V36.5588V36.5589L24.8423 36.5589L24.8423 36.5607C24.8663 39.909 27.4089 42.8347 31.4276 44.9094C35.4564 46.9893 41.0279 48.25 47.2591 48.25C53.5038 48.25 59.0862 46.9832 63.1168 44.8948C67.1374 42.8116 69.6731 39.8744 69.6731 36.5163V23.3944L74.867 21.2181L74.8997 29.7991L71.6403 40.8133C71.597 40.9595 71.5876 41.1141 71.6131 41.2646C71.6385 41.4152 71.6981 41.5579 71.7873 41.6814C71.8766 41.805 71.9933 41.9059 72.1284 41.9757C72.2635 42.0455 72.4131 42.0821 72.565 42.0822ZM78.1386 40.0869L73.8663 40.104L75.9056 33.2114L78.1386 40.0869ZM47.1725 2.79289L80.8372 16.5887L47.2775 30.6417L13.6141 16.8459L47.1725 2.79289Z" fill="#343434" stroke="black" stroke-width="0.5"/>
<path d="M57.5829 78.5519C58.4885 78.6652 59.4061 78.6141 60.2933 78.401L60.2945 78.4007C62.6573 77.8018 64.5264 76.1093 65.1571 73.9743C65.3694 73.285 65.4557 72.5617 65.4121 71.8403L83.8608 60.0456L83.8727 60.0471L83.9015 60.0303C86.0832 58.7588 88.294 59.4933 89.3502 60.8599C90.4022 62.2209 90.3831 64.6379 88.4257 66.2409L88.4237 66.2427L88.3522 66.3045L88.3521 66.3044L88.3483 66.308C82.242 72.1865 73.7082 77.6238 66.6752 81.603C59.7613 85.5148 54.3043 88.0138 54.0432 88.1333L54.0369 88.1362C51.5093 89.1442 48.7465 89.3782 46.0867 88.8098L46.0867 88.8098C43.3693 88.2309 39.6867 87.1324 36.0583 86.0501C35.8634 85.9919 35.6688 85.9339 35.4744 85.8759L57.5931 78.4524M57.5829 78.5519C57.5824 78.5519 57.5819 78.5518 57.5814 78.5517L57.5931 78.4524M57.5829 78.5519C57.5835 78.552 57.584 78.552 57.5845 78.5521L57.5931 78.4524M57.5829 78.5519C57.5659 78.5503 57.539 78.5479 57.5027 78.5445C56.7815 78.4783 52.3344 78.0697 47.3579 77.465C42.7976 76.9109 37.7888 76.193 34.7975 75.4251L34.785 75.4219L34.7853 75.4212C34.4933 75.305 34.2531 75.0845 34.1094 74.8015C33.9657 74.5186 33.9283 74.1924 34.0038 73.8842C34.0793 73.576 34.2627 73.3063 34.5201 73.1261C34.7775 72.9459 35.0912 72.8676 35.4022 72.9064L35.415 72.908L35.4148 72.9088C38.5209 73.7068 44.0811 74.4671 48.891 75.0306C51.2947 75.3122 53.5091 75.5444 55.1326 75.7075C56.3456 75.8293 57.2314 75.9128 57.618 75.9492C57.748 75.9615 57.8216 75.9684 57.8321 75.9697L57.8335 75.9699C58.4466 76.0529 59.0691 76.0237 59.6717 75.8837M57.5931 78.4524C57.5762 78.4508 57.5487 78.4483 57.5112 78.4449C56.7898 78.3786 52.3442 77.9702 47.3693 77.3657C42.8083 76.8115 37.8057 76.0942 34.8217 75.3282C34.5528 75.2212 34.3312 75.018 34.1984 74.7566C34.0657 74.4953 34.031 74.1937 34.1008 73.9087C34.1707 73.6236 34.3402 73.3745 34.5777 73.2083C34.8151 73.042 35.1042 72.97 35.3905 73.0057C41.2316 74.5065 55.7055 75.8696 57.6132 76.0492C57.7394 76.0611 57.8107 76.0678 57.8207 76.069C58.4462 76.1537 59.0812 76.1239 59.6959 75.9809M59.6717 75.8837C59.6714 75.8837 59.6711 75.8838 59.6708 75.8839L59.6959 75.9809M59.6717 75.8837C61.1621 75.506 62.3551 74.4513 62.7283 73.2108L62.7293 73.2076L62.7293 73.2076C62.9074 72.6815 62.9387 72.1149 62.8198 71.5711L62.8162 71.5548L62.8181 71.5382L62.8183 71.5368C62.8148 71.5271 62.8116 71.5173 62.8087 71.5074C62.5975 70.8771 62.2127 70.3222 61.7008 69.9087C61.4481 69.7161 61.1668 69.5663 60.8675 69.4652L60.8634 69.4638L60.8634 69.4637C60.1083 69.171 59.4313 69.0497 58.257 68.907L57.5515 68.8213L57.5513 68.8213L57.5239 68.818C55.2258 68.5436 52.6341 68.2342 47.2914 67.1539C44.7183 66.6734 42.2223 65.8309 39.8751 64.6506C39.8748 64.6504 39.8744 64.6503 39.8741 64.6501L39.817 64.623C39.2053 64.3327 38.6294 64.0594 37.9834 63.7957C34.3983 62.338 30.4848 61.096 26.0529 61.823L26.0528 61.823C23.2636 62.2783 21.1719 62.9264 18.6955 64.8606M59.6717 75.8837C59.672 75.8836 59.6723 75.8835 59.6727 75.8834L59.6959 75.9809M59.6959 75.9809C61.2138 75.5967 62.4388 74.5205 62.824 73.2403C63.0078 72.697 63.0402 72.112 62.9174 71.5503L62.9204 71.5239C62.914 71.5091 62.9085 71.4938 62.9041 71.4782C62.6868 70.8286 62.2902 70.2563 61.7621 69.8301C61.5005 69.6304 61.209 69.4752 60.8989 69.3704M60.8989 69.3704C60.1316 69.073 59.4445 68.9506 58.2684 68.8077L57.5627 68.7219L57.5344 68.7186C55.2381 68.4444 52.6491 68.1353 47.3098 67.0556C44.7454 66.5768 42.2578 65.7372 39.9184 64.5607L39.8584 64.5322C39.2474 64.2422 38.6691 63.9677 38.0205 63.703C34.4313 62.2436 30.4963 60.9926 26.0361 61.7242C23.2363 62.1812 21.1272 62.8339 18.6337 64.7816L60.8989 69.3704ZM60.8989 69.3704L18.6955 64.8606M18.6955 64.8606C18.2774 65.1902 17.8962 65.5074 17.4612 65.8702L17.4086 65.914C16.9876 66.265 16.5241 66.6515 15.9512 67.11L15.9512 67.11C15.2286 67.6874 14.0861 68.3445 12.7717 69.0086C11.4557 69.6736 9.96146 70.3486 8.53164 70.9616C5.67189 72.1875 3.06589 73.1665 2.65048 73.3216L2.64989 73.3219L2.60633 73.3378C2.44603 73.4218 2.26997 73.4704 2.08958 73.4804C1.90688 73.4906 1.72405 73.4608 1.55336 73.3932C1.38268 73.3256 1.22816 73.2217 1.10007 73.0885C0.971982 72.9554 0.873304 72.7961 0.810507 72.6214C0.747709 72.4467 0.722217 72.2605 0.735659 72.0753C0.749101 71.8901 0.801179 71.71 0.888462 71.547C0.975749 71.3841 1.09628 71.2419 1.24207 71.1302C1.38608 71.0198 1.55148 70.9416 1.72752 70.9008C3.12124 70.3833 5.73967 69.359 8.28269 68.2463C9.55606 67.6891 10.8096 67.1102 11.8806 66.5621C12.9533 66.013 13.837 65.4977 14.3747 65.0682C14.8933 64.6533 15.2979 64.3161 15.7006 63.9806C15.7478 63.9413 15.7949 63.902 15.8422 63.8626C16.2929 63.4873 16.6997 63.1494 17.1387 62.803C17.8149 62.2696 18.5267 61.7846 19.2688 61.3514L19.2694 61.351C21.3336 60.1652 23.3242 59.6373 25.6419 59.2561L25.642 59.2561C30.6934 58.4304 35.0172 59.7906 38.9255 61.3825C39.6335 61.6691 40.2724 61.9723 40.8859 62.2635L40.9493 62.2936L40.9515 62.2946C43.1118 63.3829 45.4096 64.1592 47.7786 64.601L47.7801 64.6013C52.9137 65.6387 55.3558 65.9351 57.6494 66.2134L57.8402 66.2366L58.5452 66.3223C59.2611 66.3987 59.9715 66.5226 60.6718 66.693C68.2366 61.8893 73.5986 58.5679 76.5967 56.8387C77.628 56.2067 78.8338 55.9333 80.0329 56.0598C81.2097 56.1839 82.3173 56.6867 83.1956 57.494C86.0966 56.1143 89.4511 56.8013 91.3554 59.266C93.1967 61.6436 93.2072 65.64 90.0737 68.2404C77.5256 80.2966 55.9417 90.1268 55.0303 90.54L55.0264 90.5418L55.0263 90.5417C52.0236 91.7474 48.7377 92.0284 45.5752 91.3496C45.5751 91.3496 45.5751 91.3496 45.575 91.3496L45.5954 91.2518L18.6955 64.8606ZM27.5417 86.2728L27.5419 86.2728L35.4463 85.9718C32.8154 85.183 30.3321 84.4389 28.1459 83.8694L28.1707 83.7727C28.1706 83.7727 28.1705 83.7726 28.1704 83.7726C26.2283 83.2601 24.1763 83.4143 22.3323 84.211L22.3669 84.2904L22.3323 84.211L9.4078 89.7959L9.40778 89.7958L9.40496 89.7972C9.15397 89.9151 8.94758 90.1125 8.81623 90.3595C8.68489 90.6065 8.63545 90.8902 8.67516 91.1686C8.71487 91.4469 8.84171 91.7053 9.03716 91.9052C9.23265 92.1051 9.48628 92.2356 9.76038 92.2771L9.76316 92.2775C9.98422 92.3047 10.2081 92.2717 10.4121 92.182L23.3643 86.5743C23.3645 86.5743 23.3647 86.5742 23.3649 86.5741C24.134 86.2473 24.9572 86.0729 25.7908 86.0601L25.7886 85.96L25.7913 86.0601C26.3814 86.0481 26.9705 86.1196 27.5417 86.2728ZM80.7957 58.9459L64.5721 69.3159C64.2474 68.8277 63.8626 68.3837 63.4273 67.9948C70.2263 63.6829 75.0774 60.6887 77.856 59.087L77.8586 59.0854C78.322 58.7993 78.8515 58.6431 79.3934 58.6326C79.879 58.6231 80.3594 58.7308 80.7957 58.9459Z" fill="#343434" stroke="#343434" stroke-width="0.2"/>
</svg>
