<svg width="24" height="25" viewBox="0 0 24 25" fill="none" xmlns="http://www.w3.org/2000/svg">
<g clip-path="url(#clip0)">
<path d="M19.0557 25C19.487 25.0001 19.9011 24.8291 20.2091 24.5237C20.5171 24.2183 20.6945 23.8029 20.7031 23.3667L20.7333 20.3361C20.734 19.9964 20.6321 19.6645 20.4413 19.385C20.2504 19.1055 19.9796 18.8917 19.6652 18.7722V18.7C19.7406 18.1895 19.9765 17.7171 20.3379 17.3528L22.6635 15C23.2594 14.3974 23.6325 13.606 23.7206 12.7583L23.9705 10.3833C23.9873 10.2917 23.9965 10.1988 23.9979 10.1056V10.0861C23.9979 10.0861 23.9979 10.0556 23.9979 10.0417L23.8771 6.21389C23.8732 6.06723 23.8406 5.92281 23.7813 5.78896C23.7219 5.6551 23.637 5.53447 23.5313 5.43401C23.4256 5.33355 23.3013 5.25526 23.1656 5.20365C23.0298 5.15204 22.8853 5.12814 22.7404 5.13333C22.2216 5.15146 21.731 5.37674 21.376 5.75988C21.0209 6.14302 20.8303 6.65283 20.8459 7.17778L20.9035 9.00278L20.5988 10.2472C20.4099 10.2464 20.2227 10.2832 20.0479 10.3557C19.8731 10.4281 19.7141 10.5347 19.5801 10.6694L17.5758 12.7L16.8811 12.8194C16.4292 12.8993 16.0123 13.1175 15.6867 13.4444L14.3139 14.8333C13.897 15.2423 13.6571 15.8015 13.6467 16.3889L13.5973 18.7056C13.2743 18.8128 12.9925 19.0197 12.7916 19.2972C12.5907 19.5747 12.4807 19.9088 12.477 20.2528L12.4551 23.2778C12.455 23.7141 12.624 24.133 12.9259 24.4447C13.2277 24.7563 13.6384 24.9357 14.0695 24.9444L19.0392 24.9972L19.0557 25ZM14.8905 15.4361L16.2633 14.0472C16.4686 13.8419 16.7312 13.7052 17.0157 13.6556L17.8394 13.5111C17.8676 13.5057 17.8952 13.4973 17.9217 13.4861C17.9706 13.4661 18.0154 13.4369 18.0535 13.4L20.1512 11.2778C20.2648 11.1632 20.4188 11.099 20.5791 11.0993C20.6586 11.0994 20.7372 11.1153 20.8105 11.1462C20.8838 11.1771 20.9504 11.2223 21.0065 11.2792C21.0626 11.3361 21.107 11.4036 21.1373 11.4779C21.1676 11.5522 21.1831 11.6317 21.183 11.7121C21.1828 11.7924 21.1671 11.872 21.1365 11.9462C21.106 12.0203 21.0614 12.0877 21.0051 12.1444L18.5972 14.5806C18.5207 14.659 18.4778 14.7648 18.4778 14.875C18.4778 14.9852 18.5207 15.091 18.5972 15.1694C18.6749 15.2476 18.78 15.2915 18.8896 15.2915C18.9992 15.2915 19.1043 15.2476 19.182 15.1694L21.6092 12.7194C21.8754 12.4474 22.0248 12.0801 22.0248 11.6972C22.0248 11.3144 21.8754 10.947 21.6092 10.675C21.543 10.6104 21.4714 10.5518 21.395 10.5L21.719 9.16667C21.7173 9.16219 21.7173 9.15725 21.719 9.15278C21.719 9.15278 21.719 9.12222 21.719 9.10833C21.719 9.09444 21.719 9.08055 21.719 9.06667V9.05278L21.6586 7.17222C21.6497 6.86785 21.7602 6.57228 21.966 6.35005C22.1718 6.12782 22.4561 5.99698 22.7569 5.98611C22.7955 5.98435 22.834 5.99087 22.87 6.00523C22.906 6.01959 22.9385 6.04147 22.9655 6.06944C23.0152 6.12099 23.0445 6.18918 23.0479 6.26111L23.166 10.0583L23.1385 10.3361C23.1385 10.3361 23.1385 10.3556 23.1385 10.3667L22.8969 12.6889C22.8275 13.3469 22.5367 13.9608 22.0732 14.4278L19.7421 16.7861C19.2557 17.2776 18.9389 17.9147 18.8388 18.6028V18.6889L14.4457 18.6417L14.4951 16.4194C14.4951 16.052 14.637 15.6992 14.8905 15.4361ZM13.5177 23.8667C13.4434 23.79 13.3848 23.6992 13.3452 23.5996C13.3056 23.5 13.2859 23.3935 13.287 23.2861L13.32 20.2556C13.3214 20.0414 13.4059 19.8363 13.5554 19.6846C13.7049 19.5329 13.9072 19.4466 14.119 19.4444L19.0886 19.5C19.1947 19.5004 19.2996 19.5222 19.3972 19.5642C19.4948 19.6062 19.5831 19.6675 19.657 19.7444C19.7313 19.8211 19.7899 19.9119 19.8295 20.0115C19.869 20.1111 19.8888 20.2176 19.8876 20.325L19.8547 23.3556C19.854 23.4628 19.8323 23.5688 19.7908 23.6675C19.7493 23.7662 19.6889 23.8556 19.6131 23.9306C19.4581 24.0793 19.2529 24.1628 19.0392 24.1639L14.0695 24.1111C13.8588 24.1052 13.6583 24.0177 13.5094 23.8667H13.5177Z" fill="black"/>
<path d="M18.9127 21.4222C19.3024 21.4222 19.6183 21.1026 19.6183 20.7083C19.6183 20.3141 19.3024 19.9944 18.9127 19.9944C18.523 19.9944 18.207 20.3141 18.207 20.7083C18.207 21.1026 18.523 21.4222 18.9127 21.4222Z" fill="black"/>
<path d="M0.00103142 10.1C0.00228647 10.1934 0.0124003 10.2864 0.0312338 10.3778L0.278345 12.7528C0.364096 13.6027 0.737532 14.3966 1.33543 15L3.66652 17.3611C4.02893 17.7247 4.26497 18.1975 4.33921 18.7083V18.7778C4.11635 18.8631 3.91413 18.9957 3.74614 19.1667C3.59577 19.3213 3.47712 19.5044 3.39701 19.7056C3.3169 19.9068 3.27692 20.122 3.27937 20.3389L3.31232 23.3694C3.32158 23.8023 3.49697 24.2146 3.80138 24.5189C4.10578 24.8232 4.51531 24.9958 4.94326 25H4.95973L9.92941 24.9472C10.3606 24.9385 10.7712 24.7591 11.0731 24.4474C11.3749 24.1358 11.544 23.7169 11.5439 23.2806L11.5137 20.25C11.5077 19.9063 11.3969 19.5729 11.1964 19.2954C10.9958 19.0179 10.7154 18.8099 10.3934 18.7L10.3523 16.3889C10.3392 15.8111 10.106 15.2608 9.70152 14.8528L8.32868 13.4639C8.0031 13.1369 7.58624 12.9188 7.13431 12.8389L6.43965 12.7194L4.43531 10.6889C4.30149 10.5539 4.14257 10.4471 3.96774 10.3747C3.7929 10.3022 3.6056 10.2655 3.41666 10.2667L3.11463 9.02222L3.17229 7.19722C3.1871 6.67155 2.99551 6.16134 2.63944 5.7782C2.28337 5.39506 1.79181 5.17019 1.27228 5.15278C1.12247 5.14983 0.973587 5.17732 0.83446 5.23362C0.695333 5.28993 0.568785 5.37389 0.462306 5.48056C0.264279 5.68087 0.149365 5.95015 0.141061 6.23334L0.00103142 10.05C-0.000343808 10.0666 -0.000343808 10.0834 0.00103142 10.1ZM10.6872 20.2556L10.7202 23.2861C10.7203 23.5029 10.6369 23.7111 10.4877 23.8667C10.3385 24.0223 10.1353 24.1129 9.92118 24.1194L4.95149 24.1667C4.73752 24.1673 4.53171 24.0836 4.37765 23.9333C4.3018 23.8584 4.24139 23.769 4.19992 23.6703C4.15844 23.5716 4.13673 23.4656 4.13603 23.3583L4.10308 20.3278C4.10191 20.2204 4.12169 20.1139 4.16126 20.0143C4.20084 19.9147 4.25944 19.8239 4.33372 19.7472C4.40759 19.6702 4.49591 19.609 4.59351 19.567C4.69111 19.525 4.79602 19.5032 4.90207 19.5028L9.87176 19.4472C9.97776 19.4461 10.0829 19.4662 10.1813 19.5062C10.2797 19.5462 10.3693 19.6055 10.445 19.6805C10.5207 19.7556 10.5811 19.845 10.6226 19.9437C10.6642 20.0423 10.6861 20.1483 10.6872 20.2556ZM1.01693 6.05556C1.07201 6.00137 1.14604 5.97142 1.22286 5.97222C1.52341 5.98381 1.80731 6.11487 2.01293 6.33694C2.21856 6.55901 2.3293 6.85416 2.32113 7.15834L2.26073 9.03889V9.05278C2.26073 9.05278 2.26073 9.08056 2.26073 9.09445C2.26073 9.10834 2.26073 9.125 2.26073 9.13889C2.26242 9.14336 2.26242 9.14831 2.26073 9.15278L2.59021 10.5C2.51334 10.5511 2.44161 10.6097 2.37605 10.675C2.10845 10.9463 1.95817 11.3139 1.95817 11.6972C1.95817 12.0805 2.10845 12.4481 2.37605 12.7194L4.78401 15.1556C4.8617 15.2338 4.96683 15.2777 5.07642 15.2777C5.18601 15.2777 5.29115 15.2338 5.36884 15.1556C5.4453 15.0771 5.48816 14.9713 5.48816 14.8611C5.48816 14.7509 5.4453 14.6451 5.36884 14.5667L2.96088 12.1306C2.84728 12.016 2.78331 11.8605 2.78305 11.6982C2.78293 11.6179 2.79844 11.5383 2.82872 11.464C2.85899 11.3897 2.90343 11.3222 2.9595 11.2653C3.01557 11.2084 3.08217 11.1632 3.15549 11.1323C3.22882 11.1015 3.30744 11.0855 3.38686 11.0854C3.54725 11.0851 3.70118 11.1493 3.81478 11.2639L5.91248 13.3861C5.95064 13.423 5.99536 13.4522 6.04428 13.4722C6.07065 13.4838 6.09831 13.4922 6.12665 13.4972L6.95035 13.6417C7.23442 13.6925 7.49667 13.829 7.70267 14.0333L9.07551 15.4222C9.21121 15.5474 9.32111 15.6984 9.39886 15.8667C9.47661 16.035 9.52069 16.2172 9.52855 16.4028L9.57797 18.625L5.18488 18.675V18.5861C5.08455 17.8989 4.76775 17.2628 4.28155 16.7722L1.95046 14.4111C1.48753 13.9449 1.19676 13.332 1.12676 12.675L0.885141 10.35C0.885141 10.35 0.885141 10.3306 0.885141 10.3194L0.857684 10.0417L0.975748 6.24445C0.966665 6.17852 0.98128 6.11149 1.01693 6.05556Z" fill="black"/>
<path d="M5.0865 21.4222C5.47621 21.4222 5.79214 21.1026 5.79214 20.7083C5.79214 20.3141 5.47621 19.9944 5.0865 19.9944C4.69679 19.9944 4.38086 20.3141 4.38086 20.7083C4.38086 21.1026 4.69679 21.4222 5.0865 21.4222Z" fill="black"/>
<path d="M11.9985 8.98333C12.4872 8.98333 12.965 8.83671 13.3713 8.562C13.7777 8.2873 14.0944 7.89685 14.2815 7.44004C14.4685 6.98322 14.5174 6.48056 14.4221 5.9956C14.3267 5.51065 14.0914 5.0652 13.7458 4.71556C13.4002 4.36593 12.9599 4.12783 12.4805 4.03137C12.0012 3.9349 11.5043 3.98441 11.0528 4.17363C10.6013 4.36285 10.2153 4.68328 9.9438 5.09441C9.67227 5.50553 9.52734 5.98888 9.52734 6.48333C9.52734 7.14637 9.78769 7.78226 10.2511 8.2511C10.7145 8.71994 11.3431 8.98333 11.9985 8.98333ZM11.9985 4.81666C12.3243 4.81666 12.6428 4.91441 12.9137 5.09755C13.1846 5.28068 13.3958 5.54098 13.5205 5.84552C13.6452 6.15007 13.6778 6.48518 13.6142 6.80848C13.5506 7.13178 13.3937 7.42875 13.1634 7.66184C12.933 7.89493 12.6394 8.05366 12.3199 8.11797C12.0003 8.18228 11.669 8.14928 11.368 8.02313C11.067 7.89698 10.8097 7.68336 10.6287 7.40928C10.4477 7.1352 10.351 6.81297 10.351 6.48333C10.351 6.0413 10.5246 5.61738 10.8336 5.30482C11.1425 4.99226 11.5615 4.81666 11.9985 4.81666Z" fill="black"/>
<path d="M11.3467 12.9667H12.6482C12.8936 12.9667 13.129 12.868 13.3025 12.6925C13.476 12.5169 13.5735 12.2788 13.5735 12.0306V11.1528C14.1735 10.9449 14.7276 10.6203 15.2044 10.1972L15.9595 10.6361C16.0638 10.6989 16.1797 10.7397 16.3 10.7559C16.4203 10.7721 16.5427 10.7635 16.6596 10.7306C16.8924 10.6641 17.0897 10.5074 17.2088 10.2944L17.8732 9.16667C17.9947 8.95136 18.0271 8.69616 17.9634 8.45677C17.8996 8.21739 17.7448 8.01324 17.5328 7.88889L16.7804 7.44722C16.841 7.13334 16.8714 6.81425 16.8711 6.49444C16.8712 6.17372 16.8409 5.85373 16.7804 5.53889L17.5328 5.1C17.7448 4.97565 17.8996 4.7715 17.9634 4.53211C18.0271 4.29273 17.9947 4.03753 17.8732 3.82222L17.2143 2.67222C17.0919 2.45717 16.8901 2.30009 16.6532 2.2355C16.4164 2.17091 16.1639 2.2041 15.9513 2.32778L15.2044 2.77778C14.7283 2.3537 14.174 2.02896 13.5735 1.82222V0.936111C13.5735 0.687839 13.476 0.449735 13.3025 0.274181C13.129 0.0986257 12.8936 0 12.6482 0H11.3467C11.1013 0 10.866 0.0986257 10.6925 0.274181C10.5189 0.449735 10.4215 0.687839 10.4215 0.936111V1.81389C9.8197 2.02372 9.2646 2.35123 8.78777 2.77778L8.03545 2.33611C7.82438 2.21508 7.57486 2.18249 7.34032 2.24531C7.10579 2.30814 6.9049 2.46138 6.78068 2.67222L6.12995 3.81111C6.00747 4.02591 5.97425 4.28111 6.03757 4.52067C6.10088 4.76024 6.25557 4.96459 6.46767 5.08889L7.21999 5.53056C7.09924 6.15987 7.09924 6.8068 7.21999 7.43611L6.46767 7.87778C6.36022 7.93834 6.26583 8.02004 6.19005 8.11805C6.11426 8.21606 6.05862 8.32842 6.02638 8.44851C5.99415 8.5686 5.98598 8.694 6.00235 8.81733C6.01872 8.94066 6.05931 9.05943 6.12171 9.16667L6.78068 10.2944C6.89973 10.5074 7.0971 10.6641 7.32981 10.7306C7.40759 10.7525 7.48794 10.7637 7.56869 10.7639C7.73091 10.7633 7.89008 10.7192 8.02996 10.6361L8.78228 10.1972C9.26112 10.6189 9.81579 10.9434 10.416 11.1528V12.0306C10.416 12.154 10.4401 12.2761 10.4869 12.3901C10.5338 12.504 10.6024 12.6075 10.6889 12.6945C10.7754 12.7815 10.8781 12.8503 10.991 12.897C11.1039 12.9437 11.2248 12.9674 11.3467 12.9667ZM7.6236 9.91111C7.60025 9.92416 7.57277 9.9274 7.54709 9.92012C7.5214 9.91284 7.49957 9.89564 7.48632 9.87222L6.83559 8.73333C6.82232 8.70962 6.81862 8.68164 6.82527 8.65524C6.83192 8.62883 6.84841 8.60605 6.87129 8.59167L7.79933 8.05556L7.92837 7.96667L7.95034 7.94722C8.02458 7.88234 8.0733 7.79263 8.08762 7.69444C8.08899 7.66946 8.08899 7.64442 8.08762 7.61944C8.08762 7.61944 8.08762 7.61944 8.08762 7.60278C8.08917 7.58151 8.08917 7.56016 8.08762 7.53889C7.90826 6.85253 7.90826 6.1308 8.08762 5.44444C8.09717 5.39491 8.09717 5.34398 8.08762 5.29444C8.08138 5.23631 8.06327 5.18011 8.03444 5.12943C8.00561 5.07874 7.96669 5.03467 7.92014 5L7.79933 4.91944L6.87129 4.36389C6.84861 4.35002 6.83218 4.32774 6.82551 4.30179C6.81884 4.27584 6.82246 4.24829 6.83559 4.225L7.48632 3.08611C7.49957 3.06269 7.5214 3.04549 7.54709 3.03821C7.57277 3.03094 7.60025 3.03417 7.6236 3.04722L8.55164 3.58889C8.59446 3.61587 8.63946 3.6391 8.68618 3.65833H8.71364C8.7547 3.67486 8.79849 3.68335 8.84268 3.68333H8.85916C8.90797 3.68243 8.95627 3.67303 9.00193 3.65556C9.05153 3.63558 9.09642 3.60529 9.13373 3.56667C9.63121 3.06582 10.2492 2.70488 10.9267 2.51944H10.9569H10.9788C11.0182 2.50391 11.0545 2.48133 11.0859 2.45278C11.1185 2.42311 11.1463 2.38843 11.1683 2.35C11.1902 2.30858 11.2042 2.26334 11.2095 2.21667C11.2123 2.16393 11.2123 2.11107 11.2095 2.05833V0.936111C11.2084 0.918957 11.2115 0.901798 11.2187 0.886206C11.2258 0.870614 11.2368 0.857086 11.2504 0.846861C11.2641 0.836635 11.28 0.830039 11.2969 0.827676C11.3137 0.825312 11.3309 0.827258 11.3467 0.833333H12.6482C12.6751 0.833333 12.701 0.844162 12.72 0.863436C12.7391 0.882711 12.7498 0.908853 12.7498 0.936111V2.01667C12.747 2.06848 12.747 2.12041 12.7498 2.17222C12.7486 2.18887 12.7486 2.20558 12.7498 2.22222C12.7482 2.23235 12.7482 2.24265 12.7498 2.25278L12.7663 2.28611L12.7827 2.32778L12.8184 2.37778L12.8349 2.39444C12.8473 2.4088 12.8611 2.42183 12.8761 2.43333L12.9008 2.45L12.942 2.47778H12.9667L13.0189 2.49722C13.6969 2.68133 14.3152 3.04246 14.8118 3.54444C14.8501 3.58314 14.8959 3.6134 14.9463 3.63333C14.992 3.65081 15.0403 3.66021 15.0891 3.66111H15.1056C15.1498 3.66086 15.1935 3.65239 15.2346 3.63611H15.2621C15.3085 3.6163 15.3535 3.59309 15.3966 3.56667L16.3713 3.05556C16.3947 3.04251 16.4222 3.03927 16.4479 3.04655C16.4735 3.05382 16.4954 3.07103 16.5086 3.09444L17.1594 4.23333C17.1724 4.25737 17.1757 4.2856 17.1685 4.31204C17.1613 4.33848 17.1443 4.36106 17.1209 4.375L16.1956 4.91389L16.0803 4.99167C16.0327 5.0241 15.9924 5.06636 15.9621 5.11568C15.9319 5.16499 15.9122 5.22024 15.9046 5.27778C15.8961 5.3366 15.9017 5.39663 15.9211 5.45278C16.0968 6.13396 16.0968 6.84937 15.9211 7.53056C15.9195 7.55182 15.9195 7.57318 15.9211 7.59444C15.9211 7.59444 15.9211 7.59444 15.9211 7.61111C15.9197 7.63609 15.9197 7.66113 15.9211 7.68611C15.9347 7.78454 15.9835 7.87449 16.0583 7.93889L16.0803 7.95833C16.1218 7.99019 16.1648 8.01985 16.2093 8.04722L17.1209 8.61111C17.1443 8.62505 17.1613 8.64763 17.1685 8.67407C17.1757 8.70051 17.1724 8.72874 17.1594 8.75278L16.5086 9.89167C16.4945 9.91513 16.4718 9.93207 16.4455 9.93889C16.4338 9.94401 16.4212 9.94665 16.4084 9.94665C16.3957 9.94665 16.383 9.94401 16.3713 9.93889L15.4433 9.38333C15.3981 9.35651 15.3513 9.3324 15.3033 9.31111C15.2291 9.28051 15.1476 9.27261 15.0691 9.28842C14.9905 9.30422 14.9182 9.34302 14.8612 9.4C14.3637 9.90084 13.7458 10.2618 13.0683 10.4472H13.0353C12.9779 10.4684 12.9259 10.5024 12.8831 10.5466C12.8403 10.5908 12.8079 10.6442 12.7882 10.7028C12.7872 10.7073 12.7872 10.7121 12.7882 10.7167C12.7802 10.7382 12.7746 10.7605 12.7718 10.7833C12.7689 10.8361 12.7689 10.8889 12.7718 10.9417V12.0222C12.7718 12.0495 12.7611 12.0756 12.742 12.0949C12.7229 12.1142 12.6971 12.125 12.6702 12.125H11.3467C11.3198 12.125 11.294 12.1142 11.2749 12.0949C11.2559 12.0756 11.2452 12.0495 11.2452 12.0222V10.95C11.248 10.8982 11.248 10.8463 11.2452 10.7944C11.2467 10.7797 11.2467 10.7648 11.2452 10.75V10.7139V10.6889C11.2079 10.5961 11.1386 10.5201 11.0502 10.475L10.9761 10.4472C10.2986 10.2618 9.68063 9.90084 9.18315 9.4C9.12416 9.33349 9.04549 9.28808 8.95888 9.27056C8.87227 9.25304 8.78239 9.26434 8.70266 9.30278C8.65505 9.32199 8.60913 9.34522 8.56537 9.37222L7.6236 9.91111Z" fill="black"/>
</g>
<defs>
<clipPath id="clip0">
<rect width="24" height="25" fill="white"/>
</clipPath>
</defs>
</svg>
