<svg width="88" height="90" viewBox="0 0 88 90" fill="none" xmlns="http://www.w3.org/2000/svg">
<g clip-path="url(#clip0)">
<path d="M69.3994 90C70.9701 90.0003 72.4783 89.3847 73.6001 88.2853C74.722 87.1859 75.368 85.6904 75.3994 84.12L75.5094 73.21C75.5121 71.9869 75.1409 70.7923 74.4457 69.786C73.7505 68.7798 72.7643 68.0101 71.6194 67.58V67.32C71.8939 65.4821 72.753 63.7815 74.0694 62.47L82.5394 54C84.7095 51.8306 86.0686 48.9817 86.3894 45.93L87.2994 37.38C87.3606 37.05 87.3941 36.7155 87.3994 36.38V36.31C87.3994 36.31 87.3994 36.2 87.3994 36.15L86.9594 22.37C86.9452 21.842 86.8266 21.3221 86.6104 20.8402C86.3942 20.3584 86.0848 19.9241 85.6999 19.5624C85.315 19.2008 84.8623 18.9189 84.3679 18.7331C83.8735 18.5473 83.3472 18.4613 82.8194 18.48C80.9298 18.5452 79.1431 19.3562 77.85 20.7355C76.5569 22.1148 75.8627 23.9502 75.9194 25.84L76.1294 32.41L75.0194 36.89C74.3314 36.8869 73.6496 37.0195 73.0129 37.2804C72.3763 37.5412 71.7974 37.9251 71.3094 38.41L64.0094 45.72L61.4794 46.15C59.8334 46.4375 58.3152 47.2228 57.1294 48.4L52.1294 53.4C50.611 54.8721 49.7373 56.8855 49.6994 59L49.5194 67.34C48.3429 67.7262 47.3168 68.471 46.5851 69.47C45.8534 70.4689 45.4528 71.6718 45.4394 72.91L45.3594 83.8C45.3591 85.3707 45.9747 86.8789 47.0741 88.0007C48.1735 89.1226 49.669 89.7686 51.2394 89.8L69.3394 89.99L69.3994 90ZM54.2294 55.57L59.2294 50.57C59.977 49.8308 60.9333 49.3387 61.9694 49.16L64.9694 48.64C65.0723 48.6206 65.1728 48.5904 65.2694 48.55C65.4475 48.4779 65.6104 48.3727 65.7494 48.24L73.3894 40.6C73.8031 40.1876 74.3637 39.9564 74.9479 39.9573C75.2372 39.9578 75.5235 40.0152 75.7906 40.1264C76.0576 40.2375 76.3002 40.4001 76.5044 40.605C76.7086 40.8098 76.8704 41.0529 76.9807 41.3203C77.091 41.5877 77.1475 41.8743 77.147 42.1635C77.1466 42.4528 77.0891 42.7391 76.978 43.0062C76.8669 43.2732 76.7042 43.5158 76.4994 43.72L67.7294 52.49C67.4509 52.7725 67.2948 53.1533 67.2948 53.55C67.2948 53.9467 67.4509 54.3275 67.7294 54.61C68.0123 54.8915 68.3952 55.0495 68.7944 55.0495C69.1935 55.0495 69.5764 54.8915 69.8594 54.61L78.6994 45.79C79.6691 44.8107 80.2131 43.4882 80.2131 42.11C80.2131 40.7318 79.6691 39.4093 78.6994 38.43C78.4585 38.1974 78.1975 37.9865 77.9194 37.8L79.0994 33C79.0932 32.9839 79.0932 32.9661 79.0994 32.95C79.0994 32.95 79.0994 32.84 79.0994 32.79C79.0994 32.74 79.0994 32.69 79.0994 32.64V32.59L78.8794 25.82C78.847 24.7242 79.2494 23.6602 79.9989 22.8602C80.7483 22.0601 81.7839 21.5891 82.8794 21.55C83.02 21.5437 83.1604 21.5671 83.2914 21.6188C83.4224 21.6705 83.541 21.7493 83.6394 21.85C83.8204 22.0356 83.9271 22.281 83.9394 22.54L84.3694 36.21L84.2694 37.21C84.2694 37.21 84.2694 37.28 84.2694 37.32L83.3894 45.68C83.1366 48.0489 82.0775 50.259 80.3894 51.94L71.8994 60.43C70.1279 62.1994 68.9741 64.4929 68.6094 66.97V67.28L52.6094 67.11L52.7894 59.11C52.7892 57.7873 53.306 56.517 54.2294 55.57ZM49.2294 85.92C48.9589 85.6439 48.7454 85.3172 48.6013 84.9586C48.4571 84.6 48.3851 84.2165 48.3894 83.83L48.5094 72.92C48.5146 72.1489 48.8225 71.4107 49.3669 70.8645C49.9112 70.3183 50.6483 70.0078 51.4194 70L69.5194 70.2C69.9056 70.2014 70.2877 70.28 70.6432 70.4311C70.9986 70.5822 71.3203 70.8028 71.5894 71.08C71.8599 71.356 72.0733 71.6827 72.2175 72.0413C72.3616 72.4 72.4336 72.7835 72.4294 73.17L72.3094 84.08C72.3068 84.4661 72.2277 84.8478 72.0767 85.2031C71.9256 85.5584 71.7056 85.8803 71.4294 86.15C70.8649 86.6855 70.1175 86.9859 69.3394 86.99L51.2394 86.8C50.4718 86.7785 49.7417 86.4636 49.1994 85.92H49.2294Z" fill="black"/>
<path d="M68.8805 77.12C70.2999 77.12 71.4505 75.9694 71.4505 74.55C71.4505 73.1306 70.2999 71.98 68.8805 71.98C67.4612 71.98 66.3105 73.1306 66.3105 74.55C66.3105 75.9694 67.4612 77.12 68.8805 77.12Z" fill="black"/>
<path d="M-0.000149717 36.36C0.00442126 36.6961 0.0412567 37.031 0.10985 37.36L1.00985 45.91C1.32216 48.9699 2.68225 51.8278 4.85985 54L13.3498 62.5C14.6698 63.809 15.5295 65.5108 15.7999 67.35V67.6C14.9882 67.9072 14.2517 68.3846 13.6399 69C13.0922 69.5566 12.66 70.2159 12.3683 70.9402C12.0765 71.6644 11.9309 72.4393 11.9398 73.22L12.0599 84.13C12.0935 85.6884 12.7324 87.1724 13.841 88.268C14.9497 89.3636 16.4412 89.9848 17.9998 90H18.0599L36.1599 89.81C37.7303 89.7786 39.2257 89.1326 40.3251 88.0108C41.4245 86.889 42.0402 85.3808 42.0399 83.81L41.9299 72.9C41.9082 71.6627 41.5046 70.4624 40.7742 69.4634C40.0438 68.4645 39.0223 67.7158 37.8499 67.32L37.6999 59C37.6522 56.9201 36.8031 54.939 35.3299 53.47L30.3299 48.47C29.144 47.2929 27.6258 46.5076 25.9798 46.22L23.4499 45.79L16.1499 38.48C15.6625 37.9942 15.0837 37.6098 14.4469 37.3489C13.8101 37.088 13.128 36.9558 12.4398 36.96L11.3398 32.48L11.5499 25.91C11.6038 24.0176 10.906 22.1808 9.60916 20.8015C8.31233 19.4223 6.52201 18.6127 4.62985 18.55C4.08421 18.5394 3.54198 18.6384 3.03527 18.8411C2.52856 19.0438 2.06765 19.346 1.67985 19.73C0.958618 20.4512 0.540094 21.4206 0.50985 22.44L-0.000149717 36.18C-0.00515843 36.2399 -0.00515843 36.3001 -0.000149717 36.36ZM38.9199 72.92L39.0399 83.83C39.0402 84.6103 38.7365 85.3601 38.1932 85.9202C37.6499 86.4802 36.9098 86.8066 36.1299 86.83L18.0299 87C17.2505 87.0021 16.501 86.7009 15.9398 86.16C15.6636 85.8903 15.4436 85.5685 15.2925 85.2132C15.1415 84.8578 15.0624 84.4761 15.0599 84.09L14.9398 73.18C14.9356 72.7935 15.0076 72.41 15.1518 72.0514C15.2959 71.6928 15.5093 71.3661 15.7799 71.09C16.0489 70.8129 16.3706 70.5923 16.7261 70.4412C17.0815 70.2901 17.4636 70.2115 17.8498 70.21L35.9499 70.01C36.3359 70.0061 36.719 70.0782 37.0772 70.2223C37.4355 70.3664 37.7618 70.5797 38.0376 70.8499C38.3134 71.1201 38.5332 71.442 38.6846 71.7972C38.836 72.1524 38.9159 72.5339 38.9199 72.92ZM3.69985 21.8C3.90045 21.605 4.17005 21.4971 4.44985 21.5C5.54448 21.5418 6.57847 22.0136 7.32737 22.813C8.07626 23.6124 8.47961 24.675 8.44985 25.77L8.22985 32.54V32.59C8.22985 32.59 8.22985 32.69 8.22985 32.74C8.22985 32.79 8.22985 32.85 8.22985 32.9C8.236 32.9161 8.236 32.9339 8.22985 32.95L9.42985 37.8C9.1499 37.9841 8.88865 38.1951 8.64985 38.43C7.67525 39.4068 7.1279 40.7302 7.1279 42.11C7.1279 43.4898 7.67525 44.8133 8.64985 45.79L17.4198 54.56C17.7028 54.8415 18.0857 54.9996 18.4848 54.9996C18.884 54.9996 19.2669 54.8415 19.5499 54.56C19.8283 54.2775 19.9844 53.8967 19.9844 53.5C19.9844 53.1033 19.8283 52.7226 19.5499 52.44L10.7799 43.67C10.3661 43.2576 10.1331 42.6977 10.1322 42.1136C10.1317 41.8243 10.1883 41.5378 10.2985 41.2704C10.4088 41.003 10.5706 40.7599 10.7749 40.555C10.9791 40.3502 11.2216 40.1875 11.4887 40.0764C11.7557 39.9653 12.0421 39.9079 12.3313 39.9074C12.9155 39.9065 13.4761 40.1376 13.8899 40.55L21.5299 48.19C21.6688 48.3228 21.8317 48.428 22.0098 48.5C22.1059 48.5418 22.2066 48.572 22.3099 48.59L25.3099 49.11C26.3445 49.293 27.2996 49.7845 28.0498 50.52L33.0499 55.52C33.5441 55.9705 33.9443 56.5143 34.2275 57.1202C34.5107 57.726 34.6712 58.3819 34.6999 59.05L34.8799 67.05L18.8799 67.23V66.91C18.5144 64.436 17.3606 62.1459 15.5898 60.38L7.09985 51.88C5.41379 50.2016 4.35481 47.9954 4.09985 45.63L3.21985 37.26C3.21985 37.26 3.21985 37.19 3.21985 37.15L3.11985 36.15L3.54985 22.48C3.51677 22.2427 3.57 22.0014 3.69985 21.8Z" fill="black"/>
<path d="M18.5309 77.12C19.9503 77.12 21.1009 75.9694 21.1009 74.55C21.1009 73.1306 19.9503 71.98 18.5309 71.98C17.1116 71.98 15.9609 73.1306 15.9609 74.55C15.9609 75.9694 17.1116 77.12 18.5309 77.12Z" fill="black"/>
<path d="M43.6992 32.34C45.4793 32.34 47.2193 31.8121 48.6994 30.8232C50.1794 29.8343 51.3329 28.4287 52.0141 26.7841C52.6953 25.1396 52.8736 23.33 52.5263 21.5842C52.179 19.8383 51.3219 18.2347 50.0632 16.976C48.8045 15.7173 47.2009 14.8602 45.455 14.5129C43.7092 14.1656 41.8996 14.3439 40.2551 15.0251C38.6105 15.7062 37.2049 16.8598 36.216 18.3398C35.2271 19.8199 34.6992 21.5599 34.6992 23.34C34.6992 25.7269 35.6474 28.0161 37.3353 29.7039C39.0231 31.3918 41.3123 32.34 43.6992 32.34ZM43.6992 17.34C44.8859 17.34 46.0459 17.6919 47.0326 18.3512C48.0193 19.0104 48.7884 19.9475 49.2425 21.0439C49.6966 22.1402 49.8154 23.3466 49.5839 24.5105C49.3524 25.6744 48.781 26.7435 47.9419 27.5826C47.1027 28.4217 46.0336 28.9932 44.8698 29.2247C43.7059 29.4562 42.4995 29.3374 41.4031 28.8832C40.3068 28.4291 39.3697 27.6601 38.7104 26.6734C38.0511 25.6867 37.6992 24.5267 37.6992 23.34C37.6992 21.7487 38.3314 20.2225 39.4566 19.0973C40.5818 17.9721 42.1079 17.34 43.6992 17.34Z" fill="black"/>
<path d="M41.3306 46.68H46.0706C46.9644 46.68 47.8215 46.3249 48.4535 45.693C49.0855 45.061 49.4406 44.2038 49.4406 43.31V40.15C51.626 39.4017 53.6439 38.2331 55.3806 36.71L58.1306 38.29C58.5105 38.5161 58.9324 38.6629 59.3707 38.7213C59.809 38.7797 60.2546 38.7487 60.6806 38.63C61.5282 38.3908 62.247 37.8265 62.6806 37.06L65.1006 33C65.5431 32.2249 65.6611 31.3062 65.4288 30.4444C65.1965 29.5826 64.6327 28.8477 63.8606 28.4L61.1206 26.81C61.3412 25.68 61.4518 24.5313 61.4506 23.38C61.4512 22.2254 61.3406 21.0734 61.1206 19.94L63.8606 18.36C64.6327 17.9123 65.1965 17.1774 65.4288 16.3156C65.6611 15.4538 65.5431 14.5351 65.1006 13.76L62.7006 9.62C62.2548 8.84581 61.5198 8.28031 60.6573 8.04779C59.7947 7.81527 58.8751 7.93476 58.1006 8.38L55.3806 10C53.6465 8.47331 51.6278 7.30426 49.4406 6.56V3.37C49.4406 2.47622 49.0855 1.61905 48.4535 0.98705C47.8215 0.355052 46.9644 0 46.0706 0H41.3306C40.4368 0 39.5796 0.355052 38.9476 0.98705C38.3156 1.61905 37.9606 2.47622 37.9606 3.37V6.53C35.7689 7.2854 33.7472 8.46444 32.0106 10L29.2706 8.41C28.5018 7.9743 27.593 7.85696 26.7388 8.08313C25.8846 8.30929 25.153 8.86097 24.7006 9.62L22.3306 13.72C21.8845 14.4933 21.7635 15.412 21.9941 16.2744C22.2247 17.1368 22.7881 17.8725 23.5606 18.32L26.3006 19.91C25.8608 22.1755 25.8608 24.5045 26.3006 26.77L23.5606 28.36C23.1692 28.578 22.8255 28.8721 22.5494 29.225C22.2734 29.5778 22.0708 29.9823 21.9534 30.4146C21.836 30.847 21.8062 31.2984 21.8658 31.7424C21.9255 32.1864 22.0733 32.614 22.3006 33L24.7006 37.06C25.1342 37.8265 25.853 38.3908 26.7006 38.63C26.9838 38.7091 27.2765 38.7494 27.5706 38.75C28.1614 38.748 28.7411 38.5892 29.2506 38.29L31.9906 36.71C33.7346 38.2282 35.7547 39.3961 37.9406 40.15V43.31C37.9406 43.7542 38.0284 44.1941 38.199 44.6043C38.3696 45.0145 38.6196 45.3869 38.9347 45.7001C39.2497 46.0132 39.6236 46.2611 40.0348 46.4292C40.446 46.5974 40.8863 46.6826 41.3306 46.68ZM27.7706 35.68C27.6855 35.727 27.5854 35.7386 27.4919 35.7124C27.3983 35.6862 27.3188 35.6243 27.2706 35.54L24.9006 31.44C24.8522 31.3546 24.8388 31.2539 24.863 31.1589C24.8872 31.0638 24.9473 30.9818 25.0306 30.93L28.4106 29L28.8806 28.68L28.9606 28.61C29.231 28.3764 29.4084 28.0535 29.4606 27.7C29.4656 27.6101 29.4656 27.5199 29.4606 27.43C29.4606 27.43 29.4606 27.43 29.4606 27.37C29.4662 27.2934 29.4662 27.2166 29.4606 27.14C28.8073 24.6691 28.8073 22.0709 29.4606 19.6C29.4954 19.4217 29.4954 19.2383 29.4606 19.06C29.4378 18.8507 29.3719 18.6484 29.2669 18.4659C29.1619 18.2835 29.0201 18.1248 28.8506 18L28.4106 17.71L25.0306 15.71C24.948 15.6601 24.8881 15.5799 24.8639 15.4864C24.8396 15.393 24.8527 15.2938 24.9006 15.21L27.2706 11.11C27.3188 11.0257 27.3983 10.9638 27.4919 10.9376C27.5854 10.9114 27.6855 10.923 27.7706 10.97L31.1506 12.92C31.3065 13.0171 31.4704 13.1008 31.6406 13.17H31.7406C31.8901 13.2295 32.0496 13.2601 32.2106 13.26H32.2706C32.4484 13.2567 32.6243 13.2229 32.7906 13.16C32.9712 13.0881 33.1347 12.9791 33.2706 12.84C35.0824 11.037 37.3331 9.73755 39.8006 9.07H39.9106H39.9906C40.1339 9.01409 40.2661 8.93279 40.3806 8.83C40.4994 8.7232 40.6006 8.59833 40.6806 8.46C40.7604 8.3109 40.8113 8.14803 40.8306 7.98C40.8408 7.79014 40.8408 7.59986 40.8306 7.41V3.37C40.8266 3.30824 40.8381 3.24647 40.8642 3.19034C40.8902 3.13421 40.93 3.08551 40.9797 3.0487C41.0295 3.01189 41.0876 2.98814 41.1489 2.97963C41.2102 2.97113 41.2727 2.97813 41.3306 3H46.0706C46.1687 3 46.2628 3.03898 46.3322 3.10837C46.4016 3.17776 46.4406 3.27187 46.4406 3.37V7.26C46.4304 7.44653 46.4304 7.63347 46.4406 7.82C46.4361 7.87992 46.4361 7.94008 46.4406 8C46.4349 8.03645 46.4349 8.07355 46.4406 8.11L46.5006 8.23L46.5606 8.38L46.6906 8.56L46.7506 8.62C46.7956 8.67169 46.8459 8.7186 46.9006 8.76L46.9906 8.82L47.1406 8.92H47.2306L47.4206 8.99C49.89 9.65279 52.1418 10.9529 53.9506 12.76C54.0901 12.8993 54.2569 13.0083 54.4406 13.08C54.6069 13.1429 54.7828 13.1767 54.9606 13.18H55.0206C55.1814 13.1791 55.3408 13.1486 55.4906 13.09H55.5906C55.7598 13.0187 55.9235 12.9351 56.0806 12.84L59.6306 11C59.7156 10.953 59.8157 10.9414 59.9093 10.9676C60.0028 10.9938 60.0823 11.0557 60.1306 11.14L62.5006 15.24C62.548 15.3265 62.56 15.4282 62.5338 15.5234C62.5077 15.6185 62.4456 15.6998 62.3606 15.75L58.9906 17.69L58.5706 17.97C58.3972 18.0868 58.2505 18.2389 58.1402 18.4164C58.0299 18.594 57.9585 18.7929 57.9306 19C57.8996 19.2118 57.9202 19.4279 57.9906 19.63C58.6306 22.0823 58.6306 24.6577 57.9906 27.11C57.985 27.1866 57.985 27.2634 57.9906 27.34C57.9906 27.34 57.9906 27.34 57.9906 27.4C57.9856 27.4899 57.9856 27.5801 57.9906 27.67C58.0401 28.0244 58.218 28.3482 58.4906 28.58L58.5706 28.65C58.7216 28.7647 58.8785 28.8715 59.0406 28.97L62.3606 31C62.4456 31.0502 62.5077 31.1315 62.5338 31.2267C62.56 31.3218 62.548 31.4235 62.5006 31.51L60.1306 35.61C60.079 35.6945 59.9964 35.7554 59.9006 35.78C59.858 35.7984 59.812 35.8079 59.7656 35.8079C59.7191 35.8079 59.6732 35.7984 59.6306 35.78L56.2506 33.78C56.0858 33.6834 55.9155 33.5966 55.7406 33.52C55.4704 33.4098 55.1737 33.3814 54.8875 33.4383C54.6013 33.4952 54.3381 33.6349 54.1306 33.84C52.3187 35.643 50.068 36.9424 47.6006 37.61H47.4806C47.2713 37.6863 47.0819 37.8086 46.9261 37.9678C46.7704 38.127 46.6523 38.3191 46.5806 38.53C46.5767 38.5464 46.5767 38.5636 46.5806 38.58C46.5512 38.6574 46.531 38.7379 46.5206 38.82C46.5103 39.0099 46.5103 39.2001 46.5206 39.39V43.28C46.5206 43.3781 46.4816 43.4722 46.4122 43.5416C46.3428 43.611 46.2487 43.65 46.1506 43.65H41.3306C41.2324 43.65 41.1383 43.611 41.0689 43.5416C40.9996 43.4722 40.9606 43.3781 40.9606 43.28V39.42C40.9708 39.2335 40.9708 39.0465 40.9606 38.86C40.9662 38.8068 40.9662 38.7532 40.9606 38.7V38.57V38.48C40.8249 38.1459 40.5726 37.8723 40.2506 37.71L39.9806 37.61C37.5132 36.9424 35.2624 35.643 33.4506 33.84C33.2357 33.6006 32.9492 33.4371 32.6338 33.374C32.3183 33.3109 31.991 33.3516 31.7006 33.49C31.5272 33.5592 31.3599 33.6428 31.2006 33.74L27.7706 35.68Z" fill="black"/>
</g>
<defs>
<clipPath id="clip0">
<rect width="87.41" height="90" fill="white"/>
</clipPath>
</defs>
</svg>
