<svg width="97" height="63" viewBox="0 0 97 63" fill="none" xmlns="http://www.w3.org/2000/svg">
<mask id="path-1-outside-1" maskUnits="userSpaceOnUse" x="-0.341797" y="0" width="98" height="63" fill="black">
<rect fill="white" x="-0.341797" width="98" height="63"/>
<path d="M48.5785 62C64.7092 62 77.3445 55.4527 77.3445 47.0956V29.8492L84.7327 26.7536L84.7772 38.4239L80.5333 52.7646C80.4911 52.907 80.482 53.0576 80.5068 53.2043C80.5316 53.351 80.5895 53.4896 80.676 53.6092C80.7624 53.7288 80.8749 53.826 81.0046 53.893C81.1342 53.9599 81.2774 53.9949 81.4225 53.9949L90.3906 53.9593C90.5378 53.9595 90.6829 53.9236 90.8138 53.8548C90.9448 53.7859 91.0579 53.6861 91.1437 53.5635C91.2295 53.4409 91.2855 53.2991 91.3072 53.1498C91.3289 53.0006 91.3156 52.8482 91.2684 52.7053L86.6387 38.4299L86.5923 25.9821L95.8402 22.1072C95.873 22.0904 95.9046 22.0712 95.9347 22.0498C96.0893 21.9645 96.2168 21.8356 96.3022 21.6784C96.3876 21.5211 96.4274 21.3421 96.4168 21.1625C96.4063 20.9828 96.3459 20.81 96.2427 20.6644C96.1395 20.5188 95.9978 20.4065 95.8344 20.3408L48.81 1.06891C48.5865 0.977029 48.3372 0.977029 48.1137 1.06891L1.23777 20.7087C1.06646 20.7801 0.919826 20.9023 0.816587 21.0596C0.713347 21.217 0.658203 21.4023 0.658203 21.5919C0.658203 21.7815 0.713347 21.9668 0.816587 22.1242C0.919826 22.2815 1.06646 22.4037 1.23777 22.4751L19.8088 30.0865V47.0976C19.8088 47.1154 19.8088 47.1332 19.8088 47.151C19.8686 55.4844 32.4825 62 48.5785 62ZM82.6764 52.0782L85.7436 41.7114L89.1021 52.0525L82.6764 52.0782ZM21.6703 30.8461L48.2622 41.745C48.3721 41.7898 48.4893 41.8126 48.6075 41.8123C48.728 41.8124 48.8472 41.7882 48.9586 41.7411L75.4849 30.6285V47.0956C75.4849 54.1413 63.164 60.0932 48.5785 60.0932C33.993 60.0932 21.6703 54.1413 21.6703 47.0956V30.8461ZM93.0064 21.2289L48.6037 39.8224L4.06385 21.5692L48.4647 2.97573L93.0064 21.2289Z"/>
</mask>
<path d="M48.5785 62C64.7092 62 77.3445 55.4527 77.3445 47.0956V29.8492L84.7327 26.7536L84.7772 38.4239L80.5333 52.7646C80.4911 52.907 80.482 53.0576 80.5068 53.2043C80.5316 53.351 80.5895 53.4896 80.676 53.6092C80.7624 53.7288 80.8749 53.826 81.0046 53.893C81.1342 53.9599 81.2774 53.9949 81.4225 53.9949L90.3906 53.9593C90.5378 53.9595 90.6829 53.9236 90.8138 53.8548C90.9448 53.7859 91.0579 53.6861 91.1437 53.5635C91.2295 53.4409 91.2855 53.2991 91.3072 53.1498C91.3289 53.0006 91.3156 52.8482 91.2684 52.7053L86.6387 38.4299L86.5923 25.9821L95.8402 22.1072C95.873 22.0904 95.9046 22.0712 95.9347 22.0498C96.0893 21.9645 96.2168 21.8356 96.3022 21.6784C96.3876 21.5211 96.4274 21.3421 96.4168 21.1625C96.4063 20.9828 96.3459 20.81 96.2427 20.6644C96.1395 20.5188 95.9978 20.4065 95.8344 20.3408L48.81 1.06891C48.5865 0.977029 48.3372 0.977029 48.1137 1.06891L1.23777 20.7087C1.06646 20.7801 0.919826 20.9023 0.816587 21.0596C0.713347 21.217 0.658203 21.4023 0.658203 21.5919C0.658203 21.7815 0.713347 21.9668 0.816587 22.1242C0.919826 22.2815 1.06646 22.4037 1.23777 22.4751L19.8088 30.0865V47.0976C19.8088 47.1154 19.8088 47.1332 19.8088 47.151C19.8686 55.4844 32.4825 62 48.5785 62ZM82.6764 52.0782L85.7436 41.7114L89.1021 52.0525L82.6764 52.0782ZM21.6703 30.8461L48.2622 41.745C48.3721 41.7898 48.4893 41.8126 48.6075 41.8123C48.728 41.8124 48.8472 41.7882 48.9586 41.7411L75.4849 30.6285V47.0956C75.4849 54.1413 63.164 60.0932 48.5785 60.0932C33.993 60.0932 21.6703 54.1413 21.6703 47.0956V30.8461ZM93.0064 21.2289L48.6037 39.8224L4.06385 21.5692L48.4647 2.97573L93.0064 21.2289Z" fill="#343434"/>
<path d="M48.5785 62C64.7092 62 77.3445 55.4527 77.3445 47.0956V29.8492L84.7327 26.7536L84.7772 38.4239L80.5333 52.7646C80.4911 52.907 80.482 53.0576 80.5068 53.2043C80.5316 53.351 80.5895 53.4896 80.676 53.6092C80.7624 53.7288 80.8749 53.826 81.0046 53.893C81.1342 53.9599 81.2774 53.9949 81.4225 53.9949L90.3906 53.9593C90.5378 53.9595 90.6829 53.9236 90.8138 53.8548C90.9448 53.7859 91.0579 53.6861 91.1437 53.5635C91.2295 53.4409 91.2855 53.2991 91.3072 53.1498C91.3289 53.0006 91.3156 52.8482 91.2684 52.7053L86.6387 38.4299L86.5923 25.9821L95.8402 22.1072C95.873 22.0904 95.9046 22.0712 95.9347 22.0498C96.0893 21.9645 96.2168 21.8356 96.3022 21.6784C96.3876 21.5211 96.4274 21.3421 96.4168 21.1625C96.4063 20.9828 96.3459 20.81 96.2427 20.6644C96.1395 20.5188 95.9978 20.4065 95.8344 20.3408L48.81 1.06891C48.5865 0.977029 48.3372 0.977029 48.1137 1.06891L1.23777 20.7087C1.06646 20.7801 0.919826 20.9023 0.816587 21.0596C0.713347 21.217 0.658203 21.4023 0.658203 21.5919C0.658203 21.7815 0.713347 21.9668 0.816587 22.1242C0.919826 22.2815 1.06646 22.4037 1.23777 22.4751L19.8088 30.0865V47.0976C19.8088 47.1154 19.8088 47.1332 19.8088 47.151C19.8686 55.4844 32.4825 62 48.5785 62ZM82.6764 52.0782L85.7436 41.7114L89.1021 52.0525L82.6764 52.0782ZM21.6703 30.8461L48.2622 41.745C48.3721 41.7898 48.4893 41.8126 48.6075 41.8123C48.728 41.8124 48.8472 41.7882 48.9586 41.7411L75.4849 30.6285V47.0956C75.4849 54.1413 63.164 60.0932 48.5785 60.0932C33.993 60.0932 21.6703 54.1413 21.6703 47.0956V30.8461ZM93.0064 21.2289L48.6037 39.8224L4.06385 21.5692L48.4647 2.97573L93.0064 21.2289Z" stroke="black" mask="url(#path-1-outside-1)"/>
</svg>
