<svg width="97" height="63" viewBox="0 0 97 63" fill="none" xmlns="http://www.w3.org/2000/svg">
<path d="M48.608 42.0623C48.7618 42.0623 48.9139 42.0314 49.0558 41.9714C49.0558 41.9714 49.0559 41.9713 49.056 41.9713L75.2349 31.0043V47.0956C75.2349 50.4654 72.277 53.6519 67.3925 56.0114C62.5288 58.361 55.8406 59.8432 48.5785 59.8432C41.3164 59.8432 34.6277 58.361 29.7636 56.0114C24.8786 53.6519 21.9203 50.4654 21.9203 47.0956V31.2187L48.1674 41.9764L48.168 41.9766C48.3078 42.0335 48.4572 42.0626 48.608 42.0623ZM48.608 42.0623C48.6077 42.0623 48.6075 42.0623 48.6073 42.0623L48.6075 41.8123L48.6081 42.0623C48.6081 42.0623 48.608 42.0623 48.608 42.0623ZM81.4224 54.2449L81.4235 54.2449L48.9048 0.837586C48.6205 0.720768 48.3029 0.720805 48.0186 0.837688L48.0171 0.838333L1.14156 20.478C0.923455 20.5689 0.737808 20.724 0.607573 20.9225C0.477373 21.1209 0.408203 21.354 0.408203 21.5919C0.408203 21.8299 0.477377 22.0629 0.607573 22.2613C0.737807 22.4598 0.923454 22.6149 1.14156 22.7059L1.14296 22.7064L19.5588 30.2543V47.0976V47.0977V47.0978V47.0979V47.098V47.0981V47.0982V47.0983V47.0984V47.0985V47.0986V47.0987V47.0988V47.0989V47.099V47.0991V47.0992V47.0993V47.0994V47.0995V47.0997V47.0998V47.0999V47.1V47.1001V47.1002V47.1003V47.1004V47.1005V47.1006V47.1007V47.1008V47.1009V47.101V47.1011V47.1012V47.1013V47.1014V47.1015V47.1016V47.1017V47.1018V47.1019V47.1021V47.1022V47.1023V47.1024V47.1025V47.1026V47.1027V47.1028V47.1029V47.103V47.1031V47.1032V47.1033V47.1034V47.1035V47.1036V47.1037V47.1038V47.1039V47.104V47.1041V47.1042V47.1043V47.1045V47.1046V47.1047V47.1048V47.1049V47.105V47.1051V47.1052V47.1053V47.1054V47.1055V47.1056V47.1057V47.1058V47.1059V47.106V47.1061V47.1062V47.1063V47.1064V47.1065V47.1066V47.1067V47.1068V47.107V47.1071V47.1072V47.1073V47.1074V47.1075V47.1076V47.1077V47.1078V47.1079V47.108V47.1081V47.1082V47.1083V47.1084V47.1085V47.1086V47.1087V47.1088V47.1089V47.109V47.1091V47.1092V47.1094V47.1095V47.1096V47.1097V47.1098V47.1099V47.11V47.1101V47.1102V47.1103V47.1104V47.1105V47.1106V47.1107V47.1108V47.1109V47.111V47.1111V47.1112V47.1113V47.1114V47.1115V47.1116V47.1118V47.1119V47.112V47.1121V47.1122V47.1123V47.1124V47.1125V47.1126V47.1127V47.1128V47.1129V47.113V47.1131V47.1132V47.1133V47.1134V47.1135V47.1136V47.1137V47.1138V47.1139V47.114V47.1142V47.1143V47.1144V47.1145V47.1146V47.1147V47.1148V47.1149V47.115V47.1151V47.1152V47.1153V47.1154V47.1155V47.1156V47.1157V47.1158V47.1159V47.116V47.1161V47.1162V47.1163V47.1164V47.1166V47.1167V47.1168V47.1169V47.117V47.1171V47.1172V47.1173V47.1174V47.1175V47.1176V47.1177V47.1178V47.1179V47.118V47.1181V47.1182V47.1183V47.1184V47.1185V47.1186V47.1187V47.1188V47.1189V47.1191V47.1192V47.1193V47.1194V47.1195V47.1196V47.1197V47.1198V47.1199V47.12V47.1201V47.1202V47.1203V47.1204V47.1205V47.1206V47.1207V47.1208V47.1209V47.121V47.1211V47.1212V47.1213V47.1215V47.1216V47.1217V47.1218V47.1219V47.122V47.1221V47.1222V47.1223V47.1224V47.1225V47.1226V47.1227V47.1228V47.1229V47.123V47.1231V47.1232V47.1233V47.1234V47.1235V47.1236V47.1237V47.1239V47.124V47.1241V47.1242V47.1243V47.1244V47.1245V47.1246V47.1247V47.1248V47.1249V47.125V47.1251V47.1252V47.1253V47.1254V47.1255V47.1256V47.1257V47.1258V47.1259V47.126V47.1261V47.1263V47.1264V47.1265V47.1266V47.1267V47.1268V47.1269V47.127V47.1271V47.1272V47.1273V47.1274V47.1275V47.1276V47.1277V47.1278V47.1279V47.128V47.1281V47.1282V47.1283V47.1284V47.1285V47.1287V47.1288V47.1289V47.129V47.1291V47.1292V47.1293V47.1294V47.1295V47.1296V47.1297V47.1298V47.1299V47.13V47.1301V47.1302V47.1303V47.1304V47.1305V47.1306V47.1307V47.1308V47.1309V47.1311V47.1312V47.1313V47.1314V47.1315V47.1316V47.1317V47.1318V47.1319V47.132V47.1321V47.1322V47.1323V47.1324V47.1325V47.1326V47.1327V47.1328V47.1329V47.133V47.1331V47.1332V47.1333V47.1334V47.1336V47.1337V47.1338V47.1339V47.134V47.1341V47.1342V47.1343V47.1344V47.1345V47.1346V47.1347V47.1348V47.1349V47.135V47.1351V47.1352V47.1353V47.1354V47.1355V47.1356V47.1357V47.1358V47.136V47.1361V47.1362V47.1363V47.1364V47.1365V47.1366V47.1367V47.1368V47.1369V47.137V47.1371V47.1372V47.1373V47.1374V47.1375V47.1376V47.1377V47.1378V47.1379V47.138V47.1381V47.1382V47.1384V47.1385V47.1386V47.1387V47.1388V47.1389V47.139V47.1391V47.1392V47.1393V47.1394V47.1395V47.1396V47.1397V47.1398V47.1399V47.14V47.1401V47.1402V47.1403V47.1404V47.1405V47.1406V47.1408V47.1409V47.141V47.1411V47.1412V47.1413V47.1414V47.1415V47.1416V47.1417V47.1418V47.1419V47.142V47.1421V47.1422V47.1423V47.1424V47.1425V47.1426V47.1427V47.1428V47.1429V47.143V47.1432V47.1433V47.1434V47.1435V47.1436V47.1437V47.1438V47.1439V47.144V47.1441V47.1442V47.1443V47.1444V47.1445V47.1446V47.1447V47.1448V47.1449V47.145V47.1451V47.1452V47.1453V47.1454V47.1455V47.1457V47.1458V47.1459V47.146V47.1461V47.1462V47.1463V47.1464V47.1465V47.1466V47.1467V47.1468V47.1469V47.147V47.1471V47.1472V47.1473V47.1474V47.1475V47.1476V47.1477V47.1478V47.1479V47.1481V47.1482V47.1483V47.1484V47.1485V47.1486V47.1487V47.1488V47.1489V47.149V47.1491V47.1492V47.1493V47.1494V47.1495V47.1496V47.1497V47.1498V47.1499V47.15V47.1501V47.1502V47.1503V47.1505V47.1506V47.1507V47.1508V47.1509L19.5588 47.151L19.5588 47.1528C19.5897 51.4573 22.8594 55.235 28.0654 57.9227C33.2814 60.6155 40.5002 62.25 48.5785 62.25C56.6742 62.25 63.9071 60.6076 69.1255 57.9037C74.3338 55.2051 77.5945 51.4128 77.5945 47.0956V30.0155L84.4841 27.1288L84.527 38.3882L80.2935 52.6937C80.2406 52.8726 80.2292 53.0617 80.2603 53.246C80.2914 53.4302 80.3643 53.6048 80.4733 53.7557C80.5825 53.9067 80.725 54.0299 80.8898 54.1151C81.0547 54.2003 81.2371 54.2449 81.4224 54.2449ZM95.9277 20.1089L48.9051 0.837693L90.3904 54.2094L90.3906 53.9594L90.3916 54.2093L90.3906 54.2094C90.5785 54.2095 90.7635 54.1637 90.9302 54.0761C91.0968 53.9885 91.2401 53.8617 91.3485 53.7068C91.4569 53.552 91.5273 53.3733 91.5546 53.1858C91.5818 52.9983 91.5652 52.8067 91.5058 52.6268L86.8885 38.3899L86.8429 26.1482L95.9368 22.3378L95.9456 22.3341L95.9541 22.3297C95.9934 22.3096 96.0314 22.2869 96.0678 22.2618C96.2592 22.1531 96.4162 21.9921 96.5219 21.7977C96.6297 21.5992 96.6796 21.3737 96.6664 21.1478C96.6531 20.9219 96.5771 20.704 96.4466 20.5198C96.3162 20.3359 96.1367 20.1931 95.9285 20.1092C95.9283 20.1091 95.928 20.109 95.9277 20.1089ZM88.7585 51.8039L83.0115 51.8269L85.7547 42.555L88.7585 51.8039ZM48.4658 3.24633L92.3532 21.2314L48.6026 39.5518L4.71703 21.5667L48.4658 3.24633Z" fill="#343434" stroke="black" stroke-width="0.5"/>
</svg>
